<svg xmlns="http://www.w3.org/2000/svg" xmlns:xlink="http://www.w3.org/1999/xlink" width="108.914" height="108.914" viewBox="0 0 108.914 108.914">
  <defs>
    <filter id="Trazado_896985" x="0" y="0" width="108.914" height="108.914" filterUnits="userSpaceOnUse">
      <feOffset dy="3" input="SourceAlpha"/>
      <feGaussianBlur stdDeviation="3" result="blur"/>
      <feFlood flood-opacity="0.161"/>
      <feComposite operator="in" in2="blur"/>
      <feComposite in="SourceGraphic"/>
    </filter>
  </defs>
  <g id="Grupo_1176710" data-name="Grupo 1176710" transform="translate(-901 -5606.645)">
    <g id="Grupo_1111467" data-name="Grupo 1111467" transform="translate(910 5612.645)">
      <g id="Grupo_1111318" data-name="Grupo 1111318" transform="translate(0 0)">
        <g id="Grupo_1109826" data-name="Grupo 1109826" transform="translate(0)">
          <g id="Grupo_1098742" data-name="Grupo 1098742">
            <g transform="matrix(1, 0, 0, 1, -9, -6)" filter="url(#Trazado_896985)">
              <g id="Trazado_896985-2" data-name="Trazado 896985" transform="translate(9 6)" fill="#fd9826" opacity="0.859">
                <path d="M 45.4569091796875 89.41394805908203 C 39.52209854125977 89.41394805908203 33.76562118530273 88.25194549560547 28.34735870361328 85.960205078125 C 23.11317253112793 83.74633026123047 18.41208457946777 80.57666778564453 14.37467193603516 76.53926849365234 C 10.33727169036865 72.50185394287109 7.167609214782715 67.80077362060547 4.953734397888184 62.56658172607422 C 2.661996603012085 57.14831924438477 1.499996662139893 51.391845703125 1.499996662139893 45.45703125 C 1.499996662139893 39.5221061706543 2.661996603012085 33.76562118530273 4.953734397888184 28.34735679626465 C 7.167609214782715 23.11318206787109 10.33727169036865 18.41209602355957 14.37467193603516 14.37468242645264 C 18.41208457946777 10.33728313446045 23.11317253112793 7.16760778427124 28.34735870361328 4.953745365142822 C 33.76562118530273 2.662007808685303 39.52209854125977 1.500007748603821 45.4569091796875 1.500007748603821 C 51.39171981811523 1.500007748603821 57.14819717407227 2.662007808685303 62.56645965576172 4.953745365142822 C 67.80064392089844 7.16760778427124 72.50173187255859 10.33728313446045 76.53914642333984 14.37468242645264 C 80.57654571533203 18.41209602355957 83.74620819091797 23.11318206787109 85.9600830078125 28.34735679626465 C 88.25182342529297 33.76562118530273 89.413818359375 39.5221061706543 89.413818359375 45.4569091796875 C 89.413818359375 51.391845703125 88.25182342529297 57.14831924438477 85.9600830078125 62.56658172607422 C 83.74620819091797 67.80077362060547 80.57654571533203 72.50185394287109 76.53914642333984 76.53926849365234 C 72.50173187255859 80.57666778564453 67.80064392089844 83.74633026123047 62.56645965576172 85.960205078125 C 57.14819717407227 88.25194549560547 51.39171981811523 89.41394805908203 45.4569091796875 89.41394805908203 Z" stroke="none"/>
                <path d="M 45.4569091796875 3 C 39.72393798828125 3 34.1640510559082 4.122138977050781 28.93167877197266 6.335243225097656 C 23.87631225585938 8.473487854003906 19.33547973632812 11.53520202636719 15.43534088134766 15.43534088134766 C 11.53519439697266 19.33548736572266 8.473480224609375 23.87631225585938 6.335235595703125 28.93168640136719 C 4.122138977050781 34.16405487060547 2.999992370605469 39.72394180297852 2.999992370605469 45.4570426940918 C 2.999992370605469 51.19001388549805 4.122138977050781 56.74989700317383 6.335235595703125 61.98226928710938 C 8.473480224609375 67.03764343261719 11.53519439697266 71.57846832275391 15.43534088134766 75.47859954833984 C 19.33547973632812 79.37873840332031 23.87631225585938 82.44046020507812 28.93167877197266 84.57869720458984 C 34.1640510559082 86.79180145263672 39.72393798828125 87.9139404296875 45.4569091796875 87.9139404296875 C 51.18988037109375 87.9139404296875 56.7497673034668 86.79180145263672 61.98213958740234 84.57869720458984 C 67.03750610351562 82.44046020507812 71.57833862304688 79.37873840332031 75.47847747802734 75.47859954833984 C 79.37862396240234 71.57846832275391 82.44033813476562 67.03764343261719 84.57858276367188 61.98226928710938 C 86.79167938232422 56.74989700317383 87.91382598876953 51.19001388549805 87.91382598876953 45.45691299438477 C 87.91382598876953 39.72394180297852 86.79167938232422 34.16405487060547 84.57858276367188 28.93168640136719 C 82.44033813476562 23.87631225585938 79.37862396240234 19.33548736572266 75.47847747802734 15.43534088134766 C 71.57833862304688 11.53520202636719 67.03750610351562 8.473487854003906 61.98213958740234 6.335243225097656 C 56.7497673034668 4.122138977050781 51.18988037109375 3 45.4569091796875 3 M 45.4569091796875 0 C 70.56206512451172 0 90.91382598876953 20.35175323486328 90.91382598876953 45.45691299438477 L 90.91382598876953 45.4570426940918 C 90.91382598876953 70.56219482421875 70.56206512451172 90.9139404296875 45.4569091796875 90.9139404296875 C 20.35175323486328 90.9139404296875 -7.62939453125e-06 70.56219482421875 -7.62939453125e-06 45.4570426940918 L -7.62939453125e-06 45.45691299438477 C -7.62939453125e-06 20.35175323486328 20.35175323486328 0 45.4569091796875 0 Z" stroke="none" fill="#fff"/>
              </g>
            </g>
            <g id="Rectángulo_400907" data-name="Rectángulo 400907" transform="translate(0)" fill="none" stroke="#fff" stroke-width="3">
              <rect width="90.914" height="90.914" rx="45.457" stroke="none"/>
              <rect x="1.5" y="1.5" width="87.914" height="87.914" rx="43.957" fill="none"/>
            </g>
          </g>
        </g>
      </g>
    </g>
    <g id="good_10897164" transform="translate(927.7 5627.478)">
      <path id="Trazado_1031301" data-name="Trazado 1031301" d="M46.312,2A14.341,14.341,0,0,0,34.665,24.728L31,30.71l7.713-2.192A14.349,14.349,0,1,0,46.312,2Z" transform="translate(-2.29 -1.043)" fill="#e6f1ff"/>
      <path id="Trazado_1031302" data-name="Trazado 1031302" d="M38,12.7h4.785v9.57H38Z" transform="translate(-2.591 -1.503)" fill="#8ea0b3"/>
      <path id="Trazado_1031303" data-name="Trazado 1031303" d="M43,21.08h1.426l1.445.957h7.857a1.917,1.917,0,0,0,1.9-1.7l.536-4.785a1.919,1.919,0,0,0-1.9-2.125H51.422L52.455,9.3a1.611,1.611,0,0,0-1-1.933,1.583,1.583,0,0,0-1.933.938l-1.225,3.254A2.878,2.878,0,0,1,45.6,13.425H43Z" transform="translate(-2.806 -1.271)" fill="#ffd199"/>
      <path id="Trazado_1031304" data-name="Trazado 1031304" d="M0,0H21.054V35.409H0Z" transform="translate(22.011 58.376) rotate(180)" fill="#ffbd64"/>
      <path id="Trazado_1031305" data-name="Trazado 1031305" d="M0,0H21.054V15.312H0Z" transform="translate(35.409 58.376) rotate(180)" fill="#b3d4ff"/>
      <path id="Trazado_1031306" data-name="Trazado 1031306" d="M16.871,42.828V39h19.14v3.828a2.871,2.871,0,1,1-2.392,4.45,2.861,2.861,0,0,1-4.785,0,2.861,2.861,0,0,1-4.785,0,2.861,2.861,0,0,1-4.785,0,2.869,2.869,0,1,1-2.392-4.45Z" transform="translate(-1.559 -2.634)" fill="#67cc6d"/>
      <g id="Grupo_1176568" data-name="Grupo 1176568" transform="translate(4.785 27.753)">
        <path id="Trazado_1031307" data-name="Trazado 1031307" d="M0,0H9.57V4.785H0Z" transform="translate(24.882 26.796) rotate(180)" fill="#f2f2f2"/>
        <path id="Trazado_1031308" data-name="Trazado 1031308" d="M0,0H3.828V3.828H0Z" transform="translate(13.398 3.828) rotate(180)" fill="#f2f2f2"/>
        <path id="Trazado_1031309" data-name="Trazado 1031309" d="M0,0H3.828V3.828H0Z" transform="translate(3.828 3.828) rotate(180)" fill="#f2f2f2"/>
        <path id="Trazado_1031310" data-name="Trazado 1031310" d="M0,0H3.828V3.828H0Z" transform="translate(3.828 14.833) rotate(180)" fill="#f2f2f2"/>
        <path id="Trazado_1031311" data-name="Trazado 1031311" d="M0,0H3.828V3.828H0Z" transform="translate(3.828 25.839) rotate(180)" fill="#f2f2f2"/>
      </g>
      <path id="Trazado_1031312" data-name="Trazado 1031312" d="M52.388,12.425l.737-2.938a2.509,2.509,0,0,0-4.766-1.56l-1.225,3.254a1.914,1.914,0,0,1-1.79,1.244H43.7a.96.96,0,0,0-.957-.957H37.957a.96.96,0,0,0-.957.957v9.57a.96.96,0,0,0,.957.957h4.785a.96.96,0,0,0,.957-.957h.172l1.215.794a.925.925,0,0,0,.526.163H53.47A2.87,2.87,0,0,0,56.322,20.4l.536-4.785A2.877,2.877,0,0,0,54,12.425Zm-10.6,8.613H38.914V13.382h2.871ZM54.953,15.4l-.536,4.785a.953.953,0,0,1-.947.852H45.9l-1.206-.794a.925.925,0,0,0-.526-.163H43.7V14.339h1.646a3.851,3.851,0,0,0,3.589-2.488L50.159,8.6a.6.6,0,0,1,.756-.354.654.654,0,0,1,.364.785l-1.034,4.125a.95.95,0,0,0,.928,1.187h2.842a.978.978,0,0,1,.718.316.957.957,0,0,1,.239.746Z" transform="translate(-2.548 -1.228)"/>
      <path id="Trazado_1031313" data-name="Trazado 1031313" d="M1.957,61.323H36.409a.96.96,0,0,0,.957-.957V48.346a3.809,3.809,0,0,0-.957-7v-3a.96.96,0,0,0-.957-.957H23.968V24.957A.96.96,0,0,0,23.011,24H1.957A.96.96,0,0,0,1,24.957V60.366A.96.96,0,0,0,1.957,61.323Zm33.495-1.914H16.312V48.882A3.834,3.834,0,0,0,18.7,48.04a3.962,3.962,0,0,0,4.785,0,3.962,3.962,0,0,0,4.785,0,3.962,3.962,0,0,0,4.785,0,3.834,3.834,0,0,0,2.392.842Zm-.957-20.1v2.871a.96.96,0,0,0,.957.957,1.914,1.914,0,1,1-1.6,2.967.965.965,0,0,0-.794-.431.952.952,0,0,0-.794.431,1.913,1.913,0,0,1-3.2,0,1,1,0,0,0-1.6,0,1.913,1.913,0,0,1-3.2,0,1,1,0,0,0-1.6,0,1.913,1.913,0,0,1-3.2,0,1,1,0,0,0-1.6,0,1.914,1.914,0,1,1-1.6-2.967.96.96,0,0,0,.957-.957V39.312H34.466ZM2.914,25.914h19.14V37.4H16.312a.96.96,0,0,0-.957.957v3a3.809,3.809,0,0,0-.957,7V59.409H2.914Z" transform="translate(-1 -1.989)"/>
      <path id="Trazado_1031314" data-name="Trazado 1031314" d="M31.527,52h-9.57a.96.96,0,0,0-.957.957v4.785a.96.96,0,0,0,.957.957h9.57a.96.96,0,0,0,.957-.957V52.957A.96.96,0,0,0,31.527,52Zm-.957,4.785H22.914V53.914H30.57Z" transform="translate(-1.86 -3.194)"/>
      <path id="Trazado_1031315" data-name="Trazado 1031315" d="M15.957,34.742h3.828a.96.96,0,0,0,.957-.957V29.957A.96.96,0,0,0,19.785,29H15.957a.96.96,0,0,0-.957.957v3.828A.96.96,0,0,0,15.957,34.742Zm.957-3.828h1.914v1.914H16.914Z" transform="translate(-1.602 -2.204)"/>
      <path id="Trazado_1031316" data-name="Trazado 1031316" d="M9.785,29H5.957A.96.96,0,0,0,5,29.957v3.828a.96.96,0,0,0,.957.957H9.785a.96.96,0,0,0,.957-.957V29.957A.96.96,0,0,0,9.785,29Zm-.957,3.828H6.914V30.914H8.828Z" transform="translate(-1.172 -2.204)"/>
      <path id="Trazado_1031317" data-name="Trazado 1031317" d="M9.785,40.5H5.957A.96.96,0,0,0,5,41.457v3.828a.96.96,0,0,0,.957.957H9.785a.96.96,0,0,0,.957-.957V41.457A.96.96,0,0,0,9.785,40.5Zm-.957,3.828H6.914V42.414H8.828Z" transform="translate(-1.172 -2.699)"/>
      <path id="Trazado_1031318" data-name="Trazado 1031318" d="M9.785,52H5.957A.96.96,0,0,0,5,52.957v3.828a.96.96,0,0,0,.957.957H9.785a.96.96,0,0,0,.957-.957V52.957A.96.96,0,0,0,9.785,52Zm-.957,3.828H6.914V53.914H8.828Z" transform="translate(-1.172 -3.194)"/>
      <path id="Trazado_1031319" data-name="Trazado 1031319" d="M46.269,1A15.332,15.332,0,0,0,30.957,16.312a15.168,15.168,0,0,0,2.526,8.4l-3.34,5.455A.953.953,0,0,0,30.2,31.25a.97.97,0,0,0,.766.383.806.806,0,0,0,.258-.038l7.311-2.077A15.31,15.31,0,1,0,46.269,1Zm0,28.71a13.343,13.343,0,0,1-7.091-2.048.97.97,0,0,0-.507-.144.806.806,0,0,0-.258.038l-5.35,1.522,2.383-3.885a.973.973,0,0,0-.038-1.062A13.392,13.392,0,1,1,46.278,29.71Z" transform="translate(-2.247 -1)"/>
    </g>
  </g>
</svg>
