<svg xmlns="http://www.w3.org/2000/svg" xmlns:xlink="http://www.w3.org/1999/xlink" width="103" height="103" viewBox="0 0 103 103">
  <defs>
    <filter id="Trazado_874925" x="0" y="0" width="103" height="103" filterUnits="userSpaceOnUse">
      <feOffset dy="3" input="SourceAlpha"/>
      <feGaussianBlur stdDeviation="3" result="blur"/>
      <feFlood flood-opacity="0.161"/>
      <feComposite operator="in" in2="blur"/>
      <feComposite in="SourceGraphic"/>
    </filter>
  </defs>
  <g id="Grupo_1176822" data-name="Grupo 1176822" transform="translate(-799.5 -2511.157)">
    <g id="Grupo_1111316" data-name="Grupo 1111316" transform="translate(808.5 2517.157)">
      <g id="Grupo_1109835" data-name="Grupo 1109835" transform="translate(0 0)">
        <g id="Grupo_1107913" data-name="Grupo 1107913" transform="translate(0 0)">
          <g transform="matrix(1, 0, 0, 1, -9, -6)" filter="url(#Trazado_874925)">
            <g id="Trazado_874925-2" data-name="Trazado 874925" transform="translate(9 6)" fill="#cdb9f8" opacity="0.859">
              <path d="M 42.49984359741211 83.50018310546875 C 36.9642448425293 83.50018310546875 31.59502029418945 82.41635894775391 26.54131507873535 80.27883148193359 C 21.65926742553711 78.21389007568359 17.2744197845459 75.2574462890625 13.50857257843018 71.49160766601562 C 9.742737770080566 67.72576141357422 6.786290645599365 63.34091567993164 4.721349716186523 58.45886611938477 C 2.583820104598999 53.4051628112793 1.499996542930603 48.03593826293945 1.499996542930603 42.50033950805664 C 1.499996542930603 36.9642448425293 2.583820104598999 31.59502029418945 4.721349716186523 26.54131507873535 C 6.786290645599365 21.65926742553711 9.742737770080566 17.27442169189453 13.50857257843018 13.50857353210449 C 17.2744197845459 9.742738723754883 21.65926742553711 6.786291599273682 26.54131507873535 4.721350193023682 C 31.59502029418945 2.583821058273315 36.9642448425293 1.49999737739563 42.49984359741211 1.49999737739563 C 48.03545379638672 1.49999737739563 53.40467834472656 2.583821058273315 58.4583740234375 4.721350193023682 C 63.34043121337891 6.786291599273682 67.72528076171875 9.742738723754883 71.49111175537109 13.50857353210449 C 75.25695037841797 17.27442169189453 78.21339416503906 21.65926742553711 80.27833557128906 26.54131507873535 C 82.41587066650391 31.59502029418945 83.49968719482422 36.9642448425293 83.49968719482422 42.49984359741211 C 83.49968719482422 48.03593826293945 82.41587066650391 53.4051628112793 80.27833557128906 58.45886611938477 C 78.21339416503906 63.34091567993164 75.25695037841797 67.72576141357422 71.49111175537109 71.49160766601562 C 67.72528076171875 75.2574462890625 63.34043121337891 78.21389007568359 58.4583740234375 80.27883148193359 C 53.40467834472656 82.41635894775391 48.03545379638672 83.50018310546875 42.49984359741211 83.50018310546875 Z" stroke="none"/>
              <path d="M 42.49984359741211 3 C 37.16606903076172 3 31.99344253540039 4.043960571289062 27.12564468383789 6.102867126464844 C 22.42237854003906 8.092170715332031 18.19780731201172 10.94066619873047 14.56922912597656 14.56923675537109 C 10.940673828125 18.19779968261719 8.092178344726562 22.42238616943359 6.102859497070312 27.12563705444336 C 4.043952941894531 31.99343872070312 3 37.16606521606445 3 42.50033187866211 C 3 47.8341064453125 4.043952941894531 53.00672912597656 6.102859497070312 57.87453079223633 C 8.092178344726562 62.57778549194336 10.940673828125 66.8023681640625 14.56922912597656 70.43094635009766 C 18.19780731201172 74.05950164794922 22.42238998413086 76.90801239013672 27.12564468383789 78.89731597900391 C 31.99344253540039 80.95622253417969 37.16606903076172 82.00018310546875 42.49984359741211 82.00018310546875 C 47.83360290527344 82.00018310546875 53.00624084472656 80.95622253417969 57.87404632568359 78.89731597900391 C 62.57729721069336 76.90801239013672 66.8018798828125 74.05950164794922 70.43044281005859 70.43094635009766 C 74.05902099609375 66.8023681640625 76.90750885009766 62.57778549194336 78.89682006835938 57.87453079223633 C 80.95572662353516 53.00672912597656 81.99968719482422 47.83409118652344 81.99968719482422 42.49983978271484 C 81.99968719482422 37.16607666015625 80.95572662353516 31.99343872070312 78.89682006835938 27.12563705444336 C 76.90750885009766 22.42238616943359 74.05902099609375 18.19779968261719 70.43044281005859 14.56923675537109 C 66.8018798828125 10.94066619873047 62.57729721069336 8.092170715332031 57.87404632568359 6.102867126464844 C 53.00624084472656 4.043960571289062 47.83360290527344 3 42.49984359741211 3 M 42.49984359741211 0 C 65.97185516357422 0 84.99968719482422 19.02782440185547 84.99968719482422 42.49983978271484 L 84.99968719482422 42.50033187866211 C 84.99968719482422 65.97234344482422 65.97185516357422 85.00018310546875 42.49984359741211 85.00018310546875 C 19.02781677246094 85.00018310546875 0 65.97234344482422 0 42.50033187866211 L 0 42.49983978271484 C 0 19.02782440185547 19.02781677246094 0 42.49984359741211 0 Z" stroke="none" fill="#fff"/>
            </g>
          </g>
          <g id="Trazado_874923" data-name="Trazado 874923" transform="translate(0 0)" fill="none">
            <path d="M42.5,0A42.5,42.5,0,0,1,85,42.5h0a42.5,42.5,0,1,1-85,0H0A42.5,42.5,0,0,1,42.5,0Z" stroke="none"/>
            <path d="M 42.49984359741211 3 C 37.16606903076172 3 31.99344253540039 4.043960571289062 27.12564468383789 6.102867126464844 C 22.42237854003906 8.092170715332031 18.19780731201172 10.94066619873047 14.56922912597656 14.56923675537109 C 10.940673828125 18.19779968261719 8.092178344726562 22.42238616943359 6.102859497070312 27.12563705444336 C 4.043952941894531 31.99343872070312 3 37.16606521606445 3 42.50033187866211 C 3 47.8341064453125 4.043952941894531 53.00672912597656 6.102859497070312 57.87453079223633 C 8.092178344726562 62.57778549194336 10.940673828125 66.8023681640625 14.56922912597656 70.43094635009766 C 18.19780731201172 74.05950164794922 22.42238998413086 76.90801239013672 27.12564468383789 78.89731597900391 C 31.99344253540039 80.95622253417969 37.16606903076172 82.00018310546875 42.49984359741211 82.00018310546875 C 47.83360290527344 82.00018310546875 53.00624084472656 80.95622253417969 57.87404632568359 78.89731597900391 C 62.57729721069336 76.90801239013672 66.8018798828125 74.05950164794922 70.43044281005859 70.43094635009766 C 74.05902099609375 66.8023681640625 76.90750885009766 62.57778549194336 78.89682006835938 57.87453079223633 C 80.95572662353516 53.00672912597656 81.99968719482422 47.83409118652344 81.99968719482422 42.49983978271484 C 81.99968719482422 37.16607666015625 80.95572662353516 31.99343872070312 78.89682006835938 27.12563705444336 C 76.90750885009766 22.42238616943359 74.05902099609375 18.19779968261719 70.43044281005859 14.56923675537109 C 66.8018798828125 10.94066619873047 62.57729721069336 8.092170715332031 57.87404632568359 6.102867126464844 C 53.00624084472656 4.043960571289062 47.83360290527344 3 42.49984359741211 3 M 42.49984359741211 0 C 65.97185516357422 0 84.99968719482422 19.02782440185547 84.99968719482422 42.49983978271484 L 84.99968719482422 42.50033187866211 C 84.99968719482422 65.97234344482422 65.97185516357422 85.00018310546875 42.49984359741211 85.00018310546875 C 19.02781677246094 85.00018310546875 0 65.97234344482422 0 42.50033187866211 L 0 42.49983978271484 C 0 19.02782440185547 19.02781677246094 0 42.49984359741211 0 Z" stroke="none" fill="#fff"/>
          </g>
        </g>
      </g>
    </g>
    <g id="sonrisa" transform="translate(826.732 2535.391)">
      <path id="Trazado_113456" data-name="Trazado 113456" d="M62.034,8.172c9.981.162,20.1,10.617,20.1,23.49s-10.119,23.328-20.1,23.49H61.56c-9.981-.162-20.1-10.617-20.1-23.49s10.12-23.328,20.1-23.49h.473Z" transform="translate(-37.531 -7.396)" fill="#d9a171"/>
      <g id="Grupo_59799" data-name="Grupo 59799" transform="translate(11.803 0.777)">
        <path id="Trazado_113457" data-name="Trazado 113457" d="M327,191a2.958,2.958,0,0,0-2.955,2.955h5.91A2.959,2.959,0,0,0,327,191Z" transform="translate(-305.131 -173.672)" fill="#c38a5a"/>
        <path id="Trazado_113458" data-name="Trazado 113458" d="M127.473,191a2.958,2.958,0,0,0-2.955,2.955h5.91A2.959,2.959,0,0,0,127.473,191Z" transform="translate(-124.518 -173.672)" fill="#c38a5a"/>
        <path id="Trazado_113459" data-name="Trazado 113459" d="M258.495,8.192a23.49,23.49,0,1,1,0,46.981c9.981-.163,18.035-10.618,18.035-23.491S268.476,8.354,258.495,8.192Z" transform="translate(-245.795 -8.192)" fill="#c38a5a"/>
      </g>
      <path id="Trazado_113460" data-name="Trazado 113460" d="M31.426,8.192c-9.981.162-18.035,10.617-18.035,23.49s8.053,23.328,18.035,23.49a23.491,23.491,0,1,1,0-46.981Z" transform="translate(-7.396 -7.415)" fill="#e3b893"/>
      <g id="Grupo_59801" data-name="Grupo 59801">
        <path id="Trazado_113461" data-name="Trazado 113461" d="M24.267,48.533a24.266,24.266,0,1,1,17.159-7.107,24.266,24.266,0,0,1-17.159,7.107Zm0-46.985A22.718,22.718,0,1,0,46.985,24.266,22.718,22.718,0,0,0,24.267,1.548Z" fill="#1d2328"/>
        <path id="Trazado_113462" data-name="Trazado 113462" d="M157.8,320.943a12.245,12.245,0,0,1-10.15-5.4.775.775,0,0,1,1.283-.868,10.688,10.688,0,0,0,17.734,0,.775.775,0,1,1,1.283.868,12.245,12.245,0,0,1-10.15,5.4Z" transform="translate(-133.537 -284.537)" fill="#1d2328"/>
        <path id="Trazado_113463" data-name="Trazado 113463" d="M322.427,185.972a.774.774,0,0,1-.774-.774,2.324,2.324,0,1,0-4.647,0,.775.775,0,0,1-1.549,0,3.872,3.872,0,1,1,7.745,0,.775.775,0,0,1-.775.774Z" transform="translate(-285.554 -164.137)" fill="#1d2328"/>
        <path id="Trazado_113464" data-name="Trazado 113464" d="M121.81,185.972a.774.774,0,0,1-.774-.774,2.324,2.324,0,0,0-4.647,0,.775.775,0,0,1-1.549,0,3.873,3.873,0,0,1,7.745,0,.774.774,0,0,1-.775.774Z" transform="translate(-103.954 -164.137)" fill="#1d2328"/>
      </g>
    </g>
  </g>
</svg>
