<svg xmlns="http://www.w3.org/2000/svg" xmlns:xlink="http://www.w3.org/1999/xlink" width="103" height="103" viewBox="0 0 103 103">
  <defs>
    <filter id="Trazado_874925" x="0" y="0" width="103" height="103" filterUnits="userSpaceOnUse">
      <feOffset dy="3" input="SourceAlpha"/>
      <feGaussianBlur stdDeviation="3" result="blur"/>
      <feFlood flood-opacity="0.161"/>
      <feComposite operator="in" in2="blur"/>
      <feComposite in="SourceGraphic"/>
    </filter>
  </defs>
  <g id="Grupo_1176823" data-name="Grupo 1176823" transform="translate(-799.5 -2511.157)">
    <g id="Grupo_1111316" data-name="Grupo 1111316" transform="translate(808.5 2517.157)">
      <g id="Grupo_1109835" data-name="Grupo 1109835" transform="translate(0 0)">
        <g id="Grupo_1107913" data-name="Grupo 1107913" transform="translate(0 0)">
          <g transform="matrix(1, 0, 0, 1, -9, -6)" filter="url(#Trazado_874925)">
            <g id="Trazado_874925-2" data-name="Trazado 874925" transform="translate(9 6)" fill="#cdb9f8" opacity="0.859">
              <path d="M 42.49984359741211 83.50018310546875 C 36.9642448425293 83.50018310546875 31.59502029418945 82.41635894775391 26.54131507873535 80.27883148193359 C 21.65926742553711 78.21389007568359 17.2744197845459 75.2574462890625 13.50857257843018 71.49160766601562 C 9.742737770080566 67.72576141357422 6.786290645599365 63.34091567993164 4.721349716186523 58.45886611938477 C 2.583820104598999 53.4051628112793 1.499996542930603 48.03593826293945 1.499996542930603 42.50033950805664 C 1.499996542930603 36.9642448425293 2.583820104598999 31.59502029418945 4.721349716186523 26.54131507873535 C 6.786290645599365 21.65926742553711 9.742737770080566 17.27442169189453 13.50857257843018 13.50857353210449 C 17.2744197845459 9.742738723754883 21.65926742553711 6.786291599273682 26.54131507873535 4.721350193023682 C 31.59502029418945 2.583821058273315 36.9642448425293 1.49999737739563 42.49984359741211 1.49999737739563 C 48.03545379638672 1.49999737739563 53.40467834472656 2.583821058273315 58.4583740234375 4.721350193023682 C 63.34043121337891 6.786291599273682 67.72528076171875 9.742738723754883 71.49111175537109 13.50857353210449 C 75.25695037841797 17.27442169189453 78.21339416503906 21.65926742553711 80.27833557128906 26.54131507873535 C 82.41587066650391 31.59502029418945 83.49968719482422 36.9642448425293 83.49968719482422 42.49984359741211 C 83.49968719482422 48.03593826293945 82.41587066650391 53.4051628112793 80.27833557128906 58.45886611938477 C 78.21339416503906 63.34091567993164 75.25695037841797 67.72576141357422 71.49111175537109 71.49160766601562 C 67.72528076171875 75.2574462890625 63.34043121337891 78.21389007568359 58.4583740234375 80.27883148193359 C 53.40467834472656 82.41635894775391 48.03545379638672 83.50018310546875 42.49984359741211 83.50018310546875 Z" stroke="none"/>
              <path d="M 42.49984359741211 3 C 37.16606903076172 3 31.99344253540039 4.043960571289062 27.12564468383789 6.102867126464844 C 22.42237854003906 8.092170715332031 18.19780731201172 10.94066619873047 14.56922912597656 14.56923675537109 C 10.940673828125 18.19779968261719 8.092178344726562 22.42238616943359 6.102859497070312 27.12563705444336 C 4.043952941894531 31.99343872070312 3 37.16606521606445 3 42.50033187866211 C 3 47.8341064453125 4.043952941894531 53.00672912597656 6.102859497070312 57.87453079223633 C 8.092178344726562 62.57778549194336 10.940673828125 66.8023681640625 14.56922912597656 70.43094635009766 C 18.19780731201172 74.05950164794922 22.42238998413086 76.90801239013672 27.12564468383789 78.89731597900391 C 31.99344253540039 80.95622253417969 37.16606903076172 82.00018310546875 42.49984359741211 82.00018310546875 C 47.83360290527344 82.00018310546875 53.00624084472656 80.95622253417969 57.87404632568359 78.89731597900391 C 62.57729721069336 76.90801239013672 66.8018798828125 74.05950164794922 70.43044281005859 70.43094635009766 C 74.05902099609375 66.8023681640625 76.90750885009766 62.57778549194336 78.89682006835938 57.87453079223633 C 80.95572662353516 53.00672912597656 81.99968719482422 47.83409118652344 81.99968719482422 42.49983978271484 C 81.99968719482422 37.16607666015625 80.95572662353516 31.99343872070312 78.89682006835938 27.12563705444336 C 76.90750885009766 22.42238616943359 74.05902099609375 18.19779968261719 70.43044281005859 14.56923675537109 C 66.8018798828125 10.94066619873047 62.57729721069336 8.092170715332031 57.87404632568359 6.102867126464844 C 53.00624084472656 4.043960571289062 47.83360290527344 3 42.49984359741211 3 M 42.49984359741211 0 C 65.97185516357422 0 84.99968719482422 19.02782440185547 84.99968719482422 42.49983978271484 L 84.99968719482422 42.50033187866211 C 84.99968719482422 65.97234344482422 65.97185516357422 85.00018310546875 42.49984359741211 85.00018310546875 C 19.02781677246094 85.00018310546875 0 65.97234344482422 0 42.50033187866211 L 0 42.49983978271484 C 0 19.02782440185547 19.02781677246094 0 42.49984359741211 0 Z" stroke="none" fill="#fff"/>
            </g>
          </g>
          <g id="Trazado_874923" data-name="Trazado 874923" transform="translate(0 0)" fill="none">
            <path d="M42.5,0A42.5,42.5,0,0,1,85,42.5h0a42.5,42.5,0,1,1-85,0H0A42.5,42.5,0,0,1,42.5,0Z" stroke="none"/>
            <path d="M 42.49984359741211 3 C 37.16606903076172 3 31.99344253540039 4.043960571289062 27.12564468383789 6.102867126464844 C 22.42237854003906 8.092170715332031 18.19780731201172 10.94066619873047 14.56922912597656 14.56923675537109 C 10.940673828125 18.19779968261719 8.092178344726562 22.42238616943359 6.102859497070312 27.12563705444336 C 4.043952941894531 31.99343872070312 3 37.16606521606445 3 42.50033187866211 C 3 47.8341064453125 4.043952941894531 53.00672912597656 6.102859497070312 57.87453079223633 C 8.092178344726562 62.57778549194336 10.940673828125 66.8023681640625 14.56922912597656 70.43094635009766 C 18.19780731201172 74.05950164794922 22.42238998413086 76.90801239013672 27.12564468383789 78.89731597900391 C 31.99344253540039 80.95622253417969 37.16606903076172 82.00018310546875 42.49984359741211 82.00018310546875 C 47.83360290527344 82.00018310546875 53.00624084472656 80.95622253417969 57.87404632568359 78.89731597900391 C 62.57729721069336 76.90801239013672 66.8018798828125 74.05950164794922 70.43044281005859 70.43094635009766 C 74.05902099609375 66.8023681640625 76.90750885009766 62.57778549194336 78.89682006835938 57.87453079223633 C 80.95572662353516 53.00672912597656 81.99968719482422 47.83409118652344 81.99968719482422 42.49983978271484 C 81.99968719482422 37.16607666015625 80.95572662353516 31.99343872070312 78.89682006835938 27.12563705444336 C 76.90750885009766 22.42238616943359 74.05902099609375 18.19779968261719 70.43044281005859 14.56923675537109 C 66.8018798828125 10.94066619873047 62.57729721069336 8.092170715332031 57.87404632568359 6.102867126464844 C 53.00624084472656 4.043960571289062 47.83360290527344 3 42.49984359741211 3 M 42.49984359741211 0 C 65.97185516357422 0 84.99968719482422 19.02782440185547 84.99968719482422 42.49983978271484 L 84.99968719482422 42.50033187866211 C 84.99968719482422 65.97234344482422 65.97185516357422 85.00018310546875 42.49984359741211 85.00018310546875 C 19.02781677246094 85.00018310546875 0 65.97234344482422 0 42.50033187866211 L 0 42.49983978271484 C 0 19.02782440185547 19.02781677246094 0 42.49984359741211 0 Z" stroke="none" fill="#fff"/>
          </g>
        </g>
      </g>
    </g>
    <g id="voice-command" transform="translate(828.252 2536.006)">
      <path id="Trazado_113465" data-name="Trazado 113465" d="M44.57,364.524v5.67H8.023v-5.67a4.573,4.573,0,0,1,3.342-4.4l8.763-2.437,1.6,6.407,4.568-3.807,4.568,3.807,1.6-6.407,8.763,2.437A4.573,4.573,0,0,1,44.57,364.524Zm0,0" transform="translate(-7.238 -323.644)" fill="#a66d58"/>
      <path id="Trazado_113466" data-name="Trazado 113466" d="M206.192,353.489l-1.6,6.407-4.568-3.807,4.568-3.045Zm0,0" transform="translate(-180.965 -319.446)" fill="#d9a171"/>
      <path id="Trazado_113467" data-name="Trazado 113467" d="M141.392,356.093l-4.568,3.807-1.6-6.407,1.6-.442Zm0,0" transform="translate(-122.331 -319.446)" fill="#d9a171"/>
      <path id="Trazado_113468" data-name="Trazado 113468" d="M104.29,20.567l-.662.662-.031.023a3.481,3.481,0,0,0-.35-.4,3.9,3.9,0,0,0-2.756-1.143H95.785a5.859,5.859,0,0,0-5.863,5.863v.99H89.16a2.284,2.284,0,1,0,0,4.568h.761a9.191,9.191,0,0,1-1.256,4.637,9.383,9.383,0,0,1-1.439,1.865l-.35.35-.214.031L86.046,35.5a15.785,15.785,0,0,0-1.922-3.906l-2.658-3.951A11.489,11.489,0,0,1,91.508,10.572h.419a51.056,51.056,0,0,0,12.457-1.523l.655.876a8.145,8.145,0,0,1-.754,10.645Zm0,0" transform="translate(-72.386 -8.186)" fill="#5e6178"/>
      <path id="Trazado_113469" data-name="Trazado 113469" d="M159.18,291.848l-.046.137v3.807l-4.568,3.045L150,295.791v-1.184a15.5,15.5,0,0,0-.214-2.588l.214-.031.35-.35a9.382,9.382,0,0,0,1.439-1.865l2.776.693Zm0,0" transform="translate(-135.508 -262.19)" fill="#f0d0b4"/>
      <path id="Trazado_113470" data-name="Trazado 113470" d="M171.591,130.641a1.175,1.175,0,0,1,.229.686,1.14,1.14,0,0,1-1.143,1.143H170.3l-1.134,2.269a3.737,3.737,0,0,0-.389,1.652,3.691,3.691,0,0,1-3.692,3.692h-.876l-3-.9-4.614-1.388-2.776-.693a9.19,9.19,0,0,0,1.256-4.637h-.761a2.284,2.284,0,1,1,0-4.568h.761v-.99a5.859,5.859,0,0,1,5.863-5.863h4.706a3.9,3.9,0,0,1,2.756,1.142,3.481,3.481,0,0,1,.35.4,3.893,3.893,0,0,1,.792,2.349,8.85,8.85,0,0,0,1.773,5.314Zm0,0" transform="translate(-137.533 -109.527)" fill="#f0d0b4"/>
      <path id="Trazado_113471" data-name="Trazado 113471" d="M34.191,35.745l-9.8-2.723V30.666l2.065.619,1.091.032A4.462,4.462,0,0,0,32,26.86a2.95,2.95,0,0,1,.31-1.312l.923-1.846a1.9,1.9,0,0,0,1.432-3.043l-.284-.378a8.145,8.145,0,0,1-1.62-4.859,4.632,4.632,0,0,0-.577-2.242l.252-.252a8.85,8.85,0,0,0,2.61-6.3,8.969,8.969,0,0,0-1.781-5.345L32.305,0l-.487.123A50.64,50.64,0,0,1,19.547,1.618h-.419A12.247,12.247,0,0,0,8.451,19.877l2.658,3.951a15.336,15.336,0,0,1,1.83,3.721,15.351,15.351,0,0,1,.79,4.864v.61l-9.8,2.723a5.346,5.346,0,0,0-3.9,5.136V47.3h38.07V40.881a5.346,5.346,0,0,0-3.9-5.136ZM23.759,34.427l.551.153-1.128,4.511-2.853-2.377Zm9.406-13.24.284.378a.387.387,0,0,1,.076.229.381.381,0,0,1-.381.381h-.854L30.947,24.86a4.469,4.469,0,0,0-.471,1.994,2.937,2.937,0,0,1-2.929,2.937h-.76l-7.508-2.252L18.843,29l4.026,1.208V33.2l-3.807,2.538L15.255,33.2v-.781a16.978,16.978,0,0,0-.151-2.153l.281-.281A9.888,9.888,0,0,0,18.3,22.943v-.761H16.774a1.523,1.523,0,0,1,0-3.045H18.3V17.385a5.1,5.1,0,0,1,5.1-5.105h4.7a3.138,3.138,0,0,1,3.138,3.138,9.679,9.679,0,0,0,1.922,5.773ZM14.358,34.427l3.43,2.287-2.854,2.378-1.128-4.511ZM12.373,22.979l-2.624-3.9A10.728,10.728,0,0,1,19.128,3.145h.419A52.136,52.136,0,0,0,31.7,1.719l.352.471a7.436,7.436,0,0,1,1.479,4.43,7.34,7.34,0,0,1-2.163,5.224l-.128.128A4.623,4.623,0,0,0,28.1,10.757h-4.7a6.626,6.626,0,0,0-6.626,6.625v.227a3.045,3.045,0,0,0-.033,6.086,8.352,8.352,0,0,1-1.973,4.7q-.164-.672-.383-1.33a16.88,16.88,0,0,0-2.012-4.09Zm24.2,22.8H1.547v-4.9a3.819,3.819,0,0,1,2.788-3.669l8.008-2.223,1.708,6.826,5.012-4.177,5.012,4.177,1.708-6.826,8.008,2.223a3.817,3.817,0,0,1,2.788,3.668Zm0,0" transform="translate(0)"/>
      <path id="Trazado_113472" data-name="Trazado 113472" d="M1.076,0,0,1.077A9.136,9.136,0,0,1,0,14l1.076,1.076A10.658,10.658,0,0,0,1.076,0Zm0,0" transform="matrix(0.927, 0.375, -0.375, 0.927, 41.578, 21.478)" fill="#f2e9e4"/>
      <path id="Trazado_113473" data-name="Trazado 113473" d="M1.076,0,0,1.076A6.092,6.092,0,0,1,0,9.691l1.076,1.076A7.614,7.614,0,0,0,1.076,0Zm0,0" transform="matrix(0.927, 0.375, -0.375, 0.927, 38.775, 22.669)" fill="#f2e9e4"/>
      <path id="Trazado_113474" data-name="Trazado 113474" d="M1.076,0,0,1.076A3.049,3.049,0,0,1,0,5.385L1.076,6.461A4.57,4.57,0,0,0,1.076,0Zm0,0" transform="matrix(0.927, 0.375, -0.375, 0.927, 35.974, 23.853)" fill="#f2e9e4"/>
    </g>
  </g>
</svg>
