<svg xmlns="http://www.w3.org/2000/svg" xmlns:xlink="http://www.w3.org/1999/xlink" width="103" height="103" viewBox="0 0 103 103">
  <defs>
    <filter id="Trazado_874925" x="0" y="0" width="103" height="103" filterUnits="userSpaceOnUse">
      <feOffset dy="3" input="SourceAlpha"/>
      <feGaussianBlur stdDeviation="3" result="blur"/>
      <feFlood flood-opacity="0.161"/>
      <feComposite operator="in" in2="blur"/>
      <feComposite in="SourceGraphic"/>
    </filter>
  </defs>
  <g id="Grupo_1176824" data-name="Grupo 1176824" transform="translate(-799.5 -2511.157)">
    <g id="Grupo_1111316" data-name="Grupo 1111316" transform="translate(808.5 2517.157)">
      <g id="Grupo_1109835" data-name="Grupo 1109835" transform="translate(0 0)">
        <g id="Grupo_1107913" data-name="Grupo 1107913" transform="translate(0 0)">
          <g transform="matrix(1, 0, 0, 1, -9, -6)" filter="url(#Trazado_874925)">
            <g id="Trazado_874925-2" data-name="Trazado 874925" transform="translate(9 6)" fill="#cdb9f8" opacity="0.859">
              <path d="M 42.49984359741211 83.50018310546875 C 36.9642448425293 83.50018310546875 31.59502029418945 82.41635894775391 26.54131507873535 80.27883148193359 C 21.65926742553711 78.21389007568359 17.2744197845459 75.2574462890625 13.50857257843018 71.49160766601562 C 9.742737770080566 67.72576141357422 6.786290645599365 63.34091567993164 4.721349716186523 58.45886611938477 C 2.583820104598999 53.4051628112793 1.499996542930603 48.03593826293945 1.499996542930603 42.50033950805664 C 1.499996542930603 36.9642448425293 2.583820104598999 31.59502029418945 4.721349716186523 26.54131507873535 C 6.786290645599365 21.65926742553711 9.742737770080566 17.27442169189453 13.50857257843018 13.50857353210449 C 17.2744197845459 9.742738723754883 21.65926742553711 6.786291599273682 26.54131507873535 4.721350193023682 C 31.59502029418945 2.583821058273315 36.9642448425293 1.49999737739563 42.49984359741211 1.49999737739563 C 48.03545379638672 1.49999737739563 53.40467834472656 2.583821058273315 58.4583740234375 4.721350193023682 C 63.34043121337891 6.786291599273682 67.72528076171875 9.742738723754883 71.49111175537109 13.50857353210449 C 75.25695037841797 17.27442169189453 78.21339416503906 21.65926742553711 80.27833557128906 26.54131507873535 C 82.41587066650391 31.59502029418945 83.49968719482422 36.9642448425293 83.49968719482422 42.49984359741211 C 83.49968719482422 48.03593826293945 82.41587066650391 53.4051628112793 80.27833557128906 58.45886611938477 C 78.21339416503906 63.34091567993164 75.25695037841797 67.72576141357422 71.49111175537109 71.49160766601562 C 67.72528076171875 75.2574462890625 63.34043121337891 78.21389007568359 58.4583740234375 80.27883148193359 C 53.40467834472656 82.41635894775391 48.03545379638672 83.50018310546875 42.49984359741211 83.50018310546875 Z" stroke="none"/>
              <path d="M 42.49984359741211 3 C 37.16606903076172 3 31.99344253540039 4.043960571289062 27.12564468383789 6.102867126464844 C 22.42237854003906 8.092170715332031 18.19780731201172 10.94066619873047 14.56922912597656 14.56923675537109 C 10.940673828125 18.19779968261719 8.092178344726562 22.42238616943359 6.102859497070312 27.12563705444336 C 4.043952941894531 31.99343872070312 3 37.16606521606445 3 42.50033187866211 C 3 47.8341064453125 4.043952941894531 53.00672912597656 6.102859497070312 57.87453079223633 C 8.092178344726562 62.57778549194336 10.940673828125 66.8023681640625 14.56922912597656 70.43094635009766 C 18.19780731201172 74.05950164794922 22.42238998413086 76.90801239013672 27.12564468383789 78.89731597900391 C 31.99344253540039 80.95622253417969 37.16606903076172 82.00018310546875 42.49984359741211 82.00018310546875 C 47.83360290527344 82.00018310546875 53.00624084472656 80.95622253417969 57.87404632568359 78.89731597900391 C 62.57729721069336 76.90801239013672 66.8018798828125 74.05950164794922 70.43044281005859 70.43094635009766 C 74.05902099609375 66.8023681640625 76.90750885009766 62.57778549194336 78.89682006835938 57.87453079223633 C 80.95572662353516 53.00672912597656 81.99968719482422 47.83409118652344 81.99968719482422 42.49983978271484 C 81.99968719482422 37.16607666015625 80.95572662353516 31.99343872070312 78.89682006835938 27.12563705444336 C 76.90750885009766 22.42238616943359 74.05902099609375 18.19779968261719 70.43044281005859 14.56923675537109 C 66.8018798828125 10.94066619873047 62.57729721069336 8.092170715332031 57.87404632568359 6.102867126464844 C 53.00624084472656 4.043960571289062 47.83360290527344 3 42.49984359741211 3 M 42.49984359741211 0 C 65.97185516357422 0 84.99968719482422 19.02782440185547 84.99968719482422 42.49983978271484 L 84.99968719482422 42.50033187866211 C 84.99968719482422 65.97234344482422 65.97185516357422 85.00018310546875 42.49984359741211 85.00018310546875 C 19.02781677246094 85.00018310546875 0 65.97234344482422 0 42.50033187866211 L 0 42.49983978271484 C 0 19.02782440185547 19.02781677246094 0 42.49984359741211 0 Z" stroke="none" fill="#fff"/>
            </g>
          </g>
          <g id="Trazado_874923" data-name="Trazado 874923" transform="translate(0 0)" fill="none">
            <path d="M42.5,0A42.5,42.5,0,0,1,85,42.5h0a42.5,42.5,0,1,1-85,0H0A42.5,42.5,0,0,1,42.5,0Z" stroke="none"/>
            <path d="M 42.49984359741211 3 C 37.16606903076172 3 31.99344253540039 4.043960571289062 27.12564468383789 6.102867126464844 C 22.42237854003906 8.092170715332031 18.19780731201172 10.94066619873047 14.56922912597656 14.56923675537109 C 10.940673828125 18.19779968261719 8.092178344726562 22.42238616943359 6.102859497070312 27.12563705444336 C 4.043952941894531 31.99343872070312 3 37.16606521606445 3 42.50033187866211 C 3 47.8341064453125 4.043952941894531 53.00672912597656 6.102859497070312 57.87453079223633 C 8.092178344726562 62.57778549194336 10.940673828125 66.8023681640625 14.56922912597656 70.43094635009766 C 18.19780731201172 74.05950164794922 22.42238998413086 76.90801239013672 27.12564468383789 78.89731597900391 C 31.99344253540039 80.95622253417969 37.16606903076172 82.00018310546875 42.49984359741211 82.00018310546875 C 47.83360290527344 82.00018310546875 53.00624084472656 80.95622253417969 57.87404632568359 78.89731597900391 C 62.57729721069336 76.90801239013672 66.8018798828125 74.05950164794922 70.43044281005859 70.43094635009766 C 74.05902099609375 66.8023681640625 76.90750885009766 62.57778549194336 78.89682006835938 57.87453079223633 C 80.95572662353516 53.00672912597656 81.99968719482422 47.83409118652344 81.99968719482422 42.49983978271484 C 81.99968719482422 37.16607666015625 80.95572662353516 31.99343872070312 78.89682006835938 27.12563705444336 C 76.90750885009766 22.42238616943359 74.05902099609375 18.19779968261719 70.43044281005859 14.56923675537109 C 66.8018798828125 10.94066619873047 62.57729721069336 8.092170715332031 57.87404632568359 6.102867126464844 C 53.00624084472656 4.043960571289062 47.83360290527344 3 42.49984359741211 3 M 42.49984359741211 0 C 65.97185516357422 0 84.99968719482422 19.02782440185547 84.99968719482422 42.49983978271484 L 84.99968719482422 42.50033187866211 C 84.99968719482422 65.97234344482422 65.97185516357422 85.00018310546875 42.49984359741211 85.00018310546875 C 19.02781677246094 85.00018310546875 0 65.97234344482422 0 42.50033187866211 L 0 42.49983978271484 C 0 19.02782440185547 19.02781677246094 0 42.49984359741211 0 Z" stroke="none" fill="#fff"/>
          </g>
        </g>
      </g>
    </g>
    <g id="Grupo_59803" data-name="Grupo 59803" transform="translate(347.551 -4306.843)">
      <g id="perfume-bottle" transform="translate(481 6845)">
        <path id="Trazado_113475" data-name="Trazado 113475" d="M34,18.7A4.277,4.277,0,0,0,36.7,16a4.277,4.277,0,0,0,2.7,2.7,4.277,4.277,0,0,0-2.7,2.7A4.277,4.277,0,0,0,34,18.7Z" transform="translate(-10.685 -4.857)" fill="#ffe27e"/>
        <path id="Trazado_113476" data-name="Trazado 113476" d="M54,4.7A4.277,4.277,0,0,0,56.7,2a4.277,4.277,0,0,0,2.7,2.7,4.277,4.277,0,0,0-2.7,2.7A4.277,4.277,0,0,0,54,4.7Z" transform="translate(-17.161 -0.324)" fill="#ffe27e"/>
        <path id="Trazado_113477" data-name="Trazado 113477" d="M10,14h9.467v5.41H10Z" transform="translate(-2.914 -4.209)" fill="#a66d58"/>
        <path id="Trazado_113478" data-name="Trazado 113478" d="M10,14h6.762v5.41H10Z" transform="translate(-2.914 -4.209)" fill="#e6c0a1"/>
        <path id="Trazado_113479" data-name="Trazado 113479" d="M12,2h6.762v8.115H12Z" transform="translate(-3.562 -0.324)" fill="#d9a171"/>
        <path id="Trazado_113480" data-name="Trazado 113480" d="M12,2h4.057v8.115H12Z" transform="translate(-3.562 -0.324)" fill="#d9a171"/>
        <path id="Trazado_113481" data-name="Trazado 113481" d="M19.352,8.7H20.7V6H19.352a1.352,1.352,0,1,0,0,2.7Z" transform="translate(-5.504 -1.619)" fill="#a66d58"/>
        <path id="Trazado_113482" data-name="Trazado 113482" d="M22.286,48.4H4.7A2.7,2.7,0,0,1,2,45.7V30.143a10.143,10.143,0,0,1,20.286,0Z" transform="translate(-0.324 -6.152)" fill="#d9a171"/>
        <path id="Trazado_113483" data-name="Trazado 113483" d="M20.877,36V50.877H7.352A1.352,1.352,0,0,1,6,49.524V36" transform="translate(-1.619 -11.333)" fill="#a66d58"/>
        <path id="Trazado_113484" data-name="Trazado 113484" d="M6,46.352l.874-.874a1.633,1.633,0,0,1,2.309,0l.4.4a1.633,1.633,0,0,0,2.309,0l.4-.4a1.633,1.633,0,0,1,2.309,0l.4.4a1.633,1.633,0,0,0,2.309,0l.4-.4a1.633,1.633,0,0,1,2.309,0l.874.874V53.79H7.352A1.352,1.352,0,0,1,6,52.438Z" transform="translate(-1.619 -14.247)" fill="#604949"/>
        <path id="Trazado_113485" data-name="Trazado 113485" d="M39,32h8.115v4.057H39Z" transform="translate(-12.304 -10.037)" fill="#94a7bf"/>
        <path id="Trazado_113486" data-name="Trazado 113486" d="M39,32h5.41v4.057H39Z" transform="translate(-12.304 -10.037)" fill="#c5dfff"/>
        <path id="Trazado_113487" data-name="Trazado 113487" d="M49.639,54.229H29.352A1.352,1.352,0,0,1,28,52.877V39.352A1.352,1.352,0,0,1,29.352,38H49.639a1.352,1.352,0,0,1,1.352,1.352V52.877A1.352,1.352,0,0,1,49.639,54.229Z" transform="translate(-8.742 -11.98)" fill="#a9b7c9"/>
        <path id="Trazado_113488" data-name="Trazado 113488" d="M48.286,52.877V39.352A1.352,1.352,0,0,0,46.934,38H29.352A1.352,1.352,0,0,0,28,39.352V52.877a1.352,1.352,0,0,0,1.352,1.352H46.934a1.352,1.352,0,0,0,1.352-1.352Z" transform="translate(-8.742 -11.98)" fill="#a2afc0"/>
        <path id="Trazado_113489" data-name="Trazado 113489" d="M32,44H49.582v9.467H32Z" transform="translate(-10.037 -13.923)" fill="#94a7bf"/>
        <path id="Trazado_113490" data-name="Trazado 113490" d="M32,44H46.877v9.467H32Z" transform="translate(-10.037 -13.923)" fill="#aed3f2"/>
        <g id="Grupo_59802" data-name="Grupo 59802" transform="translate(28.725 32.782)">
          <path id="Trazado_113491" data-name="Trazado 113491" d="M44,48h1.352v1.352H44Z" transform="translate(-42.648 -48)" fill="#0071bc"/>
          <path id="Trazado_113492" data-name="Trazado 113492" d="M44,52h1.352v1.352H44Z" transform="translate(-42.648 -49.295)" fill="#0071bc"/>
          <path id="Trazado_113493" data-name="Trazado 113493" d="M42,50h1.352v1.352H42Z" transform="translate(-42 -48.648)" fill="#0071bc"/>
          <path id="Trazado_113494" data-name="Trazado 113494" d="M46,50h1.352v1.352H46Z" transform="translate(-43.295 -48.648)" fill="#0071bc"/>
        </g>
        <path id="Trazado_113495" data-name="Trazado 113495" d="M21.286,48.753H4.381A3.385,3.385,0,0,1,1,45.372V29.819a10.819,10.819,0,1,1,21.639,0v2.029H21.286V29.819a9.467,9.467,0,1,0-18.934,0V45.372A2.031,2.031,0,0,0,4.381,47.4h16.9Z" transform="translate(0 -5.828)"/>
        <path id="Trazado_113496" data-name="Trazado 113496" d="M19.819,19.086H18.467V14.352H10.352v4.734H9v-5.41A.676.676,0,0,1,9.676,13h9.467a.676.676,0,0,1,.676.676Z" transform="translate(-2.59 -3.885)"/>
        <path id="Trazado_113497" data-name="Trazado 113497" d="M19.115,9.791H17.762V2.352h-5.41V9.791H11V1.676A.676.676,0,0,1,11.676,1h6.762a.676.676,0,0,1,.676.676Z" transform="translate(-3.238)"/>
        <path id="Trazado_113498" data-name="Trazado 113498" d="M20.553,51.229H7.029A2.031,2.031,0,0,1,5,49.2V35.676A.676.676,0,0,1,5.676,35H18.524v1.352H6.352V49.2a.677.677,0,0,0,.676.676H20.553Z" transform="translate(-1.295 -11.009)"/>
        <path id="Trazado_113499" data-name="Trazado 113499" d="M15.914,46.716a2.293,2.293,0,0,1-1.633-.676l-.4-.4a.978.978,0,0,0-1.352,0l-.4.4a2.366,2.366,0,0,1-3.265,0l-.4-.4a.978.978,0,0,0-1.352,0l-.874.874-.956-.956.874-.874a2.366,2.366,0,0,1,3.265,0l.4.4a.978.978,0,0,0,1.352,0l.4-.4a2.366,2.366,0,0,1,3.265,0l.4.4a.978.978,0,0,0,1.352,0l.4-.4a2.366,2.366,0,0,1,3.265,0l.874.874-.956.956L19.3,45.64a.978.978,0,0,0-1.352,0l-.4.4a2.291,2.291,0,0,1-1.633.676Z" transform="translate(-1.39 -13.934)"/>
        <path id="Trazado_113500" data-name="Trazado 113500" d="M20.381,9.057H19.029a2.029,2.029,0,0,1,0-4.057h1.352a.676.676,0,0,1,.676.676v2.7a.676.676,0,0,1-.676.681Zm-1.352-2.7a.676.676,0,1,0,0,1.352H19.7V6.352Z" transform="translate(-5.181 -1.295)"/>
        <path id="Trazado_113501" data-name="Trazado 113501" d="M0,0H2.869V1.352H0Z" transform="translate(18.102 3.228) rotate(-45)"/>
        <path id="Trazado_113502" data-name="Trazado 113502" d="M0,0H1.352V2.869H0Z" transform="translate(18.101 8.242) rotate(-45)"/>
        <path id="Trazado_113503" data-name="Trazado 113503" d="M28,7h2.7V8.352H28Z" transform="translate(-8.742 -1.943)"/>
        <path id="Trazado_113504" data-name="Trazado 113504" d="M49.315,54.582H29.029A2.031,2.031,0,0,1,27,52.553V39.029A2.031,2.031,0,0,1,29.029,37H49.315a2.031,2.031,0,0,1,2.029,2.029V52.553a2.031,2.031,0,0,1-2.029,2.029ZM29.029,38.352a.677.677,0,0,0-.676.676V52.553a.677.677,0,0,0,.676.676H49.315a.677.677,0,0,0,.676-.676V39.029a.677.677,0,0,0-.676-.676Z" transform="translate(-8.418 -11.656)"/>
        <path id="Trazado_113505" data-name="Trazado 113505" d="M47.467,35.734H46.115V32.352H39.352v3.381H38V31.676A.676.676,0,0,1,38.676,31h8.115a.676.676,0,0,1,.676.676Z" transform="translate(-11.98 -9.714)"/>
        <path id="Trazado_113506" data-name="Trazado 113506" d="M49.258,53.819H31.676A.676.676,0,0,1,31,53.143V43.676A.676.676,0,0,1,31.676,43H49.258a.676.676,0,0,1,.676.676v9.467a.676.676,0,0,1-.676.676ZM32.352,52.467h16.23V44.352H32.352Z" transform="translate(-9.714 -13.599)"/>
        <path id="Trazado_113507" data-name="Trazado 113507" d="M44,48h1.352v1.352H44Z" transform="translate(-13.923 -15.218)"/>
        <path id="Trazado_113508" data-name="Trazado 113508" d="M44,52h1.352v1.352H44Z" transform="translate(-13.923 -16.513)"/>
        <path id="Trazado_113509" data-name="Trazado 113509" d="M42,50h1.352v1.352H42Z" transform="translate(-13.275 -15.865)"/>
        <path id="Trazado_113510" data-name="Trazado 113510" d="M46,50h1.352v1.352H46Z" transform="translate(-14.57 -15.865)"/>
        <path id="Trazado_113511" data-name="Trazado 113511" d="M56.381,7.762a.676.676,0,0,1-.642-.463,3.616,3.616,0,0,0-2.277-2.277.676.676,0,0,1,0-1.283,3.616,3.616,0,0,0,2.277-2.277.676.676,0,0,1,1.283,0A3.616,3.616,0,0,0,59.3,3.739a.676.676,0,0,1,0,1.283A3.616,3.616,0,0,0,57.023,7.3.676.676,0,0,1,56.381,7.762Zm-1.22-3.381a5,5,0,0,1,1.22,1.22,5,5,0,0,1,1.22-1.22,5,5,0,0,1-1.22-1.22,5,5,0,0,1-1.22,1.22Z" transform="translate(-16.837)"/>
        <path id="Trazado_113512" data-name="Trazado 113512" d="M36.381,21.762a.676.676,0,0,1-.642-.463,3.616,3.616,0,0,0-2.277-2.277.676.676,0,0,1,0-1.283,3.616,3.616,0,0,0,2.277-2.277.676.676,0,0,1,1.283,0A3.616,3.616,0,0,0,39.3,17.739a.676.676,0,0,1,0,1.283A3.616,3.616,0,0,0,37.023,21.3.676.676,0,0,1,36.381,21.762Zm-1.22-3.381a5,5,0,0,1,1.22,1.22,5,5,0,0,1,1.22-1.22,5,5,0,0,1-1.22-1.22,5,5,0,0,1-1.22,1.22Z" transform="translate(-10.361 -4.533)"/>
      </g>
    </g>
  </g>
</svg>
