<svg xmlns="http://www.w3.org/2000/svg" xmlns:xlink="http://www.w3.org/1999/xlink" width="103" height="103" viewBox="0 0 103 103">
  <defs>
    <filter id="Trazado_874925" x="0" y="0" width="103" height="103" filterUnits="userSpaceOnUse">
      <feOffset dy="3" input="SourceAlpha"/>
      <feGaussianBlur stdDeviation="3" result="blur"/>
      <feFlood flood-opacity="0.161"/>
      <feComposite operator="in" in2="blur"/>
      <feComposite in="SourceGraphic"/>
    </filter>
  </defs>
  <g id="Grupo_1176825" data-name="Grupo 1176825" transform="translate(-799.5 -2511.157)">
    <g id="Grupo_1111316" data-name="Grupo 1111316" transform="translate(808.5 2517.157)">
      <g id="Grupo_1109835" data-name="Grupo 1109835" transform="translate(0 0)">
        <g id="Grupo_1107913" data-name="Grupo 1107913" transform="translate(0 0)">
          <g transform="matrix(1, 0, 0, 1, -9, -6)" filter="url(#Trazado_874925)">
            <g id="Trazado_874925-2" data-name="Trazado 874925" transform="translate(9 6)" fill="#cdb9f8" opacity="0.859">
              <path d="M 42.49984359741211 83.50018310546875 C 36.9642448425293 83.50018310546875 31.59502029418945 82.41635894775391 26.54131507873535 80.27883148193359 C 21.65926742553711 78.21389007568359 17.2744197845459 75.2574462890625 13.50857257843018 71.49160766601562 C 9.742737770080566 67.72576141357422 6.786290645599365 63.34091567993164 4.721349716186523 58.45886611938477 C 2.583820104598999 53.4051628112793 1.499996542930603 48.03593826293945 1.499996542930603 42.50033950805664 C 1.499996542930603 36.9642448425293 2.583820104598999 31.59502029418945 4.721349716186523 26.54131507873535 C 6.786290645599365 21.65926742553711 9.742737770080566 17.27442169189453 13.50857257843018 13.50857353210449 C 17.2744197845459 9.742738723754883 21.65926742553711 6.786291599273682 26.54131507873535 4.721350193023682 C 31.59502029418945 2.583821058273315 36.9642448425293 1.49999737739563 42.49984359741211 1.49999737739563 C 48.03545379638672 1.49999737739563 53.40467834472656 2.583821058273315 58.4583740234375 4.721350193023682 C 63.34043121337891 6.786291599273682 67.72528076171875 9.742738723754883 71.49111175537109 13.50857353210449 C 75.25695037841797 17.27442169189453 78.21339416503906 21.65926742553711 80.27833557128906 26.54131507873535 C 82.41587066650391 31.59502029418945 83.49968719482422 36.9642448425293 83.49968719482422 42.49984359741211 C 83.49968719482422 48.03593826293945 82.41587066650391 53.4051628112793 80.27833557128906 58.45886611938477 C 78.21339416503906 63.34091567993164 75.25695037841797 67.72576141357422 71.49111175537109 71.49160766601562 C 67.72528076171875 75.2574462890625 63.34043121337891 78.21389007568359 58.4583740234375 80.27883148193359 C 53.40467834472656 82.41635894775391 48.03545379638672 83.50018310546875 42.49984359741211 83.50018310546875 Z" stroke="none"/>
              <path d="M 42.49984359741211 3 C 37.16606903076172 3 31.99344253540039 4.043960571289062 27.12564468383789 6.102867126464844 C 22.42237854003906 8.092170715332031 18.19780731201172 10.94066619873047 14.56922912597656 14.56923675537109 C 10.940673828125 18.19779968261719 8.092178344726562 22.42238616943359 6.102859497070312 27.12563705444336 C 4.043952941894531 31.99343872070312 3 37.16606521606445 3 42.50033187866211 C 3 47.8341064453125 4.043952941894531 53.00672912597656 6.102859497070312 57.87453079223633 C 8.092178344726562 62.57778549194336 10.940673828125 66.8023681640625 14.56922912597656 70.43094635009766 C 18.19780731201172 74.05950164794922 22.42238998413086 76.90801239013672 27.12564468383789 78.89731597900391 C 31.99344253540039 80.95622253417969 37.16606903076172 82.00018310546875 42.49984359741211 82.00018310546875 C 47.83360290527344 82.00018310546875 53.00624084472656 80.95622253417969 57.87404632568359 78.89731597900391 C 62.57729721069336 76.90801239013672 66.8018798828125 74.05950164794922 70.43044281005859 70.43094635009766 C 74.05902099609375 66.8023681640625 76.90750885009766 62.57778549194336 78.89682006835938 57.87453079223633 C 80.95572662353516 53.00672912597656 81.99968719482422 47.83409118652344 81.99968719482422 42.49983978271484 C 81.99968719482422 37.16607666015625 80.95572662353516 31.99343872070312 78.89682006835938 27.12563705444336 C 76.90750885009766 22.42238616943359 74.05902099609375 18.19779968261719 70.43044281005859 14.56923675537109 C 66.8018798828125 10.94066619873047 62.57729721069336 8.092170715332031 57.87404632568359 6.102867126464844 C 53.00624084472656 4.043960571289062 47.83360290527344 3 42.49984359741211 3 M 42.49984359741211 0 C 65.97185516357422 0 84.99968719482422 19.02782440185547 84.99968719482422 42.49983978271484 L 84.99968719482422 42.50033187866211 C 84.99968719482422 65.97234344482422 65.97185516357422 85.00018310546875 42.49984359741211 85.00018310546875 C 19.02781677246094 85.00018310546875 0 65.97234344482422 0 42.50033187866211 L 0 42.49983978271484 C 0 19.02782440185547 19.02781677246094 0 42.49984359741211 0 Z" stroke="none" fill="#fff"/>
            </g>
          </g>
          <g id="Trazado_874923" data-name="Trazado 874923" transform="translate(0 0)" fill="none">
            <path d="M42.5,0A42.5,42.5,0,0,1,85,42.5h0a42.5,42.5,0,1,1-85,0H0A42.5,42.5,0,0,1,42.5,0Z" stroke="none"/>
            <path d="M 42.49984359741211 3 C 37.16606903076172 3 31.99344253540039 4.043960571289062 27.12564468383789 6.102867126464844 C 22.42237854003906 8.092170715332031 18.19780731201172 10.94066619873047 14.56922912597656 14.56923675537109 C 10.940673828125 18.19779968261719 8.092178344726562 22.42238616943359 6.102859497070312 27.12563705444336 C 4.043952941894531 31.99343872070312 3 37.16606521606445 3 42.50033187866211 C 3 47.8341064453125 4.043952941894531 53.00672912597656 6.102859497070312 57.87453079223633 C 8.092178344726562 62.57778549194336 10.940673828125 66.8023681640625 14.56922912597656 70.43094635009766 C 18.19780731201172 74.05950164794922 22.42238998413086 76.90801239013672 27.12564468383789 78.89731597900391 C 31.99344253540039 80.95622253417969 37.16606903076172 82.00018310546875 42.49984359741211 82.00018310546875 C 47.83360290527344 82.00018310546875 53.00624084472656 80.95622253417969 57.87404632568359 78.89731597900391 C 62.57729721069336 76.90801239013672 66.8018798828125 74.05950164794922 70.43044281005859 70.43094635009766 C 74.05902099609375 66.8023681640625 76.90750885009766 62.57778549194336 78.89682006835938 57.87453079223633 C 80.95572662353516 53.00672912597656 81.99968719482422 47.83409118652344 81.99968719482422 42.49983978271484 C 81.99968719482422 37.16607666015625 80.95572662353516 31.99343872070312 78.89682006835938 27.12563705444336 C 76.90750885009766 22.42238616943359 74.05902099609375 18.19779968261719 70.43044281005859 14.56923675537109 C 66.8018798828125 10.94066619873047 62.57729721069336 8.092170715332031 57.87404632568359 6.102867126464844 C 53.00624084472656 4.043960571289062 47.83360290527344 3 42.49984359741211 3 M 42.49984359741211 0 C 65.97185516357422 0 84.99968719482422 19.02782440185547 84.99968719482422 42.49983978271484 L 84.99968719482422 42.50033187866211 C 84.99968719482422 65.97234344482422 65.97185516357422 85.00018310546875 42.49984359741211 85.00018310546875 C 19.02781677246094 85.00018310546875 0 65.97234344482422 0 42.50033187866211 L 0 42.49983978271484 C 0 19.02782440185547 19.02781677246094 0 42.49984359741211 0 Z" stroke="none" fill="#fff"/>
          </g>
        </g>
      </g>
    </g>
    <g id="img-19.39fd4b17" transform="translate(820.607 2529.355)">
      <g id="makeup" transform="translate(-31.946 7)">
        <path id="Trazado_113519" data-name="Trazado 113519" d="M173.012,14.915h0a14.857,14.857,0,0,1,8.322,2.534,8.373,8.373,0,0,0-16.644,0,14.857,14.857,0,0,1,8.322-2.534Z" transform="translate(-110.664 -9.09)" fill="#d9a171"/>
        <g id="Grupo_59807" data-name="Grupo 59807" transform="translate(43.856 17.918)">
          <path id="Trazado_113520" data-name="Trazado 113520" d="M55.978,253.478h0A3.028,3.028,0,0,0,52.95,256.5v2.3a3.028,3.028,0,0,0,3.028,3.033h30.9a3.028,3.028,0,0,0,3.028-3.033v-2.3a3.028,3.028,0,0,0-3.028-3.022H55.98Z" transform="translate(-52.946 -248.326)" fill="#fdc9a6"/>
          <path id="Trazado_113521" data-name="Trazado 113521" d="M121.981,196.868v8.674a19.677,19.677,0,0,1-14.922,19.094h-.015a19.677,19.677,0,0,1-14.916-19.092v-8.679Z" transform="translate(-88.563 -196.868)" fill="#fdc9a6"/>
        </g>
        <path id="Trazado_113522" data-name="Trazado 113522" d="M108.293,76.093h0a15.354,15.354,0,0,0,12.675,6.689h1.015V78.926A14.926,14.926,0,0,0,107.056,64h0A14.926,14.926,0,0,0,92.13,78.926v2.548l.448,1.307.654-.148a44.144,44.144,0,0,0,19.693-10.159l.4-.354Z" transform="translate(-44.708 -58.175)" fill="#d9a171"/>
        <path id="Trazado_113523" data-name="Trazado 113523" d="M281.832,361.913l-3.354,3.354-5.129-2.125a.827.827,0,0,1-.5-.912v-.019a7.527,7.527,0,0,1,6.053-6.052h0a.827.827,0,0,1,.921.518Z" transform="translate(-208.97 -323.732)" fill="#ffcceb"/>
        <path id="Trazado_113524" data-name="Trazado 113524" d="M345.659,427.025l-7.507-7.507-3.354,3.354,4.153,4.153Z" transform="translate(-265.29 -381.336)" fill="#aed3f2"/>
        <path id="Trazado_113525" data-name="Trazado 113525" d="M148.667,292.928a2.438,2.438,0,0,1-3.445,0,.91.91,0,1,0-1.287,1.287,4.261,4.261,0,0,0,6.019,0,.91.91,0,0,0-1.287-1.287Z" transform="translate(-91.555 -266.026)"/>
        <path id="Trazado_113526" data-name="Trazado 113526" d="M301.339,292.928a2.439,2.439,0,0,1-3.445,0,.91.91,0,0,0-1.287,1.287,4.261,4.261,0,0,0,6.019,0,.91.91,0,0,0-1.287-1.287Z" transform="translate(-230.332 -266.026)"/>
        <path id="Trazado_113527" data-name="Trazado 113527" d="M66.488,43.121a18.792,18.792,0,0,1-4.149,1.628A18.737,18.737,0,0,1,48.332,26.6V25.435l.393-.089A45.36,45.36,0,0,0,63.36,19.157a16.253,16.253,0,0,0,12.9,6.36h.1v1.075a18.814,18.814,0,0,1-2.227,8.869.91.91,0,1,0,1.6.861,20.522,20.522,0,0,0,1.622-3.981h.427A3.938,3.938,0,0,0,81.728,28.4V26.095a3.945,3.945,0,0,0-3.539-3.91V20.751a15.828,15.828,0,0,0-6.664-12.9,9.284,9.284,0,0,0-18.344,0,15.828,15.828,0,0,0-6.664,12.9v1.427A3.945,3.945,0,0,0,42.95,26.09V28.4a3.938,3.938,0,0,0,3.938,3.945h.441A20.553,20.553,0,0,0,62.118,46.572a.91.91,0,0,0,.44,0h.015a20.617,20.617,0,0,0,4.777-1.844.91.91,0,0,0-.862-1.6ZM79.9,26.094V28.4a2.117,2.117,0,0,1-2.1,2.121,20.578,20.578,0,0,0,.381-3.929V24.018A2.122,2.122,0,0,1,79.9,26.094ZM62.348,1.82a7.451,7.451,0,0,1,6.934,4.7,15.816,15.816,0,0,0-13.868,0,7.451,7.451,0,0,1,6.934-4.7Zm0,4.915A14.032,14.032,0,0,1,76.365,20.751V23.7h-.1a14.434,14.434,0,0,1-11.391-5.563q.945-.67,1.854-1.387A.91.91,0,0,0,65.6,15.322a43.5,43.5,0,0,1-17.262,8.251V20.751A14.032,14.032,0,0,1,62.348,6.735ZM46.884,30.521A2.118,2.118,0,0,1,44.766,28.4V26.095a2.122,2.122,0,0,1,1.742-2.08V26.6a20.715,20.715,0,0,0,.374,3.924Z"/>
        <path id="Trazado_113528" data-name="Trazado 113528" d="M315.725,145.055a.907.907,0,0,0,.606-.231l.013-.011a.91.91,0,1,0-1.213-1.357l-.013.011a.91.91,0,0,0,.607,1.589Z" transform="translate(-247.125 -130.188)"/>
        <path id="Trazado_113529" data-name="Trazado 113529" d="M273.526,352.317l-1.934-5.055a1.737,1.737,0,0,0-1.934-1.088,8.479,8.479,0,0,0-6.784,6.782v.021a1.746,1.746,0,0,0,1.044,1.917l4.962,2.055,4.025,4.025a.91.91,0,0,0,1.287-1.287l-3.51-3.51,2.067-2.067,4.522,4.522a.91.91,0,1,0,1.287-1.287Zm-3.609-4.34,1.767,4.62-2.506,2.506-4.5-1.866A6.652,6.652,0,0,1,269.917,347.977Z" transform="translate(-199.883 -314.642)"/>
        <path id="Trazado_113530" data-name="Trazado 113530" d="M445.042,492a.91.91,0,1,0,.643.267A.92.92,0,0,0,445.042,492Z" transform="translate(-364.673 -447.221)"/>
      </g>
    </g>
  </g>
</svg>
