<svg xmlns="http://www.w3.org/2000/svg" xmlns:xlink="http://www.w3.org/1999/xlink" width="90.795" height="90.795" viewBox="0 0 90.795 90.795">
  <defs>
    <filter id="Trazado_900409" x="0" y="0" width="90.795" height="90.795" filterUnits="userSpaceOnUse">
      <feOffset dy="3" input="SourceAlpha"/>
      <feGaussianBlur stdDeviation="3" result="blur"/>
      <feFlood flood-opacity="0.161"/>
      <feComposite operator="in" in2="blur"/>
      <feComposite in="SourceGraphic"/>
    </filter>
  </defs>
  <g id="Grupo_1176705" data-name="Grupo 1176705" transform="translate(-1011.967 -3087)">
    <g transform="matrix(1, 0, 0, 1, 1011.97, 3087)" filter="url(#Trazado_900409)">
      <path id="Trazado_900409-2" data-name="Trazado 900409" d="M36.4,0A36.4,36.4,0,1,1,0,36.4,36.4,36.4,0,0,1,36.4,0Z" transform="translate(9 6)" fill="#fd9826" opacity="0.859"/>
    </g>
    <g id="real-estate_6077884" transform="translate(1032.823 3104.868)">
      <circle id="Elipse_12985" data-name="Elipse 12985" cx="12.91" cy="12.91" r="12.91" transform="translate(11.632 1.755)" fill="#e2e7f6"/>
      <path id="Trazado_1031502" data-name="Trazado 1031502" d="M38.54,14.152a12.905,12.905,0,0,0-7.687-11.8,12.9,12.9,0,0,0-8.168,24.359A12.871,12.871,0,0,0,38.54,14.152Z" transform="translate(-3.367 -0.247)" fill="#f2f2f2"/>
      <path id="Trazado_1031503" data-name="Trazado 1031503" d="M22.969,26.151V19.592L29.8,14l6.835,5.592v6.558Z" transform="translate(-5.285 -3.132)" fill="#c8cded"/>
      <path id="Trazado_1031504" data-name="Trazado 1031504" d="M29.8,14l-6.835,5.592v5.039H33.6a.759.759,0,0,0,.759-.759V17.728Z" transform="translate(-5.285 -3.132)" fill="#e2e7f6"/>
      <path id="Trazado_1031505" data-name="Trazado 1031505" d="M19.051,30A12.89,12.89,0,0,0,38.72,30Z" transform="translate(-4.343 -6.982)" fill="#686868"/>
      <path id="Trazado_1031506" data-name="Trazado 1031506" d="M39.233,17.113,28.6,8,17.969,17.113l2.278,2.278L28.6,12.556l8.354,6.835Z" transform="translate(-4.083 -1.689)" fill="#3b5892"/>
      <path id="Trazado_1031507" data-name="Trazado 1031507" d="M27.969,28.075V25.038a3.038,3.038,0,0,1,6.075,0v3.038" transform="translate(-6.488 -5.057)" fill="#5e87ca"/>
      <path id="Trazado_1031508" data-name="Trazado 1031508" d="M40.007,14.1V9H36.969v2.5" transform="translate(-8.654 -1.929)" fill="#5e87ca"/>
      <path id="Trazado_1031509" data-name="Trazado 1031509" d="M31.007,25.038V22a3.038,3.038,0,0,0-3.038,3.038v1.519h1.519A1.519,1.519,0,0,0,31.007,25.038Z" transform="translate(-6.488 -5.057)" fill="#78a0d4"/>
      <path id="Trazado_1031510" data-name="Trazado 1031510" d="M2,34H8.075V49.948H2Z" transform="translate(-0.241 -7.944)" fill="#5e87ca"/>
      <path id="Trazado_1031511" data-name="Trazado 1031511" d="M2,34V46.91h.759a2.278,2.278,0,0,0,2.278-2.278V34Z" transform="translate(-0.241 -7.944)" fill="#78a0d4"/>
      <path id="Trazado_1031512" data-name="Trazado 1031512" d="M46.3,36H27.316l-4.687,4.687a2.148,2.148,0,0,0,3.038,3.037L29.594,39.8h3.038l7.725,7.725a2.151,2.151,0,0,1,.629,1.388H46.3Z" transform="translate(-5.052 -8.425)" fill="#ffcea9"/>
      <path id="Trazado_1031513" data-name="Trazado 1031513" d="M10,48.91h4.556l6.206,6.206A2.148,2.148,0,0,0,23.8,52.078L25.319,53.6a2.148,2.148,0,0,0,3.037-3.038l1.519,1.519a2.148,2.148,0,0,0,3.037-3.038l1.519,1.519a2.148,2.148,0,0,0,3.037-3.038L29.745,39.8H26.707l-3.928,3.928a2.148,2.148,0,0,1-3.037-3.038L24.429,36H10Z" transform="translate(-2.165 -8.425)" fill="#fbe1ca"/>
      <g id="Grupo_1176586" data-name="Grupo 1176586" transform="translate(17.923 35.391)">
        <path id="Trazado_1031514" data-name="Trazado 1031514" d="M0,0H1.519V6.628H0Z" transform="translate(7.594 1.074) rotate(-45)" fill="#ffcea9"/>
        <path id="Trazado_1031515" data-name="Trazado 1031515" d="M0,0H1.519V4.481H0Z" transform="translate(0 5.629) rotate(-45)" fill="#ffcea9"/>
        <path id="Trazado_1031516" data-name="Trazado 1031516" d="M0,0H1.519V5.554H0Z" transform="translate(3.796 3.351) rotate(-45)" fill="#ffcea9"/>
      </g>
      <path id="Trazado_1031517" data-name="Trazado 1031517" d="M54,34h6.075V49.948H54Z" transform="translate(-12.751 -7.944)" fill="#5e87ca"/>
      <path id="Trazado_1031518" data-name="Trazado 1031518" d="M54,34V46.91h.759a2.278,2.278,0,0,0,2.278-2.278V34Z" transform="translate(-12.751 -7.944)" fill="#78a0d4"/>
      <path id="Trazado_1031519" data-name="Trazado 1031519" d="M47.324,25.3H41.249a.759.759,0,0,0-.759.759v.759H30.775a13.669,13.669,0,1,0-12.467,0H8.594v-.759a.759.759,0,0,0-.759-.759H1.759A.759.759,0,0,0,1,26.056V42a.759.759,0,0,0,.759.759H7.835A.759.759,0,0,0,8.594,42v-.759h3.483l5.983,5.983a2.9,2.9,0,0,0,4.845-1.282,2.877,2.877,0,0,0,4.556-1.519,2.877,2.877,0,0,0,4.556-1.519,2.877,2.877,0,0,0,1.767.614,2.909,2.909,0,0,0,2.831-2.278h3.873V42a.759.759,0,0,0,.759.759h6.075A.759.759,0,0,0,48.084,42V26.056A.759.759,0,0,0,47.324,25.3ZM7.075,41.244H2.519V26.815H7.075ZM24.542,2.514a12.137,12.137,0,0,1,9.47,19.745H32.136v-4.2l.279.228a.759.759,0,0,0,1.018-.051l2.278-2.278a.759.759,0,0,0-.043-1.113l-3.531-3.027V7.071a.759.759,0,0,0-.759-.759H28.339a.759.759,0,0,0-.759.759v.844l-2.544-2.18a.759.759,0,0,0-.987,0L13.416,14.848a.759.759,0,0,0-.043,1.113l2.278,2.278a.759.759,0,0,0,1.018.051l.279-.228v4.2H15.072a12.137,12.137,0,0,1,9.47-19.745ZM26.82,22.259H22.264V19.981a2.278,2.278,0,0,1,4.556,0Zm-2.278-6.075a3.8,3.8,0,0,0-3.8,3.8v2.278H18.466V16.82l6.075-4.971,6.075,4.971v5.439H28.339V19.981a3.8,3.8,0,0,0-3.8-3.8Zm6.075-5.664L29.1,9.217V7.83h1.519Zm3.439,4.948-1.215,1.215-7.822-6.4a.759.759,0,0,0-.961,0l-7.822,6.4-1.215-1.215,9.521-8.156Zm-17.524,8.31H32.551a12.075,12.075,0,0,1-16.019,0ZM33.785,42A1.4,1.4,0,0,1,32.8,41.6L26.6,35.391l-1.074,1.074,4.687,4.687a1.389,1.389,0,1,1-1.964,1.964L22.8,37.67l-1.074,1.074,3.928,3.928a1.389,1.389,0,1,1-1.964,1.964L19,39.948,17.93,41.022,21.1,44.19a1.389,1.389,0,1,1-1.964,1.964l-6.206-6.206a.759.759,0,0,0-.537-.223h-3.8V28.334H20.43L17.04,31.725a2.907,2.907,0,1,0,4.111,4.111l3.705-3.705h2.409l7.5,7.5A1.389,1.389,0,0,1,33.785,42Zm2.755-2.278a2.871,2.871,0,0,0-.7-1.166l-7.725-7.725a.759.759,0,0,0-.537-.223H24.542a.759.759,0,0,0-.537.222l-3.928,3.928A1.389,1.389,0,1,1,18.113,32.8l4.465-4.464H40.489V39.725Zm10.024,1.519H42.008V26.815h4.556Z" transform="translate(0)"/>
    </g>
  </g>
</svg>
