<svg xmlns="http://www.w3.org/2000/svg" xmlns:xlink="http://www.w3.org/1999/xlink" width="108.914" height="108.914" viewBox="0 0 108.914 108.914">
  <defs>
    <filter id="Trazado_874925" x="0" y="0" width="108.914" height="108.914" filterUnits="userSpaceOnUse">
      <feOffset dy="3" input="SourceAlpha"/>
      <feGaussianBlur stdDeviation="3" result="blur"/>
      <feFlood flood-opacity="0.161"/>
      <feComposite operator="in" in2="blur"/>
      <feComposite in="SourceGraphic"/>
    </filter>
  </defs>
  <g id="Grupo_1176535" data-name="Grupo 1176535" transform="translate(-798.051 -1965.728)">
    <g id="Grupo_1111376" data-name="Grupo 1111376" transform="translate(807.051 1971.728)">
      <g id="Grupo_1111316" data-name="Grupo 1111316" transform="translate(0 0)">
        <g id="Grupo_1109835" data-name="Grupo 1109835">
          <g id="Grupo_1107913" data-name="Grupo 1107913" transform="translate(0 0)">
            <g transform="matrix(1, 0, 0, 1, -9, -6)" filter="url(#Trazado_874925)">
              <g id="Trazado_874925-2" data-name="Trazado 874925" transform="translate(9 6)" fill="#fd9826" opacity="0.859">
                <path d="M 45.45685958862305 89.41424560546875 C 39.52206039428711 89.41424560546875 33.76558303833008 88.25225067138672 28.34732246398926 85.96051025390625 C 23.1131591796875 83.74665069580078 18.41207122802734 80.57698822021484 14.37467193603516 76.53958892822266 C 10.33725929260254 72.50217437744141 7.16759729385376 67.80109405517578 4.953734397888184 62.56692123413086 C 2.661997079849243 57.14865875244141 1.499997138977051 51.39218521118164 1.499997138977051 45.4573860168457 C 1.499997138977051 39.52206039428711 2.661997079849243 33.76558685302734 4.953734397888184 28.34733581542969 C 7.16759729385376 23.11316108703613 10.33725929260254 18.41207313537598 14.37467193603516 14.37467288970947 C 18.41207122802734 10.33726024627686 23.1131591796875 7.167597770690918 28.34733390808105 4.9537353515625 C 33.76558303833008 2.66199779510498 39.52206039428711 1.499997854232788 45.45685958862305 1.499997854232788 C 51.39165878295898 1.499997854232788 57.14813613891602 2.66199779510498 62.56639862060547 4.9537353515625 C 67.80057525634766 7.167597770690918 72.50164794921875 10.33726024627686 76.5390625 14.37467288970947 C 80.57646179199219 18.41207313537598 83.74612426757812 23.11316108703613 85.95998382568359 28.34732246398926 C 88.25172424316406 33.76558685302734 89.41371917724609 39.52206039428711 89.41371917724609 45.45685958862305 C 89.41371917724609 51.39218521118164 88.25172424316406 57.14865875244141 85.95998382568359 62.56692123413086 C 83.74612426757812 67.80109405517578 80.57646179199219 72.50217437744141 76.5390625 76.53958892822266 C 72.50164794921875 80.57698822021484 67.80057525634766 83.74665069580078 62.56639862060547 85.96051025390625 C 57.14813613891602 88.25225067138672 51.39165878295898 89.41424560546875 45.45685958862305 89.41424560546875 Z" stroke="none"/>
                <path d="M 45.45685958862305 2.999992370605469 C 39.72390365600586 2.999992370605469 34.16401672363281 4.122138977050781 28.93165969848633 6.335235595703125 C 23.87627410888672 8.473480224609375 19.33545684814453 11.53519439697266 15.43533325195312 15.43532562255859 C 11.53520202636719 19.33544921875 8.473487854003906 23.87628173828125 6.335243225097656 28.9316520690918 C 4.122146606445312 34.16402435302734 3 39.72389602661133 3 45.45737838745117 C 3 51.19034957885742 4.122146606445312 56.75022125244141 6.335243225097656 61.98259353637695 C 8.473487854003906 67.0379638671875 11.53520202636719 71.57878112792969 15.43533325195312 75.47891998291016 C 19.33545684814453 79.37905120849609 23.87627410888672 82.44075012207031 28.93165969848633 84.57899475097656 C 34.16401672363281 86.79209136962891 39.72390365600586 87.91423797607422 45.45685958862305 87.91423797607422 C 51.1898307800293 87.91423797607422 56.74970245361328 86.79209136962891 61.98207473754883 84.57899475097656 C 67.03744506835938 82.44075012207031 71.57826232910156 79.37905120849609 75.47840118408203 75.47891998291016 C 79.37853240966797 71.57878112792969 82.44023132324219 67.0379638671875 84.57847595214844 61.98259353637695 C 86.79157257080078 56.75022125244141 87.91371917724609 51.19034957885742 87.91371917724609 45.45686721801758 C 87.91371917724609 39.72389602661133 86.79157257080078 34.16402435302734 84.57847595214844 28.9316520690918 C 82.44023132324219 23.87628173828125 79.37853240966797 19.33544921875 75.47840118408203 15.43532562255859 C 71.57826232910156 11.53519439697266 67.03744506835938 8.473480224609375 61.98207473754883 6.335235595703125 C 56.74970245361328 4.122138977050781 51.1898307800293 2.999992370605469 45.45685958862305 2.999992370605469 M 45.45685958862305 -7.62939453125e-06 C 70.56200408935547 -7.62939453125e-06 90.91371917724609 20.35172271728516 90.91371917724609 45.45686721801758 L 90.91371917724609 45.45737838745117 C 90.91371917724609 70.56252288818359 70.56200408935547 90.91423797607422 45.45685958862305 90.91423797607422 C 20.35173034667969 90.91423797607422 0 70.56252288818359 0 45.45737838745117 L 0 45.45686721801758 C 0 20.35172271728516 20.35173034667969 -7.62939453125e-06 45.45685958862305 -7.62939453125e-06 Z" stroke="none" fill="#fff"/>
              </g>
            </g>
            <g id="Trazado_874923" data-name="Trazado 874923" fill="none">
              <path d="M45.457,0A45.457,45.457,0,0,1,90.914,45.457h0A45.457,45.457,0,0,1,0,45.457H0A45.457,45.457,0,0,1,45.457,0Z" stroke="none"/>
              <path d="M 45.45685958862305 2.999992370605469 C 39.72390365600586 2.999992370605469 34.16401672363281 4.122138977050781 28.93165969848633 6.335235595703125 C 23.87627410888672 8.473480224609375 19.33545684814453 11.53519439697266 15.43533325195312 15.43532562255859 C 11.53520202636719 19.33544921875 8.473487854003906 23.87628173828125 6.335243225097656 28.9316520690918 C 4.122146606445312 34.16402435302734 3 39.72389602661133 3 45.45737838745117 C 3 51.19034957885742 4.122146606445312 56.75022125244141 6.335243225097656 61.98259353637695 C 8.473487854003906 67.0379638671875 11.53520202636719 71.57878112792969 15.43533325195312 75.47891998291016 C 19.33545684814453 79.37905120849609 23.87627410888672 82.44075012207031 28.93165969848633 84.57899475097656 C 34.16401672363281 86.79209136962891 39.72390365600586 87.91423797607422 45.45685958862305 87.91423797607422 C 51.1898307800293 87.91423797607422 56.74970245361328 86.79209136962891 61.98207473754883 84.57899475097656 C 67.03744506835938 82.44075012207031 71.57826232910156 79.37905120849609 75.47840118408203 75.47891998291016 C 79.37853240966797 71.57878112792969 82.44023132324219 67.0379638671875 84.57847595214844 61.98259353637695 C 86.79157257080078 56.75022125244141 87.91371917724609 51.19034957885742 87.91371917724609 45.45686721801758 C 87.91371917724609 39.72389602661133 86.79157257080078 34.16402435302734 84.57847595214844 28.9316520690918 C 82.44023132324219 23.87628173828125 79.37853240966797 19.33544921875 75.47840118408203 15.43532562255859 C 71.57826232910156 11.53519439697266 67.03744506835938 8.473480224609375 61.98207473754883 6.335235595703125 C 56.74970245361328 4.122138977050781 51.1898307800293 2.999992370605469 45.45685958862305 2.999992370605469 M 45.45685958862305 -7.62939453125e-06 C 70.56200408935547 -7.62939453125e-06 90.91371917724609 20.35172271728516 90.91371917724609 45.45686721801758 L 90.91371917724609 45.45737838745117 C 90.91371917724609 70.56252288818359 70.56200408935547 90.91423797607422 45.45685958862305 90.91423797607422 C 20.35173034667969 90.91423797607422 0 70.56252288818359 0 45.45737838745117 L 0 45.45686721801758 C 0 20.35172271728516 20.35173034667969 -7.62939453125e-06 45.45685958862305 -7.62939453125e-06 Z" stroke="none" fill="#fff"/>
            </g>
          </g>
        </g>
      </g>
    </g>
    <g id="order_8728986" transform="translate(826.877 1991.421)">
      <path id="Trazado_1031163" data-name="Trazado 1031163" d="M50.776,59.64H3.252a.831.831,0,0,1-.782-1.114L6.228,48H47.8l3.758,10.526a.831.831,0,0,1-.782,1.114Z" transform="translate(-1.59 -8.946)" fill="#556a8c"/>
      <path id="Trazado_1031164" data-name="Trazado 1031164" d="M7,15H48.572V42.437H7Z" transform="translate(-2.362 -3.383)" fill="#ffd799"/>
      <path id="Trazado_1031165" data-name="Trazado 1031165" d="M43.663,11.146V6.989H42L45.326,2l3.326,4.989H46.989v4.157Z" transform="translate(-8.262 -1.192)" fill="#36b385"/>
      <path id="Trazado_1031166" data-name="Trazado 1031166" d="M29.663,11.146V6.989H28L31.326,2l3.326,4.989H32.989v4.157Z" transform="translate(-5.902 -1.192)" fill="#36b385"/>
      <path id="Trazado_1031167" data-name="Trazado 1031167" d="M15.663,11.146V6.989H14L17.326,2l3.326,4.989H18.989v4.157Z" transform="translate(-3.542 -1.192)" fill="#36b385"/>
      <circle id="Elipse_12977" data-name="Elipse 12977" cx="6.651" cy="6.651" r="6.651" transform="translate(7.964 14.943)" fill="#f2f2f2"/>
      <circle id="Elipse_12978" data-name="Elipse 12978" cx="2.079" cy="2.079" r="2.079" transform="translate(12.537 18.219)" fill="#eeceb2"/>
      <path id="Trazado_1031168" data-name="Trazado 1031168" d="M21.651,33.077a6.61,6.61,0,0,1-6.651,0V30.583a1.663,1.663,0,0,1,1.663-1.663h3.326a1.663,1.663,0,0,1,1.663,1.663Z" transform="translate(-3.71 -5.729)" fill="#2c96de"/>
      <path id="Trazado_1031169" data-name="Trazado 1031169" d="M33,32h8.314v8.314H33Z" transform="translate(-6.745 -6.249)" fill="#ffb866"/>
      <path id="Trazado_1031170" data-name="Trazado 1031170" d="M43,32h8.314v8.314H43Z" transform="translate(-8.43 -6.249)" fill="#ffb866"/>
      <path id="Trazado_1031171" data-name="Trazado 1031171" d="M43,22h8.314v8.314H43Z" transform="translate(-8.43 -4.563)" fill="#ffb866"/>
      <path id="Trazado_1031172" data-name="Trazado 1031172" d="M33,22h8.314v8.314H33Z" transform="translate(-6.745 -4.563)" fill="#ffb866"/>
      <g id="Grupo_1176534" data-name="Grupo 1176534" transform="translate(28.75 17.437)">
        <path id="Trazado_1031173" data-name="Trazado 1031173" d="M36,32h3.326v3.326H36Z" transform="translate(-36 -23.686)" fill="#ffd799"/>
        <path id="Trazado_1031174" data-name="Trazado 1031174" d="M46,32h3.326v3.326H46Z" transform="translate(-37.686 -23.686)" fill="#ffd799"/>
        <path id="Trazado_1031175" data-name="Trazado 1031175" d="M46,22h3.326v3.326H46Z" transform="translate(-37.686 -22)" fill="#ffd799"/>
        <path id="Trazado_1031176" data-name="Trazado 1031176" d="M36,22h3.326v3.326H36Z" transform="translate(-36 -22)" fill="#ffd799"/>
      </g>
      <path id="Trazado_1031177" data-name="Trazado 1031177" d="M48.463,42.127V15.663A1.663,1.663,0,0,0,46.8,14H11.88a.831.831,0,1,0,0,1.663H46.8V41.437H6.891V15.663H8.554a.831.831,0,0,0,0-1.663H6.891a1.663,1.663,0,0,0-1.663,1.663V42.127L1.52,52.52a1.655,1.655,0,0,0,1.563,2.22H45.137a.831.831,0,1,0,0-1.663H3.083L6.642,43.1H47.049l3.559,9.977H48.463a.831.831,0,0,0,0,1.663h2.145a1.655,1.655,0,0,0,1.563-2.22Z" transform="translate(-1.422 -3.214)"/>
      <path id="Trazado_1031178" data-name="Trazado 1031178" d="M24.831,57a.831.831,0,0,0,0,1.663h11.64a.831.831,0,1,0,0-1.663Z" transform="translate(-5.228 -10.463)"/>
      <path id="Trazado_1031179" data-name="Trazado 1031179" d="M45.99,6.825V10.15a.831.831,0,1,0,1.663,0V7.656h.831a.821.821,0,0,0,.69-1.272L45.849,1.4a.831.831,0,0,0-1.38,0L41.143,6.384a.821.821,0,0,0,.69,1.272h.831V10.15a.831.831,0,0,0,1.663,0V6.825a.831.831,0,0,0-.831-.831h-.108l1.771-2.661L46.93,5.993h-.108A.831.831,0,0,0,45.99,6.825Z" transform="translate(-8.095 -1.028)"/>
      <path id="Trazado_1031180" data-name="Trazado 1031180" d="M31.99,6.825V10.15a.831.831,0,1,0,1.663,0V7.656h.831a.821.821,0,0,0,.69-1.272L31.849,1.4a.831.831,0,0,0-1.38,0L27.143,6.384a.821.821,0,0,0,.69,1.272h.831V10.15a.831.831,0,1,0,1.663,0V6.825a.831.831,0,0,0-.831-.831h-.108l1.771-2.661L32.93,5.993h-.108A.831.831,0,0,0,31.99,6.825Z" transform="translate(-5.735 -1.028)"/>
      <path id="Trazado_1031181" data-name="Trazado 1031181" d="M17.99,6.825V10.15a.831.831,0,0,0,1.663,0V7.656h.831a.821.821,0,0,0,.69-1.272L17.849,1.4a.831.831,0,0,0-1.38,0L13.143,6.384a.821.821,0,0,0,.69,1.272h.831V10.15a.831.831,0,1,0,1.663,0V6.825a.831.831,0,0,0-.831-.831h-.108l1.771-2.661L18.93,5.993h-.108a.831.831,0,0,0-.831.831Z" transform="translate(-3.375 -1.028)"/>
      <path id="Trazado_1031182" data-name="Trazado 1031182" d="M17.483,18a7.483,7.483,0,1,0,7.483,7.483A7.483,7.483,0,0,0,17.483,18ZM14.989,30.729V28.759a.831.831,0,0,1,.831-.831h3.326a.831.831,0,0,1,.831.831v1.971A5.712,5.712,0,0,1,14.989,30.729Zm1.247-6.543a1.247,1.247,0,1,1,1.247,1.247A1.247,1.247,0,0,1,16.236,24.186Zm5.4,5.363v-.79a2.494,2.494,0,0,0-2.17-2.494,2.91,2.91,0,1,0-3.974,0,2.494,2.494,0,0,0-2.17,2.494v.79a5.82,5.82,0,1,1,8.314,0Z" transform="translate(-2.868 -3.889)"/>
      <path id="Trazado_1031183" data-name="Trazado 1031183" d="M49.46,39.292a.831.831,0,0,0,.831-.831V21.831A.831.831,0,0,0,49.46,21H32.831a.831.831,0,0,0-.831.831V38.46a.831.831,0,0,0,.831.831Zm-15.8-8.314h.831v2.494a.831.831,0,0,0,.831.831h3.326a.831.831,0,0,0,.831-.831V30.977h.831v6.651H33.663Zm2.494,0H37.82V32.64H36.157Zm12.472,6.651H41.977V30.977h.831v2.494a.831.831,0,0,0,.831.831h3.326a.831.831,0,0,0,.831-.831V30.977h.831Zm-4.157-6.651h1.663V32.64H44.472Zm4.157-1.663H41.977V22.663h.831v2.494a.831.831,0,0,0,.831.831h3.326a.831.831,0,0,0,.831-.831V22.663h.831Zm-4.157-6.651h1.663v1.663H44.472Zm-8.314,0H37.82v1.663H36.157Zm-2.494,0h.831v2.494a.831.831,0,0,0,.831.831h3.326a.831.831,0,0,0,.831-.831V22.663h.831v6.651H33.663Z" transform="translate(-6.576 -4.394)"/>
      <path id="Trazado_1031184" data-name="Trazado 1031184" d="M22.809,38H12.831a.831.831,0,1,0,0,1.663h9.977a.831.831,0,1,0,0-1.663Z" transform="translate(-3.205 -7.26)"/>
      <path id="Trazado_1031185" data-name="Trazado 1031185" d="M22.809,42H12.831a.831.831,0,1,0,0,1.663h9.977a.831.831,0,1,0,0-1.663Z" transform="translate(-3.205 -7.934)"/>
    </g>
  </g>
</svg>
