<svg xmlns="http://www.w3.org/2000/svg" width="82.318" height="80.959" viewBox="0 0 82.318 80.959">
  <g id="competence_992616" transform="translate(-2 -2.991)">
    <path id="Trazado_1031259" data-name="Trazado 1031259" d="M37,4H67.183V34.183H37Z" transform="translate(13.019 0.376)" fill="#b6dedc"/>
    <circle id="Elipse_12979" data-name="Elipse 12979" cx="6.86" cy="6.86" r="6.86" transform="translate(14.348 44.163)" fill="#4bad32"/>
    <path id="Trazado_1031260" data-name="Trazado 1031260" d="M33.183,30V42.32a5.516,5.516,0,0,1-5.516,5.516H14A5.516,5.516,0,0,1,8.488,42.32V30H3V45.092a9.6,9.6,0,0,0,9.6,9.6V72.531H29.067V54.7a9.6,9.6,0,0,0,9.6-9.6V30Z" transform="translate(0.372 10.047)" fill="#4bad32"/>
    <circle id="Elipse_12980" data-name="Elipse 12980" cx="6.86" cy="6.86" r="6.86" transform="translate(58.251 44.163)" fill="#cdb9f8"/>
    <path id="Trazado_1031261" data-name="Trazado 1031261" d="M65.183,30V42.32a5.516,5.516,0,0,1-5.516,5.516H46a5.516,5.516,0,0,1-5.516-5.516V30H35V45.092a9.6,9.6,0,0,0,9.6,9.6V72.531H61.067V54.7a9.6,9.6,0,0,0,9.6-9.6V30Z" transform="translate(12.275 10.047)" fill="#cdb9f8"/>
    <circle id="Elipse_12981" data-name="Elipse 12981" cx="15.092" cy="15.092" r="15.092" transform="translate(6.116 4.376)" fill="#ec322c"/>
    <path id="Trazado_1031262" data-name="Trazado 1031262" d="M3,26H38.671v5.488H3Z" transform="translate(0.372 8.559)" fill="#fcd821"/>
    <path id="Trazado_1031263" data-name="Trazado 1031263" d="M35,26H70.671v5.488H35Z" transform="translate(12.275 8.559)" fill="#fcd821"/>
    <path id="Trazado_1031264" data-name="Trazado 1031264" d="M10,16.232A8.232,8.232,0,0,1,18.232,8" transform="translate(2.976 1.863)" fill="#ec322c"/>
    <path id="Trazado_1031265" data-name="Trazado 1031265" d="M39.043,33.187H30.289a16.464,16.464,0,1,0-18.162,0H3.372A1.372,1.372,0,0,0,2,34.559v20.58a10.992,10.992,0,0,0,9.6,10.89V82.578a1.372,1.372,0,0,0,1.372,1.372H29.439a1.372,1.372,0,0,0,1.372-1.372V66.029a10.992,10.992,0,0,0,9.6-10.89V34.559a1.372,1.372,0,0,0-1.372-1.372ZM7.488,19.467a13.72,13.72,0,1,1,13.72,13.72,13.72,13.72,0,0,1-13.72-13.72ZM37.671,55.138a8.241,8.241,0,0,1-8.232,8.232,1.372,1.372,0,0,0-1.372,1.372V81.206H14.348V64.742a1.372,1.372,0,0,0-1.372-1.372,8.241,8.241,0,0,1-8.232-8.232V41.419H7.488V52.366a6.9,6.9,0,0,0,6.888,6.888H28.039a6.9,6.9,0,0,0,6.888-6.888V41.419h2.744ZM21.208,42.791a8.218,8.218,0,0,0-6.118,13.72h-.713a4.149,4.149,0,0,1-4.144-4.144V41.419H32.183V52.366a4.149,4.149,0,0,1-4.144,4.144h-.713a8.218,8.218,0,0,0-6.118-13.72ZM26.7,51.023a5.488,5.488,0,1,1-5.488-5.488A5.488,5.488,0,0,1,26.7,51.023ZM37.671,38.675H4.744V35.931H37.671Z"/>
    <path id="Trazado_1031266" data-name="Trazado 1031266" d="M71.043,33.183H69.671V4.372A1.372,1.372,0,0,0,68.3,3H38.116a1.372,1.372,0,0,0-1.372,1.372V33.183H35.372A1.372,1.372,0,0,0,34,34.555v20.58a10.992,10.992,0,0,0,9.6,10.89V82.574a1.372,1.372,0,0,0,1.372,1.372H61.439a1.372,1.372,0,0,0,1.372-1.372V66.025a10.992,10.992,0,0,0,9.6-10.89V34.555A1.372,1.372,0,0,0,71.043,33.183ZM39.488,5.744H66.927V33.183H39.488ZM69.671,55.135a8.241,8.241,0,0,1-8.232,8.232,1.372,1.372,0,0,0-1.372,1.372V81.2H46.348V64.739a1.372,1.372,0,0,0-1.372-1.372,8.241,8.241,0,0,1-8.232-8.232V41.415h2.744V52.363a6.9,6.9,0,0,0,6.888,6.888H60.039a6.9,6.9,0,0,0,6.888-6.888V41.415h2.744ZM53.208,42.787a8.218,8.218,0,0,0-6.118,13.72h-.713a4.149,4.149,0,0,1-4.144-4.144V41.415H64.183V52.363a4.149,4.149,0,0,1-4.144,4.144h-.713a8.218,8.218,0,0,0-6.118-13.72ZM58.7,51.019a5.488,5.488,0,1,1-5.488-5.488A5.488,5.488,0,0,1,58.7,51.019ZM69.671,38.671H36.744V35.927H69.671Z" transform="translate(11.903 0.004)"/>
    <path id="Trazado_1031267" data-name="Trazado 1031267" d="M11.744,16.6H9A9.615,9.615,0,0,1,18.6,7V9.744A6.868,6.868,0,0,0,11.744,16.6Z" transform="translate(2.604 1.491)"/>
    <path id="Trazado_1031268" data-name="Trazado 1031268" d="M54,8h2.744V27.208H54Z" transform="translate(19.343 1.863)"/>
  </g>
</svg>
