<svg xmlns="http://www.w3.org/2000/svg" width="84.816" height="85.114" viewBox="0 0 84.816 85.114">
  <g id="income_18467423" transform="translate(-6.53 -5.658)">
    <g id="Grupo_1176595" data-name="Grupo 1176595" transform="translate(8.296 6.996)">
      <g id="Grupo_1176588" data-name="Grupo 1176588" transform="translate(26.24 0)">
        <path id="Trazado_1031520" data-name="Trazado 1031520" d="M215.913,13.5h38.394a1.224,1.224,0,0,1,.888.366l7.032,7.032a1.224,1.224,0,0,1,.366.888V74.369a1.256,1.256,0,0,1-1.254,1.25H215.913a1.255,1.255,0,0,1-1.25-1.25V14.751A1.256,1.256,0,0,1,215.913,13.5Z" transform="translate(-207.145 -13.497)" fill="#d1d1d6" fill-rule="evenodd"/>
        <path id="Trazado_1031521" data-name="Trazado 1031521" d="M449.974,14.148a1.219,1.219,0,0,1,.37.255l7.032,7.032a1.2,1.2,0,0,1,.255.366H450.6a.628.628,0,0,1-.629-.625Z" transform="translate(-402.294 -14.037)" fill="#b1b1b5" fill-rule="evenodd"/>
        <path id="Trazado_1031522" data-name="Trazado 1031522" d="M171.871,57.543h38.394a1.192,1.192,0,0,1,.884.366l7.032,7.032a1.208,1.208,0,0,1,.366.884v52.586a1.252,1.252,0,0,1-1.25,1.25H171.871a1.253,1.253,0,0,1-1.254-1.25V58.793A1.253,1.253,0,0,1,171.871,57.543Z" transform="translate(-170.617 -50.025)" fill="#eceff1" fill-rule="evenodd"/>
        <path id="Trazado_1031523" data-name="Trazado 1031523" d="M171.871,57.543H174.8v62.118h-2.932a1.253,1.253,0,0,1-1.254-1.25V58.793A1.253,1.253,0,0,1,171.871,57.543Z" transform="translate(-170.617 -50.025)" fill="#d1d1d6" fill-rule="evenodd"/>
        <path id="Trazado_1031524" data-name="Trazado 1031524" d="M405.953,58.169a1.3,1.3,0,0,1,.366.259l7.032,7.032a1.3,1.3,0,0,1,.259.366h-7.032a.627.627,0,0,1-.625-.625Z" transform="translate(-365.787 -50.545)" fill="#b1b1b5" fill-rule="evenodd"/>
      </g>
      <g id="Grupo_1176589" data-name="Grupo 1176589" transform="translate(0 55.567)">
        <path id="Trazado_1031525" data-name="Trazado 1031525" d="M41.407,347.964l12.305-7.128c2.31-1.339,4.658-2.288,7.2-1.465,2.83.92,7.451,2.889,12.164,3.738a3.419,3.419,0,0,1,2.366,4.094c-.478,1.776-1.977,2.692-4.1,2.366l1.65.263a7.65,7.65,0,0,0,5.274-.92l11.83-6.891c9.2-5.355,10.547,2.885,7.491,4.769L76.116,360.013a7.881,7.881,0,0,1-6.375.9l-15.572-4.172-5.771,3.33a2.331,2.331,0,0,1-3.175-.853l-4.665-8.077A2.333,2.333,0,0,1,41.407,347.964Z" transform="translate(-36.259 -339.064)" fill="#f6dccd" fill-rule="evenodd"/>
        <path id="Trazado_1031526" data-name="Trazado 1031526" d="M184.48,376.811a3.376,3.376,0,0,1-3.816,1.628c-2.548-.675-5.1-1.365-7.647-2.047a1.281,1.281,0,1,1,.664-2.474Z" transform="translate(-145.58 -367.934)" fill="#f1cbbc" fill-rule="evenodd"/>
        <path id="Trazado_1031527" data-name="Trazado 1031527" d="M41.407,347.964l12.305-7.128c2.31-1.339,4.658-2.288,7.2-1.465,1.513.49,3.542,1.283,5.819,2.043L42.891,355.181l-2.333-4.042A2.333,2.333,0,0,1,41.407,347.964Z" transform="translate(-36.259 -339.064)" fill="#f1cbbc" fill-rule="evenodd"/>
        <path id="Trazado_1031528" data-name="Trazado 1031528" d="M23.45,366.14l9.761,17.245a1.749,1.749,0,0,1-.656,2.373l-3.323,1.88a1.749,1.749,0,0,1-2.374-.66L17.1,369.734a1.743,1.743,0,0,1,.656-2.374l3.319-1.88A1.747,1.747,0,0,1,23.45,366.14Z" transform="translate(-16.875 -360.786)" fill="#d1d1d6" fill-rule="evenodd"/>
        <path id="Trazado_1031529" data-name="Trazado 1031529" d="M50.68,377.989l1.725,3.052,1.71,3.019a1.745,1.745,0,0,1-.653,2.37l1.187-.671a1.749,1.749,0,0,0,.656-2.373l-1.713-3.03-3.442-6.082L46.7,368.187l-1.161-2.047a1.749,1.749,0,0,0-2.029-.808l2.006,3.545,3.442,6.082,1.713,3.026Z" transform="translate(-38.968 -360.786)" fill="#b1b1b5" fill-rule="evenodd"/>
      </g>
      <g id="Grupo_1176593" data-name="Grupo 1176593" transform="translate(36.792 25.315)">
        <g id="Grupo_1176590" data-name="Grupo 1176590" transform="translate(0 9.886)">
          <path id="Trazado_1031530" data-name="Trazado 1031530" d="M233.292,230.28a.853.853,0,0,1-.853-.853V220.6a.853.853,0,0,1,.853-.853h4.292a.853.853,0,0,1,.853.853v8.83a.853.853,0,0,1-.853.853Z" transform="translate(-232.439 -219.743)" fill="#fe646f" fill-rule="evenodd"/>
          <path id="Trazado_1031531" data-name="Trazado 1031531" d="M253.633,219.743h1.528a.853.853,0,0,1,.853.853v8.83a.853.853,0,0,1-.853.853h-1.528a.854.854,0,0,0,.853-.853V220.6A.853.853,0,0,0,253.633,219.743Z" transform="translate(-250.016 -219.743)" fill="#fd4755" fill-rule="evenodd"/>
        </g>
        <g id="Grupo_1176591" data-name="Grupo 1176591" transform="translate(10.232 4.942)">
          <path id="Trazado_1031532" data-name="Trazado 1031532" d="M293.242,206.256a.853.853,0,0,1-.853-.853V191.627a.854.854,0,0,1,.853-.853h4.292a.853.853,0,0,1,.853.853V205.4a.853.853,0,0,1-.853.853Z" transform="translate(-292.389 -190.774)" fill="#ffe177" fill-rule="evenodd"/>
          <path id="Trazado_1031533" data-name="Trazado 1031533" d="M313.583,190.774h1.528a.853.853,0,0,1,.853.853V205.4a.853.853,0,0,1-.853.853h-1.528a.853.853,0,0,0,.853-.853V191.627a.853.853,0,0,0-.853-.853Z" transform="translate(-309.966 -190.774)" fill="#ffd064" fill-rule="evenodd"/>
        </g>
        <g id="Grupo_1176592" data-name="Grupo 1176592" transform="translate(20.464)">
          <path id="Trazado_1031534" data-name="Trazado 1031534" d="M353.193,182.244a.853.853,0,0,1-.853-.853V162.674a.853.853,0,0,1,.853-.853h4.295a.853.853,0,0,1,.853.853v18.716a.854.854,0,0,1-.853.853Z" transform="translate(-352.34 -161.821)" fill="#6cf5c2" fill-rule="evenodd"/>
          <path id="Trazado_1031535" data-name="Trazado 1031535" d="M373.549,161.821h1.528a.853.853,0,0,1,.853.853v18.716a.853.853,0,0,1-.853.853h-1.528a.853.853,0,0,0,.853-.853V162.674A.853.853,0,0,0,373.549,161.821Z" transform="translate(-369.929 -161.821)" fill="#00e499" fill-rule="evenodd"/>
        </g>
      </g>
      <g id="Grupo_1176594" data-name="Grupo 1176594" transform="translate(15.981 29.927)">
        <path id="Trazado_1031536" data-name="Trazado 1031536" d="M121.775,211.371a11.265,11.265,0,1,1,11.266-11.265A11.286,11.286,0,0,1,121.775,211.371Z" transform="translate(-110.51 -188.842)" fill="#ffc338" fill-rule="evenodd"/>
        <path id="Trazado_1031537" data-name="Trazado 1031537" d="M183.172,200.107a11.266,11.266,0,0,0-10.592-11.246c.221-.012.446-.019.671-.019a11.265,11.265,0,1,1,0,22.529c-.225,0-.45-.007-.671-.019A11.266,11.266,0,0,0,183.172,200.107Z" transform="translate(-161.986 -188.842)" fill="#f5b829" fill-rule="evenodd"/>
      </g>
    </g>
    <path id="Trazado_1031538" data-name="Trazado 1031538" d="M24.615,82.729l.856,1.513,0,0A3.124,3.124,0,0,1,24.3,88.484l-3.329,1.887,0,0a3.124,3.124,0,0,1-4.239-1.179L6.933,71.9a3.119,3.119,0,0,1,1.173-4.243l3.333-1.887h0a3.127,3.127,0,0,1,4.24,1.174l0,0,.677,1.2,8.556-4.954c2.668-1.543,5.4-2.538,8.328-1.586,2.8.907,7.363,2.863,12.024,3.706a1.354,1.354,0,0,1,.178.045,4.787,4.787,0,0,1,3.268,5.764,5.62,5.62,0,0,1-.227.675,6.391,6.391,0,0,0,1.059-.5l11.87-6.913c4.383-2.553,7.308-2.246,8.962-1.137A5.11,5.11,0,0,1,70.33,71.5L48.791,84.765a9.221,9.221,0,0,1-7.464,1.062h0L26.247,81.786ZM17.7,70.516l5.566,9.836,2.1-1.213A1.365,1.365,0,0,1,26.408,79l15.623,4.187a6.579,6.579,0,0,0,5.326-.748h0L68.9,69.179a2.086,2.086,0,0,0,.826-1.756c.055-2.079-2.036-3.538-6.935-.684l-11.87,6.913a9.018,9.018,0,0,1-6.2,1.093h0L43.247,74.5h0l-.055-.01h0c-2.682-.551-5.17-1.361-7.931-2.1a1.365,1.365,0,0,1,.709-2.637c2.686.722,5.108,1.514,7.715,2.053a2,2,0,0,0,2.393-1.4h0a2.06,2.06,0,0,0-1.4-2.43C39.917,67.1,35.258,65.124,32.4,64.2h0c-2.166-.7-4.145.212-6.117,1.352Zm-4.4-2.225v0a.387.387,0,0,0-.522-.145L9.451,70.03h0a.381.381,0,0,0-.141.52h0l9.79,17.3h0a.385.385,0,0,0,.523.143l3.326-1.885h0a.385.385,0,0,0,.143-.523Zm-1.088,1.727a1.382,1.382,0,1,1-1.169,1.565,1.381,1.381,0,0,1,1.169-1.565ZM73.245,15.951H35.58v17.4a1.365,1.365,0,1,1-2.731,0V14.585a1.365,1.365,0,0,1,1.365-1.365h6.2v-6.2a1.365,1.365,0,0,1,1.365-1.365h40.4a1.365,1.365,0,0,1,.966.4l7.808,7.815a1.365,1.365,0,0,1,.4.965V69.5a1.365,1.365,0,0,1-1.365,1.365h-6.2v6.19a1.365,1.365,0,0,1-1.365,1.365H65.879a1.365,1.365,0,0,1,0-2.731H81.053V23.759H74.61a1.365,1.365,0,0,1-1.365-1.365Zm-30.1-2.731H74.61a1.365,1.365,0,0,1,.966.4l7.808,7.808a1.365,1.365,0,0,1,.4.966V68.138h4.831V16.2H82.172a1.365,1.365,0,0,1-1.365-1.365V8.389H43.142Zm35.98,7.808-3.147-3.147v3.147Zm7.564-7.556-3.149-3.151v3.151ZM47.124,43.59A12.529,12.529,0,1,1,45.6,40.859h5.478a1.365,1.365,0,0,1,1.365,1.365V52.762a1.365,1.365,0,0,1-2.731,0V43.59ZM35.539,57.961a9.745,9.745,0,1,0-9.745-9.745A9.766,9.766,0,0,0,35.539,57.961ZM34.174,41.576v-.393a1.365,1.365,0,0,1,2.731,0v.378a4.639,4.639,0,0,1,3.164,2.748,1.365,1.365,0,1,1-2.517,1.058,2.2,2.2,0,0,0-2.9-1.079,1.3,1.3,0,0,0-.944,1.245,1.063,1.063,0,0,0,.707.9,4.946,4.946,0,0,0,1.353.391c2.095.343,4.366,1.331,4.67,3.821v0c.287,2.374-1.537,3.8-3.536,4.242v.353a1.365,1.365,0,1,1-2.731,0v-.373a4.6,4.6,0,0,1-3.523-3.341,1.365,1.365,0,0,1,2.65-.66,2.181,2.181,0,0,0,2.351,1.435,3.454,3.454,0,0,0,1.407-.32.987.987,0,0,0,.671-1.009,1.336,1.336,0,0,0-.9-1.047,6.022,6.022,0,0,0-1.5-.409h0c-2.06-.339-4.226-1.408-4.346-3.856h0a3.943,3.943,0,0,1,2.671-3.918,4.984,4.984,0,0,1,.521-.172ZM66.645,26.537A67.083,67.083,0,0,1,45.888,38.032a1.365,1.365,0,1,1-.9-2.579,64.459,64.459,0,0,0,19.641-10.8l-.588.032a1.365,1.365,0,0,1-.15-2.727l4.561-.251a1.365,1.365,0,0,1,1.426,1.56l-.658,4.524a1.365,1.365,0,0,1-2.7-.393ZM49.414,60.506a1.365,1.365,0,1,1,0-2.731H72.587a1.365,1.365,0,1,1,0,2.731Zm0,5.361a1.365,1.365,0,1,1,0-2.731H55.74a1.365,1.365,0,1,1,0,2.731Zm17.5-13.106a1.365,1.365,0,0,1-2.731,0V32.339a1.365,1.365,0,0,1,1.365-1.365h6a1.365,1.365,0,0,1,1.365,1.365V52.762a1.365,1.365,0,0,1-2.731,0V33.7H66.914Zm-10.232,0a1.365,1.365,0,0,1-2.731,0V37.28a1.365,1.365,0,0,1,1.365-1.365h6A1.365,1.365,0,0,1,62.68,37.28V52.762a1.365,1.365,0,0,1-2.731,0V38.646H56.681Z" transform="translate(0)" fill-rule="evenodd"/>
  </g>
</svg>
