<svg xmlns="http://www.w3.org/2000/svg" width="83.993" height="85.113" viewBox="0 0 83.993 85.113">
  <g id="order_8728986" transform="translate(-1.422 -1.028)">
    <path id="Trazado_1031163" data-name="Trazado 1031163" d="M82.3,67.228H3.793A1.373,1.373,0,0,1,2.5,65.387L8.71,48H77.38l6.208,17.387a1.373,1.373,0,0,1-1.291,1.84Z" transform="translate(0.373 17.54)" fill="#556a8c"/>
    <path id="Trazado_1031164" data-name="Trazado 1031164" d="M7,15H75.67V60.322H7Z" transform="translate(2.083 5.217)" fill="#ffd799"/>
    <path id="Trazado_1031165" data-name="Trazado 1031165" d="M44.747,17.107V10.24H42L47.494,2l5.494,8.24H50.24v6.867Z" transform="translate(15.152 0.363)" fill="#36b385"/>
    <path id="Trazado_1031166" data-name="Trazado 1031166" d="M30.747,17.107V10.24H28L33.494,2l5.494,8.24H36.24v6.867Z" transform="translate(9.925 0.363)" fill="#36b385"/>
    <path id="Trazado_1031167" data-name="Trazado 1031167" d="M16.747,17.107V10.24H14L19.494,2l5.494,8.24H22.24v6.867Z" transform="translate(4.697 0.363)" fill="#36b385"/>
    <circle id="Elipse_12977" data-name="Elipse 12977" cx="10.987" cy="10.987" r="10.987" transform="translate(14.577 25.711)" fill="#f2f2f2"/>
    <circle id="Elipse_12978" data-name="Elipse 12978" cx="3.434" cy="3.434" r="3.434" transform="translate(22.13 31.122)" fill="#eeceb2"/>
    <path id="Trazado_1031168" data-name="Trazado 1031168" d="M25.987,35.787a10.919,10.919,0,0,1-10.987,0v-4.12a2.747,2.747,0,0,1,2.747-2.747H23.24a2.747,2.747,0,0,1,2.747,2.747Z" transform="translate(5.07 10.415)" fill="#2c96de"/>
    <path id="Trazado_1031169" data-name="Trazado 1031169" d="M33,32H46.734V45.734H33Z" transform="translate(11.792 11.565)" fill="#ffb866"/>
    <path id="Trazado_1031170" data-name="Trazado 1031170" d="M43,32H56.734V45.734H43Z" transform="translate(15.526 11.565)" fill="#ffb866"/>
    <path id="Trazado_1031171" data-name="Trazado 1031171" d="M43,22H56.734V35.734H43Z" transform="translate(15.526 7.831)" fill="#ffb866"/>
    <path id="Trazado_1031172" data-name="Trazado 1031172" d="M33,22H46.734V35.734H33Z" transform="translate(11.792 7.831)" fill="#ffb866"/>
    <g id="Grupo_1176534" data-name="Grupo 1176534" transform="translate(48.912 29.831)">
      <path id="Trazado_1031173" data-name="Trazado 1031173" d="M36,32h5.494v5.494H36Z" transform="translate(-36 -18.266)" fill="#ffd799"/>
      <path id="Trazado_1031174" data-name="Trazado 1031174" d="M46,32h5.494v5.494H46Z" transform="translate(-32.266 -18.266)" fill="#ffd799"/>
      <path id="Trazado_1031175" data-name="Trazado 1031175" d="M46,22h5.494v5.494H46Z" transform="translate(-32.266 -22)" fill="#ffd799"/>
      <path id="Trazado_1031176" data-name="Trazado 1031176" d="M36,22h5.494v5.494H36Z" transform="translate(-36 -22)" fill="#ffd799"/>
    </g>
    <path id="Trazado_1031177" data-name="Trazado 1031177" d="M79.127,60.462V16.747A2.747,2.747,0,0,0,76.38,14H18.7a1.373,1.373,0,1,0,0,2.747H76.38V59.322H10.456V16.747H13.2A1.373,1.373,0,1,0,13.2,14H10.456A2.747,2.747,0,0,0,7.71,16.747V60.462L1.584,77.63A2.734,2.734,0,0,0,4.166,81.3H73.633a1.373,1.373,0,0,0,0-2.747H4.166l5.878-16.481H76.792L82.67,78.55H79.127a1.373,1.373,0,0,0,0,2.747H82.67a2.734,2.734,0,0,0,2.582-3.667Z" transform="translate(0 4.844)"/>
    <path id="Trazado_1031178" data-name="Trazado 1031178" d="M25.373,57a1.373,1.373,0,1,0,0,2.747H44.6A1.373,1.373,0,0,0,44.6,57Z" transform="translate(8.431 20.9)"/>
    <path id="Trazado_1031179" data-name="Trazado 1031179" d="M49.237,10.6V16.1a1.373,1.373,0,1,0,2.747,0v-4.12h1.373a1.356,1.356,0,0,0,1.14-2.1L49,1.635a1.373,1.373,0,0,0-2.28,0L41.23,9.876a1.356,1.356,0,0,0,1.14,2.1h1.373V16.1a1.373,1.373,0,1,0,2.747,0V10.6A1.373,1.373,0,0,0,45.117,9.23h-.179l2.925-4.395L50.789,9.23H50.61A1.373,1.373,0,0,0,49.237,10.6Z" transform="translate(14.782)"/>
    <path id="Trazado_1031180" data-name="Trazado 1031180" d="M35.237,10.6V16.1a1.373,1.373,0,1,0,2.747,0v-4.12h1.373a1.356,1.356,0,0,0,1.14-2.1L35,1.635a1.373,1.373,0,0,0-2.28,0L27.23,9.876a1.356,1.356,0,0,0,1.14,2.1h1.373V16.1a1.373,1.373,0,1,0,2.747,0V10.6A1.373,1.373,0,0,0,31.117,9.23h-.179l2.925-4.395L36.789,9.23H36.61A1.373,1.373,0,0,0,35.237,10.6Z" transform="translate(9.555)"/>
    <path id="Trazado_1031181" data-name="Trazado 1031181" d="M21.237,10.6V16.1a1.373,1.373,0,1,0,2.747,0v-4.12h1.373a1.356,1.356,0,0,0,1.14-2.1L21,1.635a1.373,1.373,0,0,0-2.28,0L13.23,9.876a1.356,1.356,0,0,0,1.14,2.1h1.373V16.1a1.373,1.373,0,1,0,2.747,0V10.6A1.373,1.373,0,0,0,17.117,9.23h-.179l2.925-4.395L22.789,9.23H22.61A1.373,1.373,0,0,0,21.237,10.6Z" transform="translate(4.327)"/>
    <path id="Trazado_1031182" data-name="Trazado 1031182" d="M22.361,18A12.361,12.361,0,1,0,34.721,30.361,12.361,12.361,0,0,0,22.361,18ZM18.24,39.027V35.772A1.373,1.373,0,0,1,19.614,34.4h5.494a1.373,1.373,0,0,1,1.373,1.373v3.255A9.435,9.435,0,0,1,18.24,39.027ZM20.3,28.218a2.06,2.06,0,1,1,2.06,2.06A2.06,2.06,0,0,1,20.3,28.218Zm8.927,8.858v-1.3a4.12,4.12,0,0,0-3.585-4.12,4.807,4.807,0,1,0-6.565,0,4.12,4.12,0,0,0-3.585,4.12v1.3a9.614,9.614,0,1,1,13.734,0Z" transform="translate(3.203 6.338)"/>
    <path id="Trazado_1031183" data-name="Trazado 1031183" d="M60.842,51.215a1.373,1.373,0,0,0,1.373-1.373V22.373A1.373,1.373,0,0,0,60.842,21H33.373A1.373,1.373,0,0,0,32,22.373V49.842a1.373,1.373,0,0,0,1.373,1.373ZM34.747,37.481H36.12V41.6a1.373,1.373,0,0,0,1.373,1.373h5.494A1.373,1.373,0,0,0,44.361,41.6v-4.12h1.373V48.468H34.747Zm4.12,0h2.747v2.747H38.867Zm20.6,10.987H48.481V37.481h1.373V41.6a1.373,1.373,0,0,0,1.373,1.373h5.494A1.373,1.373,0,0,0,58.095,41.6v-4.12h1.373ZM52.6,37.481h2.747v2.747H52.6Zm6.867-2.747H48.481V23.747h1.373v4.12a1.373,1.373,0,0,0,1.373,1.373h5.494a1.373,1.373,0,0,0,1.373-1.373v-4.12h1.373ZM52.6,23.747h2.747v2.747H52.6Zm-13.734,0h2.747v2.747H38.867Zm-4.12,0H36.12v4.12a1.373,1.373,0,0,0,1.373,1.373h5.494a1.373,1.373,0,0,0,1.373-1.373v-4.12h1.373V34.734H34.747Z" transform="translate(11.418 7.458)"/>
    <path id="Trazado_1031184" data-name="Trazado 1031184" d="M29.854,38H13.373a1.373,1.373,0,1,0,0,2.747H29.854a1.373,1.373,0,1,0,0-2.747Z" transform="translate(3.95 13.806)"/>
    <path id="Trazado_1031185" data-name="Trazado 1031185" d="M29.854,42H13.373a1.373,1.373,0,1,0,0,2.747H29.854a1.373,1.373,0,0,0,0-2.747Z" transform="translate(3.95 15.299)"/>
  </g>
</svg>
