<svg xmlns="http://www.w3.org/2000/svg" width="818.629" height="489.278" viewBox="0 0 818.629 489.278">
  <g id="Grupo_1176960" data-name="Grupo 1176960" transform="translate(-390.686 -7338.718)">
    <rect id="Rectángulo_404800" data-name="Rectángulo 404800" width="254.314" height="68.282" rx="5" transform="translate(390.686 7674.865)" fill="#cdb9f8"/>
    <rect id="Rectángulo_404801" data-name="Rectángulo 404801" width="254.314" height="68.282" rx="5" transform="translate(955 7674.865)" fill="#cdb9f8"/>
    <rect id="Rectángulo_404798" data-name="Rectángulo 404798" width="233.535" height="68.282" rx="5" transform="translate(682.705 7338.718)" fill="#cdb9f8"/>
    <rect id="Rectángulo_404799" data-name="Rectángulo 404799" width="190" height="68.282" rx="5" transform="translate(705 7506.635)" fill="#cdb9f8"/>
    <g id="Grupo_1176959" data-name="Grupo 1176959">
      <path id="Trazado_1034175" data-name="Trazado 1034175" d="M70.924,19h-6.68V6.4h6.4V7.732H65.721v4.192h4.553v1.327H65.721v4.412h5.2Zm1.688-.325V17.128A4.266,4.266,0,0,0,75.2,18q1.9,0,1.9-1.266a1.1,1.1,0,0,0-.163-.611,1.62,1.62,0,0,0-.439-.444,3.383,3.383,0,0,0-.65-.347q-.374-.154-.8-.321A10.357,10.357,0,0,1,74,14.531a3.173,3.173,0,0,1-.756-.545,2.028,2.028,0,0,1-.457-.69,2.441,2.441,0,0,1-.154-.905,2.15,2.15,0,0,1,.29-1.121,2.572,2.572,0,0,1,.773-.817,3.607,3.607,0,0,1,1.1-.5,4.893,4.893,0,0,1,1.279-.167,5.164,5.164,0,0,1,2.092.4v1.459A4.077,4.077,0,0,0,75.881,11a2.671,2.671,0,0,0-.729.092,1.786,1.786,0,0,0-.558.259,1.2,1.2,0,0,0-.36.4,1.053,1.053,0,0,0-.127.514,1.233,1.233,0,0,0,.127.589,1.3,1.3,0,0,0,.374.422,2.855,2.855,0,0,0,.6.334q.352.149.8.325a11.131,11.131,0,0,1,1.072.47,3.678,3.678,0,0,1,.809.545,2.129,2.129,0,0,1,.514.7,2.254,2.254,0,0,1,.18.94,2.217,2.217,0,0,1-.294,1.16,2.523,2.523,0,0,1-.787.817,3.6,3.6,0,0,1-1.134.483,5.6,5.6,0,0,1-1.345.158A5.106,5.106,0,0,1,72.612,18.675Zm12.357.237a2.779,2.779,0,0,1-1.345.281q-2.364,0-2.364-2.637V11.23H79.713V10H81.26V7.8L82.7,7.337V10h2.268v1.23H82.7V16.3a2.1,2.1,0,0,0,.308,1.292,1.228,1.228,0,0,0,1.02.387,1.515,1.515,0,0,0,.94-.3Zm6.618-7.453a1.763,1.763,0,0,0-1.09-.29,1.839,1.839,0,0,0-1.542.87,4.023,4.023,0,0,0-.62,2.373V19H86.894V10h1.441v1.854h.035a3.143,3.143,0,0,1,.94-1.481,2.144,2.144,0,0,1,1.415-.532,2.353,2.353,0,0,1,.861.123ZM99.594,19H98.153V17.594h-.035a3.018,3.018,0,0,1-2.769,1.617,2.959,2.959,0,0,1-2.1-.712,2.466,2.466,0,0,1-.76-1.89q0-2.522,2.971-2.936l2.7-.378Q98.153,11,96.3,11a4.431,4.431,0,0,0-2.936,1.107V10.633a5.577,5.577,0,0,1,3.059-.844q3.173,0,3.173,3.357Zm-1.441-4.553-2.171.3a3.525,3.525,0,0,0-1.512.5,1.432,1.432,0,0,0-.51,1.261,1.374,1.374,0,0,0,.47,1.077A1.817,1.817,0,0,0,95.683,18a2.314,2.314,0,0,0,1.771-.751,2.685,2.685,0,0,0,.7-1.9Zm8.332,4.465a2.779,2.779,0,0,1-1.345.281q-2.364,0-2.364-2.637V11.23h-1.547V10h1.547V7.8l1.441-.466V10h2.268v1.23h-2.268V16.3a2.1,2.1,0,0,0,.308,1.292,1.228,1.228,0,0,0,1.02.387,1.515,1.515,0,0,0,.94-.3Zm9.158-4.052h-6.354a3.366,3.366,0,0,0,.809,2.32,2.788,2.788,0,0,0,2.127.817,4.422,4.422,0,0,0,2.795-1V18.35a5.224,5.224,0,0,1-3.138.861,3.8,3.8,0,0,1-3-1.226,5.018,5.018,0,0,1-1.09-3.45,4.921,4.921,0,0,1,1.191-3.423,3.819,3.819,0,0,1,2.958-1.323,3.384,3.384,0,0,1,2.733,1.143,4.764,4.764,0,0,1,.967,3.173Zm-1.477-1.222a2.933,2.933,0,0,0-.6-1.942A2.051,2.051,0,0,0,111.917,11a2.328,2.328,0,0,0-1.731.729,3.31,3.31,0,0,0-.879,1.907ZM125.5,18.279q0,4.957-4.746,4.957a6.372,6.372,0,0,1-2.918-.633V21.162a5.993,5.993,0,0,0,2.9.844q3.322,0,3.322-3.533v-.984h-.035a3.641,3.641,0,0,1-5.8.523,4.8,4.8,0,0,1-1.024-3.221,5.6,5.6,0,0,1,1.1-3.647,3.685,3.685,0,0,1,3.019-1.354,2.934,2.934,0,0,1,2.7,1.459h.035V10H125.5Zm-1.441-3.349V13.6a2.575,2.575,0,0,0-.725-1.837A2.387,2.387,0,0,0,121.532,11a2.5,2.5,0,0,0-2.092.971,4.335,4.335,0,0,0-.756,2.72,3.721,3.721,0,0,0,.725,2.4,2.343,2.343,0,0,0,1.92.9,2.509,2.509,0,0,0,1.973-.861A3.21,3.21,0,0,0,124.063,14.931Zm5.1-7.216a.913.913,0,0,1-.659-.264.89.89,0,0,1-.272-.668.923.923,0,0,1,.932-.94.931.931,0,0,1,.672.268.939.939,0,0,1,0,1.332A.923.923,0,0,1,129.161,7.715Zm.7,11.285h-1.441V10h1.441Zm9.36,0h-1.441V17.594h-.035a3.018,3.018,0,0,1-2.769,1.617,2.959,2.959,0,0,1-2.1-.712,2.466,2.466,0,0,1-.76-1.89q0-2.522,2.971-2.936l2.7-.378q0-2.294-1.854-2.294a4.431,4.431,0,0,0-2.936,1.107V10.633a5.577,5.577,0,0,1,3.059-.844q3.173,0,3.173,3.357Zm-1.441-4.553-2.171.3a3.525,3.525,0,0,0-1.512.5,1.432,1.432,0,0,0-.51,1.261,1.374,1.374,0,0,0,.47,1.077,1.817,1.817,0,0,0,1.252.417,2.314,2.314,0,0,0,1.771-.751,2.685,2.685,0,0,0,.7-1.9Z" transform="translate(699.212 7360.859)" fill="#12263f"/>
      <path id="Trazado_1034174" data-name="Trazado 1034174" d="M62.475,18.473a7.392,7.392,0,0,1-3.48.738,5.613,5.613,0,0,1-4.307-1.731,6.389,6.389,0,0,1-1.617-4.544A6.7,6.7,0,0,1,54.89,8.049,6.175,6.175,0,0,1,59.5,6.186a7.4,7.4,0,0,1,2.971.519V8.277a6.024,6.024,0,0,0-2.988-.756,4.585,4.585,0,0,0-3.52,1.45,5.463,5.463,0,0,0-1.349,3.876,5.2,5.2,0,0,0,1.261,3.669,4.292,4.292,0,0,0,3.309,1.367,6.208,6.208,0,0,0,3.287-.844ZM66.29,19H64.848V5.676H66.29ZM69.946,7.715a.913.913,0,0,1-.659-.264.89.89,0,0,1-.272-.668.923.923,0,0,1,.932-.94.931.931,0,0,1,.672.268.939.939,0,0,1,0,1.332A.923.923,0,0,1,69.946,7.715ZM70.649,19H69.208V10h1.441ZM80.8,14.86H74.446a3.366,3.366,0,0,0,.809,2.32A2.788,2.788,0,0,0,77.381,18a4.422,4.422,0,0,0,2.795-1V18.35a5.224,5.224,0,0,1-3.138.861,3.8,3.8,0,0,1-3-1.226,5.018,5.018,0,0,1-1.09-3.45,4.921,4.921,0,0,1,1.191-3.423A3.819,3.819,0,0,1,77.1,9.789a3.384,3.384,0,0,1,2.733,1.143A4.764,4.764,0,0,1,80.8,14.1Zm-1.477-1.222a2.933,2.933,0,0,0-.6-1.942A2.051,2.051,0,0,0,77.074,11a2.328,2.328,0,0,0-1.731.729,3.31,3.31,0,0,0-.879,1.907ZM90.451,19H89.009V13.867Q89.009,11,86.917,11a2.269,2.269,0,0,0-1.789.813,3.013,3.013,0,0,0-.708,2.052V19H82.98V10h1.441v1.494h.035A3.248,3.248,0,0,1,87.41,9.789a2.753,2.753,0,0,1,2.259.954,4.248,4.248,0,0,1,.782,2.755Zm6.891-.088A2.779,2.779,0,0,1,96,19.193q-2.364,0-2.364-2.637V11.23H92.085V10h1.547V7.8l1.441-.466V10h2.268v1.23H95.074V16.3a2.1,2.1,0,0,0,.308,1.292,1.228,1.228,0,0,0,1.02.387,1.515,1.515,0,0,0,.94-.3ZM106.5,14.86h-6.354a3.366,3.366,0,0,0,.809,2.32,2.788,2.788,0,0,0,2.127.817,4.422,4.422,0,0,0,2.795-1V18.35a5.224,5.224,0,0,1-3.138.861,3.8,3.8,0,0,1-3-1.226,5.018,5.018,0,0,1-1.09-3.45,4.921,4.921,0,0,1,1.191-3.423A3.819,3.819,0,0,1,102.8,9.789a3.384,3.384,0,0,1,2.733,1.143A4.764,4.764,0,0,1,106.5,14.1Zm-1.477-1.222a2.933,2.933,0,0,0-.6-1.942A2.051,2.051,0,0,0,102.773,11a2.328,2.328,0,0,0-1.731.729,3.31,3.31,0,0,0-.879,1.907Z" transform="translate(721.507 7528.775)" fill="#12263f"/>
      <path id="Trazado_1034173" data-name="Trazado 1034173" d="M67.877,18.49V16.75a3.38,3.38,0,0,0,.716.475,5.8,5.8,0,0,0,.879.356,7,7,0,0,0,.927.224,5.17,5.17,0,0,0,.861.079,3.374,3.374,0,0,0,2.035-.505,1.9,1.9,0,0,0,.448-2.342,2.525,2.525,0,0,0-.62-.69,6.148,6.148,0,0,0-.936-.6q-.541-.286-1.165-.6-.659-.334-1.23-.677a5.332,5.332,0,0,1-.993-.756,3.153,3.153,0,0,1-.664-.936A2.9,2.9,0,0,1,67.9,9.552a2.883,2.883,0,0,1,.378-1.5A3.242,3.242,0,0,1,69.266,7a4.5,4.5,0,0,1,1.4-.615,6.419,6.419,0,0,1,1.6-.2,6.147,6.147,0,0,1,2.716.448V8.295a4.923,4.923,0,0,0-2.865-.773,4.712,4.712,0,0,0-.967.1,2.731,2.731,0,0,0-.861.33,1.908,1.908,0,0,0-.615.589,1.563,1.563,0,0,0-.237.879,1.809,1.809,0,0,0,.18.835,2.046,2.046,0,0,0,.532.642,5.3,5.3,0,0,0,.857.563q.505.272,1.165.6.677.334,1.283.7a5.865,5.865,0,0,1,1.063.817,3.632,3.632,0,0,1,.725.993,2.792,2.792,0,0,1,.268,1.248A3.165,3.165,0,0,1,75.15,17.4a2.993,2.993,0,0,1-.984,1.05,4.3,4.3,0,0,1-1.428.584,7.822,7.822,0,0,1-1.705.18,6.948,6.948,0,0,1-.738-.048q-.439-.048-.9-.141a7.315,7.315,0,0,1-.866-.229A2.694,2.694,0,0,1,67.877,18.49Zm10.7-10.775a.913.913,0,0,1-.659-.264.89.89,0,0,1-.272-.668.923.923,0,0,1,.932-.94.931.931,0,0,1,.672.268.939.939,0,0,1,0,1.332A.923.923,0,0,1,78.574,7.715ZM79.277,19H77.835V10h1.441Zm2.373-.325V17.128a4.266,4.266,0,0,0,2.593.87q1.9,0,1.9-1.266a1.1,1.1,0,0,0-.163-.611,1.62,1.62,0,0,0-.439-.444,3.383,3.383,0,0,0-.65-.347q-.374-.154-.8-.321a10.357,10.357,0,0,1-1.05-.479,3.173,3.173,0,0,1-.756-.545,2.028,2.028,0,0,1-.457-.69,2.441,2.441,0,0,1-.154-.905,2.15,2.15,0,0,1,.29-1.121,2.572,2.572,0,0,1,.773-.817,3.607,3.607,0,0,1,1.1-.5,4.893,4.893,0,0,1,1.279-.167,5.164,5.164,0,0,1,2.092.4v1.459A4.077,4.077,0,0,0,84.919,11a2.671,2.671,0,0,0-.729.092,1.786,1.786,0,0,0-.558.259,1.2,1.2,0,0,0-.36.4,1.053,1.053,0,0,0-.127.514,1.233,1.233,0,0,0,.127.589,1.3,1.3,0,0,0,.374.422,2.855,2.855,0,0,0,.6.334q.352.149.8.325a11.131,11.131,0,0,1,1.072.47,3.678,3.678,0,0,1,.809.545,2.129,2.129,0,0,1,.514.7,2.254,2.254,0,0,1,.18.94,2.217,2.217,0,0,1-.294,1.16,2.523,2.523,0,0,1-.787.817,3.6,3.6,0,0,1-1.134.483,5.6,5.6,0,0,1-1.345.158A5.106,5.106,0,0,1,81.65,18.675Zm12.357.237a2.779,2.779,0,0,1-1.345.281q-2.364,0-2.364-2.637V11.23H88.751V10H90.3V7.8l1.441-.466V10h2.268v1.23H91.74V16.3a2.1,2.1,0,0,0,.308,1.292,1.228,1.228,0,0,0,1.02.387,1.515,1.515,0,0,0,.94-.3Zm9.158-4.052H96.811a3.366,3.366,0,0,0,.809,2.32A2.788,2.788,0,0,0,99.747,18a4.422,4.422,0,0,0,2.795-1V18.35a5.224,5.224,0,0,1-3.138.861,3.8,3.8,0,0,1-3-1.226,5.018,5.018,0,0,1-1.09-3.45,4.921,4.921,0,0,1,1.191-3.423,3.819,3.819,0,0,1,2.958-1.323,3.384,3.384,0,0,1,2.733,1.143,4.764,4.764,0,0,1,.967,3.173Zm-1.477-1.222a2.933,2.933,0,0,0-.6-1.942A2.051,2.051,0,0,0,99.439,11a2.328,2.328,0,0,0-1.731.729,3.31,3.31,0,0,0-.879,1.907ZM118.125,19h-1.441V13.832a3.9,3.9,0,0,0-.461-2.162A1.75,1.75,0,0,0,114.67,11a1.921,1.921,0,0,0-1.569.844,3.228,3.228,0,0,0-.646,2.021V19h-1.441V13.656q0-2.654-2.048-2.654a1.9,1.9,0,0,0-1.564.8,3.288,3.288,0,0,0-.615,2.07V19h-1.441V10h1.441v1.424h.035a3.058,3.058,0,0,1,2.795-1.635,2.6,2.6,0,0,1,2.549,1.863,3.212,3.212,0,0,1,2.988-1.863q2.971,0,2.971,3.665Zm9.167,0H125.85V17.594h-.035a3.018,3.018,0,0,1-2.769,1.617,2.959,2.959,0,0,1-2.1-.712,2.466,2.466,0,0,1-.76-1.89q0-2.522,2.971-2.936l2.7-.378Q125.85,11,124,11a4.431,4.431,0,0,0-2.936,1.107V10.633a5.577,5.577,0,0,1,3.059-.844q3.173,0,3.173,3.357Zm-1.441-4.553-2.171.3a3.525,3.525,0,0,0-1.512.5,1.432,1.432,0,0,0-.51,1.261,1.374,1.374,0,0,0,.47,1.077A1.817,1.817,0,0,0,123.38,18a2.314,2.314,0,0,0,1.771-.751,2.685,2.685,0,0,0,.7-1.9Zm3.612,4.228V17.128a4.266,4.266,0,0,0,2.593.87q1.9,0,1.9-1.266a1.1,1.1,0,0,0-.163-.611,1.62,1.62,0,0,0-.439-.444,3.383,3.383,0,0,0-.65-.347q-.374-.154-.8-.321a10.357,10.357,0,0,1-1.05-.479,3.173,3.173,0,0,1-.756-.545,2.028,2.028,0,0,1-.457-.69,2.441,2.441,0,0,1-.154-.905,2.15,2.15,0,0,1,.29-1.121,2.572,2.572,0,0,1,.773-.817,3.607,3.607,0,0,1,1.1-.5,4.893,4.893,0,0,1,1.279-.167,5.164,5.164,0,0,1,2.092.4v1.459a4.077,4.077,0,0,0-2.285-.65,2.671,2.671,0,0,0-.729.092,1.786,1.786,0,0,0-.558.259,1.2,1.2,0,0,0-.36.4,1.053,1.053,0,0,0-.127.514,1.233,1.233,0,0,0,.127.589,1.3,1.3,0,0,0,.374.422,2.855,2.855,0,0,0,.6.334q.352.149.8.325a11.131,11.131,0,0,1,1.072.47,3.678,3.678,0,0,1,.809.545,2.129,2.129,0,0,1,.514.7,2.254,2.254,0,0,1,.18.94,2.217,2.217,0,0,1-.294,1.16,2.523,2.523,0,0,1-.787.817,3.6,3.6,0,0,1-1.134.483,5.6,5.6,0,0,1-1.345.158A5.106,5.106,0,0,1,129.462,18.675Z" transform="translate(416.686 7698.62)" fill="#12263f"/>
      <path id="Trazado_1034172" data-name="Trazado 1034172" d="M69.54,14.236V19H68.064V6.4h3.463a4.571,4.571,0,0,1,3.133.984,3.515,3.515,0,0,1,1.112,2.777,3.82,3.82,0,0,1-1.235,2.936A4.718,4.718,0,0,1,71.2,14.236Zm0-6.5V12.9h1.547a3.458,3.458,0,0,0,2.333-.7,2.474,2.474,0,0,0,.8-1.973q0-2.5-2.953-2.5ZM84.517,14.86H78.162a3.366,3.366,0,0,0,.809,2.32A2.788,2.788,0,0,0,81.1,18a4.422,4.422,0,0,0,2.795-1V18.35a5.224,5.224,0,0,1-3.138.861,3.8,3.8,0,0,1-3-1.226,5.018,5.018,0,0,1-1.09-3.45,4.921,4.921,0,0,1,1.191-3.423,3.819,3.819,0,0,1,2.958-1.323,3.384,3.384,0,0,1,2.733,1.143,4.764,4.764,0,0,1,.967,3.173ZM83.04,13.639a2.933,2.933,0,0,0-.6-1.942A2.051,2.051,0,0,0,80.79,11a2.328,2.328,0,0,0-1.731.729,3.31,3.31,0,0,0-.879,1.907Zm8.35-2.18a1.763,1.763,0,0,0-1.09-.29,1.839,1.839,0,0,0-1.542.87,4.023,4.023,0,0,0-.62,2.373V19H86.7V10h1.441v1.854h.035a3.143,3.143,0,0,1,.94-1.481,2.144,2.144,0,0,1,1.415-.532,2.353,2.353,0,0,1,.861.123Zm1.02,7.216V17.128A4.266,4.266,0,0,0,95,18q1.9,0,1.9-1.266a1.1,1.1,0,0,0-.163-.611,1.62,1.62,0,0,0-.439-.444,3.383,3.383,0,0,0-.65-.347q-.374-.154-.8-.321a10.357,10.357,0,0,1-1.05-.479,3.173,3.173,0,0,1-.756-.545,2.028,2.028,0,0,1-.457-.69,2.441,2.441,0,0,1-.154-.905,2.15,2.15,0,0,1,.29-1.121,2.572,2.572,0,0,1,.773-.817,3.607,3.607,0,0,1,1.1-.5,4.893,4.893,0,0,1,1.279-.167,5.164,5.164,0,0,1,2.092.4v1.459A4.077,4.077,0,0,0,95.679,11a2.671,2.671,0,0,0-.729.092,1.786,1.786,0,0,0-.558.259,1.2,1.2,0,0,0-.36.4,1.053,1.053,0,0,0-.127.514,1.233,1.233,0,0,0,.127.589,1.3,1.3,0,0,0,.374.422,2.855,2.855,0,0,0,.6.334q.352.149.8.325a11.131,11.131,0,0,1,1.072.47,3.678,3.678,0,0,1,.809.545,2.129,2.129,0,0,1,.514.7,2.254,2.254,0,0,1,.18.94,2.217,2.217,0,0,1-.294,1.16,2.523,2.523,0,0,1-.787.817,3.6,3.6,0,0,1-1.134.483,5.6,5.6,0,0,1-1.345.158A5.106,5.106,0,0,1,92.409,18.675Zm11.944.536a4.175,4.175,0,0,1-3.186-1.261,4.672,4.672,0,0,1-1.191-3.344,4.867,4.867,0,0,1,1.239-3.542,4.455,4.455,0,0,1,3.349-1.274,4.037,4.037,0,0,1,3.142,1.239,4.914,4.914,0,0,1,1.129,3.437,4.835,4.835,0,0,1-1.217,3.45A4.265,4.265,0,0,1,104.354,19.211ZM104.459,11a2.742,2.742,0,0,0-2.2.945,3.88,3.88,0,0,0-.809,2.606,3.67,3.67,0,0,0,.817,2.522,2.778,2.778,0,0,0,2.188.923,2.635,2.635,0,0,0,2.149-.905,3.928,3.928,0,0,0,.751-2.575,4,4,0,0,0-.751-2.6A2.623,2.623,0,0,0,104.459,11Zm14.15,8h-1.441V13.867q0-2.865-2.092-2.865a2.269,2.269,0,0,0-1.789.813,3.013,3.013,0,0,0-.708,2.052V19h-1.441V10h1.441v1.494h.035a3.248,3.248,0,0,1,2.953-1.705,2.753,2.753,0,0,1,2.259.954,4.248,4.248,0,0,1,.782,2.755Zm9.158,0h-1.441V17.594h-.035a3.018,3.018,0,0,1-2.769,1.617,2.959,2.959,0,0,1-2.1-.712,2.466,2.466,0,0,1-.76-1.89q0-2.522,2.971-2.936l2.7-.378q0-2.294-1.854-2.294a4.431,4.431,0,0,0-2.936,1.107V10.633a5.577,5.577,0,0,1,3.059-.844q3.173,0,3.173,3.357Zm-1.441-4.553-2.171.3a3.525,3.525,0,0,0-1.512.5,1.432,1.432,0,0,0-.51,1.261,1.374,1.374,0,0,0,.47,1.077,1.817,1.817,0,0,0,1.252.417,2.314,2.314,0,0,0,1.771-.751,2.685,2.685,0,0,0,.7-1.9Zm3.612,4.228V17.128a4.266,4.266,0,0,0,2.593.87q1.9,0,1.9-1.266a1.1,1.1,0,0,0-.163-.611,1.62,1.62,0,0,0-.439-.444,3.383,3.383,0,0,0-.65-.347q-.374-.154-.8-.321a10.357,10.357,0,0,1-1.05-.479,3.173,3.173,0,0,1-.756-.545,2.028,2.028,0,0,1-.457-.69,2.441,2.441,0,0,1-.154-.905,2.15,2.15,0,0,1,.29-1.121,2.572,2.572,0,0,1,.773-.817,3.607,3.607,0,0,1,1.1-.5,4.893,4.893,0,0,1,1.279-.167,5.164,5.164,0,0,1,2.092.4v1.459a4.077,4.077,0,0,0-2.285-.65,2.671,2.671,0,0,0-.729.092,1.786,1.786,0,0,0-.558.259,1.2,1.2,0,0,0-.36.4,1.053,1.053,0,0,0-.127.514,1.233,1.233,0,0,0,.127.589,1.3,1.3,0,0,0,.374.422,2.855,2.855,0,0,0,.6.334q.352.149.8.325a11.131,11.131,0,0,1,1.072.47,3.678,3.678,0,0,1,.809.545,2.129,2.129,0,0,1,.514.7,2.254,2.254,0,0,1,.18.94,2.217,2.217,0,0,1-.294,1.16,2.523,2.523,0,0,1-.787.817,3.6,3.6,0,0,1-1.134.483,5.6,5.6,0,0,1-1.345.158A5.106,5.106,0,0,1,129.939,18.675Z" transform="translate(981.57 7699.038)" fill="#12263f"/>
    </g>
    <g id="Grupo_1176699" data-name="Grupo 1176699" transform="translate(0 25)">
      <path id="Trazado_1031777" data-name="Trazado 1031777" d="M-16.715,86.073l261.375,150.8" transform="translate(948.008 7322.008) rotate(22)" fill="none" stroke="#3e7dad" stroke-linecap="round" stroke-width="6"/>
      <path id="Trazado_1031776" data-name="Trazado 1031776" d="M21.911,25.61c-3.525-5.172-5.272-7.818-5.238-12.885C16.706,7.816,21.911,0,21.911,0L0,12.854Z" transform="matrix(-0.629, -0.777, 0.777, -0.629, 1085.376, 7651.763)" fill="#3e7dad"/>
      <path id="Trazado_1031778" data-name="Trazado 1031778" d="M21.911,25.61c-3.525-5.172-5.272-7.818-5.238-12.885C16.706,7.816,21.911,0,21.911,0L0,12.854Z" transform="translate(905.284 7379.662) rotate(60)" fill="#3e7dad"/>
    </g>
    <g id="Grupo_1176696" data-name="Grupo 1176696" transform="translate(-1991.552 14580.543) rotate(-150)">
      <path id="Trazado_1031781" data-name="Trazado 1031781" d="M143.24,213.08l53.174,41.544" transform="translate(1073.008 7282.008) rotate(22)" fill="none" stroke="#3e7dad" stroke-linecap="round" stroke-width="6"/>
      <path id="Trazado_1031780" data-name="Trazado 1031780" d="M21.911,25.61c-3.525-5.172-5.272-7.818-5.238-12.885C16.706,7.816,21.911,0,21.911,0L0,12.854Z" transform="translate(1155.956 7611.081) rotate(-120)" fill="#3e7dad"/>
      <path id="Trazado_1031779" data-name="Trazado 1031779" d="M21.911,25.61c-3.525-5.172-5.272-7.818-5.238-12.885C16.706,7.816,21.911,0,21.911,0L0,12.854Z" transform="translate(1131.608 7517.341) rotate(60)" fill="#3e7dad"/>
    </g>
    <g id="Grupo_1176697" data-name="Grupo 1176697" transform="translate(2068.475 15189.064) rotate(-180)">
      <path id="Trazado_1031781-2" data-name="Trazado 1031781" d="M143.24,213.08l53.174,41.544" transform="translate(1073.008 7282.008) rotate(22)" fill="none" stroke="#3e7dad" stroke-linecap="round" stroke-width="6"/>
      <path id="Trazado_1031780-2" data-name="Trazado 1031780" d="M21.911,25.61c-3.525-5.172-5.272-7.818-5.238-12.885C16.706,7.816,21.911,0,21.911,0L0,12.854Z" transform="translate(1155.956 7611.081) rotate(-120)" fill="#3e7dad"/>
      <path id="Trazado_1031779-2" data-name="Trazado 1031779" d="M21.911,25.61c-3.525-5.172-5.272-7.818-5.238-12.885C16.706,7.816,21.911,0,21.911,0L0,12.854Z" transform="translate(1131.608 7517.341) rotate(60)" fill="#3e7dad"/>
    </g>
    <g id="Grupo_1176698" data-name="Grupo 1176698" transform="translate(640.341 7577.983)">
      <path id="Trazado_1031781-3" data-name="Trazado 1031781" d="M0,41.544,53.174,0" transform="translate(1.005 39.331) rotate(-22)" fill="none" stroke="#3e7dad" stroke-linecap="round" stroke-width="6"/>
      <path id="Trazado_1031780-3" data-name="Trazado 1031780" d="M21.911,0c-3.525,5.172-5.272,7.818-5.238,12.885.033,4.909,5.238,12.725,5.238,12.725L0,12.756Z" transform="translate(68.705 12.805) rotate(120)" fill="#3e7dad"/>
      <path id="Trazado_1031779-3" data-name="Trazado 1031779" d="M21.911,0c-3.525,5.172-5.272,7.818-5.238,12.885.033,4.909,5.238,12.725,5.238,12.725L0,12.756Z" transform="translate(0 80.935) rotate(-60)" fill="#3e7dad"/>
    </g>
    <g id="Grupo_1176700" data-name="Grupo 1176700" transform="translate(0 25)">
      <path id="Trazado_1031780-4" data-name="Trazado 1031780" d="M21.911,25.61c-3.525-5.172-5.272-7.818-5.238-12.885C16.706,7.816,21.911,0,21.911,0L0,12.854Z" transform="translate(651.745 7672.443)" fill="#3e7dad"/>
      <path id="Trazado_1031779-4" data-name="Trazado 1031779" d="M21.911,25.61c-3.525-5.172-5.272-7.818-5.238-12.885C16.706,7.816,21.911,0,21.911,0L0,12.854Z" transform="translate(948.637 7698.053) rotate(180)" fill="#3e7dad"/>
      <line id="Línea_606" data-name="Línea 606" x1="132.5" y1="229.497" transform="translate(932.5 7685.248) rotate(120)" fill="none" stroke="#3e7dad" stroke-width="6"/>
    </g>
    <g id="Grupo_1176702" data-name="Grupo 1176702" transform="translate(457.276 7404.662)">
      <path id="Trazado_1031777-2" data-name="Trazado 1031777" d="M0,150.8,261.374,0" transform="translate(298.834 155.711) rotate(158)" fill="none" stroke="#3e7dad" stroke-linecap="round" stroke-width="6"/>
      <path id="Trazado_1031776-2" data-name="Trazado 1031776" d="M21.911,0c-3.525,5.172-5.272,7.818-5.238,12.885.033,4.909,5.238,12.725,5.238,12.725L0,12.756Z" transform="translate(37.33 255.985) rotate(-51)" fill="#3e7dad"/>
      <path id="Trazado_1031778-2" data-name="Trazado 1031778" d="M21.911,0c-3.525,5.172-5.272,7.818-5.238,12.885.033,4.909,5.238,12.725,5.238,12.725L0,12.756Z" transform="translate(259.503 12.805) rotate(120)" fill="#3e7dad"/>
    </g>
  </g>
</svg>
