<svg xmlns="http://www.w3.org/2000/svg" xmlns:xlink="http://www.w3.org/1999/xlink" width="81" height="81" viewBox="0 0 81 81">
  <defs>
    <filter id="Trazado_900409" x="0" y="0" width="81" height="81" filterUnits="userSpaceOnUse">
      <feOffset dy="3" input="SourceAlpha"/>
      <feGaussianBlur stdDeviation="3" result="blur"/>
      <feFlood flood-opacity="0.161"/>
      <feComposite operator="in" in2="blur"/>
      <feComposite in="SourceGraphic"/>
    </filter>
  </defs>
  <g id="Grupo_1176706" data-name="Grupo 1176706" transform="translate(-1011.967 -3087)">
    <g transform="matrix(1, 0, 0, 1, 1011.97, 3087)" filter="url(#Trazado_900409)">
      <path id="Trazado_900409-2" data-name="Trazado 900409" d="M31.5,0A31.5,31.5,0,1,1,0,31.5,31.5,31.5,0,0,1,31.5,0Z" transform="translate(9 6)" fill="#fd9826" opacity="0.859"/>
    </g>
    <g id="real-estate_6077884" transform="translate(1032.093 3104.119)">
      <circle id="Elipse_12985" data-name="Elipse 12985" cx="11.173" cy="11.173" r="11.173" transform="translate(9.201 0.67)" fill="#e2e7f6"/>
      <path id="Trazado_1031502" data-name="Trazado 1031502" d="M35.372,12.518A11.169,11.169,0,0,0,28.719,2.306,11.165,11.165,0,0,0,21.65,23.387,11.139,11.139,0,0,0,35.372,12.518Z" transform="translate(-5.797 -1.332)" fill="#f2f2f2"/>
      <path id="Trazado_1031503" data-name="Trazado 1031503" d="M22.969,24.516V18.84L28.884,14,34.8,18.84v5.676Z" transform="translate(-8.53 -5.443)" fill="#c8cded"/>
      <path id="Trazado_1031504" data-name="Trazado 1031504" d="M28.884,14l-5.915,4.84V23.2h9.2a.657.657,0,0,0,.657-.657V17.226Z" transform="translate(-8.53 -5.443)" fill="#e2e7f6"/>
      <path id="Trazado_1031505" data-name="Trazado 1031505" d="M19.051,30a11.155,11.155,0,0,0,17.022,0Z" transform="translate(-7.187 -10.927)" fill="#686868"/>
      <path id="Trazado_1031506" data-name="Trazado 1031506" d="M36.371,15.887,27.17,8l-9.2,7.887,1.972,1.972,7.23-5.915,7.23,5.915Z" transform="translate(-6.816 -3.386)" fill="#3b5892"/>
      <path id="Trazado_1031507" data-name="Trazado 1031507" d="M27.969,27.258V24.629a2.629,2.629,0,0,1,5.258,0v2.629" transform="translate(-10.244 -8.185)" fill="#5e87ca"/>
      <path id="Trazado_1031508" data-name="Trazado 1031508" d="M39.6,13.413V9H36.969v2.16" transform="translate(-13.329 -3.729)" fill="#5e87ca"/>
      <path id="Trazado_1031509" data-name="Trazado 1031509" d="M30.6,24.629V22a2.629,2.629,0,0,0-2.629,2.629v1.314h1.314A1.314,1.314,0,0,0,30.6,24.629Z" transform="translate(-10.244 -8.185)" fill="#78a0d4"/>
      <path id="Trazado_1031510" data-name="Trazado 1031510" d="M2,34H7.258V47.8H2Z" transform="translate(-1.343 -12.299)" fill="#5e87ca"/>
      <path id="Trazado_1031511" data-name="Trazado 1031511" d="M2,34V45.173h.657A1.972,1.972,0,0,0,4.629,43.2V34Z" transform="translate(-1.343 -12.299)" fill="#78a0d4"/>
      <path id="Trazado_1031512" data-name="Trazado 1031512" d="M43.031,36H26.6l-4.056,4.056a1.859,1.859,0,0,0,2.629,2.629l3.4-3.4H31.2l6.685,6.685a1.861,1.861,0,0,1,.544,1.2h4.6Z" transform="translate(-8.198 -12.984)" fill="#ffcea9"/>
      <path id="Trazado_1031513" data-name="Trazado 1031513" d="M10,47.173h3.943l5.371,5.371a1.859,1.859,0,0,0,2.629-2.629l1.315,1.315A1.859,1.859,0,0,0,25.886,48.6L27.2,49.915a1.859,1.859,0,0,0,2.629-2.629L31.144,48.6a1.859,1.859,0,0,0,2.629-2.629l-6.685-6.685H24.459l-3.4,3.4a1.859,1.859,0,0,1-2.629-2.629L22.487,36H10Z" transform="translate(-4.085 -12.984)" fill="#fbe1ca"/>
      <g id="Grupo_1176586" data-name="Grupo 1176586" transform="translate(14.646 29.781)">
        <path id="Trazado_1031514" data-name="Trazado 1031514" d="M0,0H1.314V5.736H0Z" transform="translate(6.572 0.929) rotate(-45)" fill="#ffcea9"/>
        <path id="Trazado_1031515" data-name="Trazado 1031515" d="M0,0H1.314V3.878H0Z" transform="translate(0 4.871) rotate(-45)" fill="#ffcea9"/>
        <path id="Trazado_1031516" data-name="Trazado 1031516" d="M0,0H1.314V4.807H0Z" transform="translate(3.286 2.9) rotate(-45)" fill="#ffcea9"/>
      </g>
      <path id="Trazado_1031517" data-name="Trazado 1031517" d="M54,34h5.258V47.8H54Z" transform="translate(-19.167 -12.299)" fill="#5e87ca"/>
      <path id="Trazado_1031518" data-name="Trazado 1031518" d="M54,34V45.173h.657A1.972,1.972,0,0,0,56.629,43.2V34Z" transform="translate(-19.167 -12.299)" fill="#78a0d4"/>
      <path id="Trazado_1031519" data-name="Trazado 1031519" d="M41.091,22.025H35.833a.657.657,0,0,0-.657.657v.657H26.769a11.83,11.83,0,1,0-10.789,0H7.572v-.657a.657.657,0,0,0-.657-.657H1.657A.657.657,0,0,0,1,22.682v13.8a.657.657,0,0,0,.657.657H6.915a.657.657,0,0,0,.657-.657v-.657h3.014L15.765,41A2.507,2.507,0,0,0,19.958,39.9,2.49,2.49,0,0,0,23.9,38.581a2.49,2.49,0,0,0,3.943-1.314,2.49,2.49,0,0,0,1.529.532,2.518,2.518,0,0,0,2.45-1.972h3.352v.657a.657.657,0,0,0,.657.657h5.258a.657.657,0,0,0,.657-.657v-13.8A.657.657,0,0,0,41.091,22.025ZM6.258,35.826H2.314V23.339H6.258ZM21.374,2.308A10.5,10.5,0,0,1,29.57,19.4H27.946V15.764l.241.2a.657.657,0,0,0,.881-.044l1.972-1.972A.657.657,0,0,0,31,12.982l-3.056-2.62V6.251a.657.657,0,0,0-.657-.657H24.66A.657.657,0,0,0,24,6.251v.731L21.8,5.1a.657.657,0,0,0-.854,0l-9.2,7.887a.657.657,0,0,0-.037.963l1.972,1.972a.657.657,0,0,0,.881.044l.241-.2V19.4H13.178a10.5,10.5,0,0,1,8.2-17.088ZM23.346,19.4H19.4V17.424a1.972,1.972,0,0,1,3.943,0Zm-1.972-5.258a3.29,3.29,0,0,0-3.286,3.286V19.4H16.116V14.689l5.258-4.3,5.258,4.3V19.4H24.66V17.424a3.29,3.29,0,0,0-3.286-3.286Zm5.258-4.9L25.317,8.109v-1.2h1.314Zm2.977,4.283L28.557,14.57,21.787,9.031a.657.657,0,0,0-.832,0L14.186,14.57l-1.052-1.052,8.24-7.059ZM14.442,20.71H28.306a10.45,10.45,0,0,1-13.864,0ZM29.374,36.484a1.209,1.209,0,0,1-.85-.352l-5.371-5.371-.929.929,4.056,4.056a1.2,1.2,0,1,1-1.7,1.7l-4.713-4.714-.929.929,3.4,3.4a1.2,1.2,0,1,1-1.7,1.7L16.581,34.7l-.929.929,2.742,2.742a1.2,1.2,0,1,1-1.7,1.7L11.323,34.7a.657.657,0,0,0-.465-.193H7.572V24.654H17.816l-2.935,2.935a2.516,2.516,0,1,0,3.558,3.558l3.207-3.207h2.085l6.493,6.493a1.2,1.2,0,0,1-.85,2.051Zm2.384-1.972a2.485,2.485,0,0,0-.6-1.009l-6.686-6.685A.657.657,0,0,0,24,26.625H21.374a.657.657,0,0,0-.465.192l-3.4,3.4a1.2,1.2,0,1,1-1.7-1.7l3.864-3.864h15.5v9.858Zm8.675,1.314H36.49V23.339h3.943Z" transform="translate(-1 -0.98)"/>
    </g>
  </g>
</svg>
