<svg id="agente-de-servicio-al-cliente" xmlns="http://www.w3.org/2000/svg" width="84.931" height="84.931" viewBox="0 0 84.931 84.931">
  <g id="Grupo_1176737" data-name="Grupo 1176737" transform="translate(1.244 1.244)">
    <g id="Grupo_1176735" data-name="Grupo 1176735">
      <path id="Trazado_1034028" data-name="Trazado 1034028" d="M11.124,7.5H40.071a3.624,3.624,0,0,1,3.624,3.624V35.041a3.624,3.624,0,0,1-3.624,3.624h-7.1V44.03L26.1,38.665H11.124A3.624,3.624,0,0,1,7.5,35.041V11.124A3.624,3.624,0,0,1,11.124,7.5Z" transform="translate(-7.5 -7.5)" fill="#f4fbff"/>
    </g>
    <g id="Grupo_1176736" data-name="Grupo 1176736" transform="translate(30.334 3.187)">
      <path id="Trazado_1034029" data-name="Trazado 1034029" d="M192.71,41.394a6.688,6.688,0,0,0-2.346,5.087v5.362A6.659,6.659,0,0,0,191,54.69h1.6a3.624,3.624,0,0,0,3.624-3.624V27.149a3.653,3.653,0,0,0-.029-.437A16.672,16.672,0,0,0,192.71,36.93Z" transform="translate(-190.364 -26.712)" fill="#dfeaef"/>
    </g>
  </g>
  <g id="Grupo_1176753" data-name="Grupo 1176753" transform="translate(26.714 1.244)">
    <g id="Grupo_1176738" data-name="Grupo 1176738" transform="translate(9.895 31.503)">
      <path id="Trazado_1034030" data-name="Trazado 1034030" d="M220.695,197.411h37.183v23.124H220.695Z" transform="translate(-220.695 -197.411)" fill="#934d36"/>
    </g>
    <g id="Grupo_1176739" data-name="Grupo 1176739" transform="translate(0 48.594)">
      <path id="Trazado_1034031" data-name="Trazado 1034031" d="M195.4,300.447l13.914,3.71a11.73,11.73,0,0,1,8.707,11.334v18.8H161.045v-18.8a11.73,11.73,0,0,1,8.707-11.334l13.914-3.71Z" transform="translate(-161.045 -300.447)" fill="#d3effb"/>
    </g>
    <g id="Grupo_1176741" data-name="Grupo 1176741" transform="translate(28.486 48.595)">
      <g id="Grupo_1176740" data-name="Grupo 1176740">
        <path id="Trazado_1034032" data-name="Trazado 1034032" d="M332.772,306.815l3.01,6.208a2.322,2.322,0,0,0,4.261-.191l4.131-10.908-5.538-1.477Z" transform="translate(-332.772 -300.448)" fill="#f4fbff"/>
      </g>
    </g>
    <g id="Grupo_1176743" data-name="Grupo 1176743" transform="translate(17.083 48.595)">
      <g id="Grupo_1176742" data-name="Grupo 1176742">
        <path id="Trazado_1034033" data-name="Trazado 1034033" d="M275.434,306.815l-3.01,6.208a2.322,2.322,0,0,1-4.261-.191l-4.131-10.908,5.538-1.477Z" transform="translate(-264.031 -300.448)" fill="#f4fbff"/>
      </g>
    </g>
    <g id="Grupo_1176744" data-name="Grupo 1176744" transform="translate(48.985 52.524)">
      <path id="Trazado_1034034" data-name="Trazado 1034034" d="M456.345,324.137a11.714,11.714,0,0,1,2.793,7.6v22.323h5.195v-18.8A11.728,11.728,0,0,0,456.345,324.137Z" transform="translate(-456.345 -324.137)" fill="#b1e4f9"/>
    </g>
    <g id="Grupo_1176745" data-name="Grupo 1176745" transform="translate(22.622 41.389)">
      <path id="Trazado_1034035" data-name="Trazado 1034035" d="M297.417,264.718V257.01h11.73v7.708a5.865,5.865,0,1,1-11.73,0Z" transform="translate(-297.417 -257.01)" fill="#fcd0a3"/>
    </g>
    <g id="Grupo_1176746" data-name="Grupo 1176746" transform="translate(22.622 41.389)">
      <path id="Trazado_1034036" data-name="Trazado 1034036" d="M297.417,260.825a16.755,16.755,0,0,0,11.73,0V257.01h-11.73v3.815Z" transform="translate(-297.417 -257.01)" fill="#ffb983"/>
    </g>
    <g id="Grupo_1176747" data-name="Grupo 1176747" transform="translate(15.081 15.584)">
      <path id="Trazado_1034037" data-name="Trazado 1034037" d="M251.959,101.445v13.923a13.405,13.405,0,1,0,26.811,0V101.445Z" transform="translate(-251.959 -101.445)" fill="#fcd0a3"/>
    </g>
    <g id="Grupo_1176748" data-name="Grupo 1176748" transform="translate(36.66 15.584)">
      <path id="Trazado_1034038" data-name="Trazado 1034038" d="M387.279,115.368V101.445h-3.184v17.427a13.339,13.339,0,0,1-2.048,7.118A13.38,13.38,0,0,0,387.279,115.368Z" transform="translate(-382.047 -101.445)" fill="#ffb983"/>
    </g>
    <g id="Grupo_1176749" data-name="Grupo 1176749" transform="translate(10.724)">
      <path id="Trazado_1034039" data-name="Trazado 1034039" d="M225.7,24.257A16.757,16.757,0,0,1,242.452,7.5h4.859a5.027,5.027,0,0,1,5.027,5.027h2.178a6.7,6.7,0,0,1,6.7,6.7V33.138h-4.357l-4.524-8.713-2.394,2.394a6.7,6.7,0,0,1-4.74,1.963h-5.081a13.405,13.405,0,0,0-8.614,3.134l-1.458,1.222H225.7V24.257Z" transform="translate(-225.695 -7.5)" fill="#aa593d"/>
    </g>
    <g id="Grupo_1176750" data-name="Grupo 1176750" transform="translate(41.193 5.232)">
      <path id="Trazado_1034040" data-name="Trazado 1034040" d="M409.375,39.038a6.673,6.673,0,0,1,.7,2.979V59.276l-.085,0,.085.164,4.357-.168V45.536A6.705,6.705,0,0,0,409.375,39.038Z" transform="translate(-409.375 -39.038)" fill="#934d36"/>
    </g>
    <g id="Grupo_1176751" data-name="Grupo 1176751" transform="translate(41.892 19.605)">
      <path id="Trazado_1034041" data-name="Trazado 1034041" d="M416.937,137.754h-3.351V125.689h3.351a3.351,3.351,0,0,1,3.351,3.351V134.4A3.351,3.351,0,0,1,416.937,137.754Z" transform="translate(-413.586 -125.689)" fill="#e28086"/>
    </g>
    <g id="Grupo_1176752" data-name="Grupo 1176752" transform="translate(8.378 19.605)">
      <path id="Trazado_1034042" data-name="Trazado 1034042" d="M214.9,137.754h3.351V125.689H214.9a3.351,3.351,0,0,0-3.351,3.351V134.4A3.351,3.351,0,0,0,214.9,137.754Z" transform="translate(-211.553 -125.689)" fill="#e28086"/>
    </g>
  </g>
  <g id="Grupo_1176758" data-name="Grupo 1176758" transform="translate(1.244 51.849)">
    <g id="Grupo_1176754" data-name="Grupo 1176754">
      <path id="Trazado_1034043" data-name="Trazado 1034043" d="M46.04,337.7H7.5V315.92a3.351,3.351,0,0,1,3.351-3.351H42.689a3.351,3.351,0,0,1,3.351,3.351Z" transform="translate(-7.5 -312.569)" fill="#a0aab7"/>
    </g>
    <g id="Grupo_1176755" data-name="Grupo 1176755" transform="translate(15.919 9.216)">
      <circle id="Elipse_12986" data-name="Elipse 12986" cx="3.351" cy="3.351" r="3.351" fill="#f4fbff"/>
    </g>
    <g id="Grupo_1176756" data-name="Grupo 1176756" transform="translate(0 25.135)">
      <path id="Trazado_1034044" data-name="Trazado 1034044" d="M7.5,464.094H49.392v3.351a3.351,3.351,0,0,1-3.351,3.351H10.851A3.351,3.351,0,0,1,7.5,467.445Z" transform="translate(-7.5 -464.094)" fill="#808b95"/>
    </g>
    <g id="Grupo_1176757" data-name="Grupo 1176757" transform="translate(35.189 25.135)">
      <path id="Trazado_1034045" data-name="Trazado 1034045" d="M222.985,464.094v3.351a3.351,3.351,0,0,1-3.351,3.351h3.351a3.351,3.351,0,0,0,3.351-3.351v-3.351Z" transform="translate(-219.634 -464.094)" fill="#5e6b75"/>
    </g>
  </g>
  <g id="Grupo_1176760" data-name="Grupo 1176760" transform="translate(9.369 6.772)">
    <g id="Grupo_1176759" data-name="Grupo 1176759">
      <circle id="Elipse_12987" data-name="Elipse 12987" cx="10.054" cy="10.054" r="10.054" fill="#f6e266"/>
    </g>
  </g>
  <g id="Grupo_1176761" data-name="Grupo 1176761" transform="translate(0 0)">
    <path id="Trazado_1034046" data-name="Trazado 1034046" d="M83.687,68.941A1.244,1.244,0,0,0,84.931,67.7V64.882A12.989,12.989,0,0,0,75.3,52.347l-.264-.07V32.971a4.584,4.584,0,0,0,1.517-3.408V24.2A4.6,4.6,0,0,0,74.207,20.2V12.974A7.956,7.956,0,0,0,66.26,5.027H65.2A6.282,6.282,0,0,0,59.055,0H54.2A18.009,18.009,0,0,0,38.683,8.879V4.869A4.874,4.874,0,0,0,33.814,0H12.648a1.244,1.244,0,1,0,0,2.488H33.814a2.383,2.383,0,0,1,2.38,2.38V20.2A4.6,4.6,0,0,0,33.849,24.2v5.362a4.575,4.575,0,0,0,.28,1.579,2.436,2.436,0,0,1-.314.022h-7.1a1.244,1.244,0,0,0-1.244,1.244v2.815l-4.857-3.8a1.245,1.245,0,0,0-.766-.264H4.869a2.382,2.382,0,0,1-2.38-2.379V4.869a2.383,2.383,0,0,1,2.38-2.38H6.837A1.244,1.244,0,0,0,6.837,0H4.869A4.874,4.874,0,0,0,0,4.869V28.785a4.873,4.873,0,0,0,4.869,4.867h14.55l6.529,5.1a1.244,1.244,0,0,0,2.01-.98V33.652h5.856a4.865,4.865,0,0,0,1.551-.254V50.605H4.6A4.6,4.6,0,0,0,0,55.2v9.034a1.244,1.244,0,1,0,2.488,0V55.2A2.109,2.109,0,0,1,4.6,53.093H36.433A2.109,2.109,0,0,1,38.54,55.2V75.74H2.488v-5.7a1.244,1.244,0,0,0-2.488,0V80.336a4.6,4.6,0,0,0,4.6,4.6H83.687a1.244,1.244,0,0,0,1.244-1.244V73.509a1.244,1.244,0,0,0-2.488,0v8.934H73.872V76.984a1.244,1.244,0,1,0-2.488,0v5.458H43.866a4.566,4.566,0,0,0,.514-2.107V76.984a1.244,1.244,0,0,0-1.244-1.244H41.029V55.2a4.569,4.569,0,0,0-.353-1.766l2.357-.628,3.733,9.858a3.519,3.519,0,0,0,3.176,2.3c.057,0,.113,0,.169,0a3.515,3.515,0,0,0,3.2-2.011l1.891-3.9,1.891,3.9a3.514,3.514,0,0,0,3.2,2.011c.056,0,.112,0,.169,0a3.518,3.518,0,0,0,3.176-2.3l3.733-9.857,7.29,1.944a10.5,10.5,0,0,1,7.784,10.132V67.7a1.244,1.244,0,0,0,1.244,1.244Zm-41.8,11.395a2.11,2.11,0,0,1-2.107,2.107H4.6a2.109,2.109,0,0,1-2.107-2.107V78.229h39.4ZM72.548,51.613,62.31,48.883V43.556a14.759,14.759,0,0,0,4.881-4.4,2.923,2.923,0,0,0,2.659-2.907V34.158h2.107a4.6,4.6,0,0,0,.591-.039ZM55.2,54.962a4.626,4.626,0,0,1-4.621-4.621V44.653a14.659,14.659,0,0,0,9.241,0v5.688A4.626,4.626,0,0,1,55.2,54.962Zm-7.109-6.079-9.185,2.448a4.58,4.58,0,0,0-1.053-.5V34.119a4.629,4.629,0,0,0,.591.039h2.508a14.7,14.7,0,0,0,7.14,9.4ZM36.337,24.2a2.109,2.109,0,0,1,2.107-2.107h2.107V31.67H38.444a2.109,2.109,0,0,1-2.107-2.107ZM63.76,20.249l3.6,6.936v3.566a12.084,12.084,0,0,1-1.55,5.932H57.353a2.488,2.488,0,1,0,0,2.488h6.61a12.152,12.152,0,0,1-20.924-8.42V27.462l1.013-.85a12.181,12.181,0,0,1,7.815-2.843h5.081a7.9,7.9,0,0,0,5.619-2.328Zm8.2,1.844A2.109,2.109,0,0,1,74.065,24.2v5.362a2.109,2.109,0,0,1-2.107,2.107H69.85V22.094Zm-.239-9.12v6.632H68.606a1.244,1.244,0,0,0-1.244,1.244v.936l-2.036-3.921V7.515h.934a5.465,5.465,0,0,1,5.458,5.458ZM54.2,2.488h4.859a3.787,3.787,0,0,1,3.783,3.783V17.653l-2.029,2.029a5.423,5.423,0,0,1-3.86,1.6H51.867a14.674,14.674,0,0,0-8.828,2.961V20.85A1.244,1.244,0,0,0,41.8,19.605H38.683V18A15.53,15.53,0,0,1,54.2,2.488ZM51.071,61.872a1.078,1.078,0,0,1-1.978-.088l-3.644-9.621,2.727-.727a7.129,7.129,0,0,0,5.16,5.765Zm10.238-.088a1.078,1.078,0,0,1-1.978.088L57.065,57.2a7.129,7.129,0,0,0,5.16-5.765l2.727.727Z" transform="translate(0 0)"/>
    <path id="Trazado_1034047" data-name="Trazado 1034047" d="M105.157,365.223a4.6,4.6,0,1,0-4.6,4.6A4.6,4.6,0,0,0,105.157,365.223Zm-6.7,0a2.107,2.107,0,1,1,2.107,2.107A2.109,2.109,0,0,1,98.454,365.223Z" transform="translate(-80.047 -300.807)"/>
    <path id="Trazado_1034048" data-name="Trazado 1034048" d="M95.494,116.334a1.244,1.244,0,0,0-1.761-1.758,4.444,4.444,0,0,1-6.292,0,1.244,1.244,0,0,0-1.761,1.758,6.932,6.932,0,0,0,9.814,0Z" transform="translate(-71.164 -95.266)"/>
    <path id="Trazado_1034049" data-name="Trazado 1034049" d="M71.577,44.626a11.3,11.3,0,1,0-11.3,11.3A11.311,11.311,0,0,0,71.577,44.626Zm-20.108,0a8.81,8.81,0,1,1,8.81,8.81,8.82,8.82,0,0,1-8.81-8.81Z" transform="translate(-40.856 -27.8)"/>
    <circle id="Elipse_12988" data-name="Elipse 12988" cx="1.676" cy="1.676" r="1.676" transform="translate(13.892 12.637)"/>
    <circle id="Elipse_12989" data-name="Elipse 12989" cx="1.676" cy="1.676" r="1.676" transform="translate(21.603 12.637)"/>
  </g>
</svg>
