<svg xmlns="http://www.w3.org/2000/svg" width="85.433" height="85.329" viewBox="0 0 85.433 85.329">
  <g id="apoyo-tecnico" transform="translate(0 -0.313)">
    <g id="Grupo_1176732" data-name="Grupo 1176732" transform="translate(1.251 1.564)">
      <g id="Grupo_1176731" data-name="Grupo 1176731">
        <g id="Grupo_1176723" data-name="Grupo 1176723">
          <g id="Grupo_1176711" data-name="Grupo 1176711" transform="translate(54.603)">
            <path id="Trazado_1034007" data-name="Trazado 1034007" d="M359.424,7.812H338.375a3.639,3.639,0,0,0-3.639,3.639V21.978a3.639,3.639,0,0,0,3.639,3.639,2.125,2.125,0,0,1,2.125,2.125v6.51a.815.815,0,0,0,1.514.419l4.811-8.022a2.126,2.126,0,0,1,1.823-1.032h10.776a3.639,3.639,0,0,0,3.639-3.639V11.452a3.639,3.639,0,0,0-3.639-3.64Z" transform="translate(-334.736 -7.812)" fill="#b3e59f"/>
            <path id="Trazado_1034008" data-name="Trazado 1034008" d="M377.6,7.812h-10.9a3.639,3.639,0,0,1,3.639,3.639V21.978a3.639,3.639,0,0,1-3.639,3.639H356.547a2.125,2.125,0,0,1,2.125,2.125v6.51a.815.815,0,0,0,1.514.419L365,26.65a2.126,2.126,0,0,1,1.823-1.032H377.6a3.639,3.639,0,0,0,3.639-3.639V11.452a3.64,3.64,0,0,0-3.639-3.64Z" transform="translate(-352.908 -7.812)" fill="#95d6a4"/>
          </g>
          <g id="Grupo_1176722" data-name="Grupo 1176722" transform="translate(0 37.333)">
            <g id="Grupo_1176721" data-name="Grupo 1176721">
              <g id="Grupo_1176720" data-name="Grupo 1176720">
                <g id="Grupo_1176715" data-name="Grupo 1176715" transform="translate(22.32)">
                  <g id="Grupo_1176714" data-name="Grupo 1176714">
                    <g id="Grupo_1176713" data-name="Grupo 1176713">
                      <g id="Grupo_1176712" data-name="Grupo 1176712">
                        <path id="Trazado_1034009" data-name="Trazado 1034009" d="M161.1,245.139a3.644,3.644,0,0,1-2.956-3.579V231.551H144.217V241.56a3.652,3.652,0,0,1-2.956,3.579S162.046,245.32,161.1,245.139Z" transform="translate(-141.261 -231.551)" fill="#ffddce"/>
                      </g>
                    </g>
                  </g>
                </g>
                <g id="Grupo_1176719" data-name="Grupo 1176719" transform="translate(1.001 14.246)">
                  <g id="Grupo_1176718" data-name="Grupo 1176718">
                    <g id="Grupo_1176717" data-name="Grupo 1176717">
                      <g id="Grupo_1176716" data-name="Grupo 1176716">
                        <path id="Trazado_1034010" data-name="Trazado 1034010" d="M58.525,317.014c-.992-.191-27.569,0-27.569,0A21.523,21.523,0,0,0,13.5,338.149v7.1a2.915,2.915,0,0,0,2.915,2.915H73.065a2.915,2.915,0,0,0,2.915-2.915v-7.1A21.522,21.522,0,0,0,58.525,317.014Z" transform="translate(-13.501 -316.93)" fill="#ffd064"/>
                      </g>
                    </g>
                  </g>
                </g>
                <path id="Trazado_1034011" data-name="Trazado 1034011" d="M92.474,339.612H41.64l-1.348-24.841a3.841,3.841,0,0,1,3.836-4.05H89.986a3.841,3.841,0,0,1,3.836,4.05Z" transform="translate(-34.816 -297.511)" fill="#eaf2ff"/>
                <path id="Trazado_1034012" data-name="Trazado 1034012" d="M283.7,310.722H272.8a3.841,3.841,0,0,1,3.836,4.05l-1.348,24.841h10.9l1.348-24.841A3.841,3.841,0,0,0,283.7,310.722Z" transform="translate(-228.534 -297.511)" fill="#dbe8f9"/>
                <path id="Trazado_1034013" data-name="Trazado 1034013" d="M69.292,471.934h-59.1a2.691,2.691,0,1,0,0,5.382h59.1a2.691,2.691,0,1,0,0-5.382Z" transform="translate(-7.5 -431.823)" fill="#9bc4f9"/>
                <path id="Trazado_1034014" data-name="Trazado 1034014" d="M322.993,471.934H314.7v2.691a2.691,2.691,0,0,1-2.691,2.691h10.98a2.691,2.691,0,0,0,0-5.382Z" transform="translate(-261.202 -431.823)" fill="#7fb2f9"/>
              </g>
            </g>
            <path id="Trazado_1034015" data-name="Trazado 1034015" d="M165.969,382.991a8.917,8.917,0,0,1,2.3-5.964l.033-.037a7.634,7.634,0,0,0-1.927-11.725.656.656,0,0,0-.982.568v5.678a1.723,1.723,0,0,1-1.723,1.723h-2.119a1.723,1.723,0,0,1-1.723-1.723v-5.678a.656.656,0,0,0-.982-.568,7.634,7.634,0,0,0-1.927,11.725l.033.037a8.917,8.917,0,0,1,2.3,5.964Z" transform="translate(-130.37 -342.88)" fill="#7fb2f9"/>
          </g>
        </g>
        <g id="Grupo_1176730" data-name="Grupo 1176730" transform="translate(13.062 4.694)">
          <g id="Grupo_1176729" data-name="Grupo 1176729">
            <g id="Grupo_1176728" data-name="Grupo 1176728">
              <g id="Grupo_1176727" data-name="Grupo 1176727">
                <path id="Trazado_1034016" data-name="Trazado 1034016" d="M130.1,66.809l-.931,0-.016-3.752c-.033-7.86-6.519-13.306-13.71-13.356-7.16.111-13.632,5.583-13.6,13.473l.011,2.645,0,1.107-.931,0a2.487,2.487,0,0,0-2.461,2.512l.012,2.772a2.486,2.486,0,0,0,2.482,2.491l.935,0a12.925,12.925,0,0,0,4.347,9.479,13.858,13.858,0,0,0,18.688-.08,12.928,12.928,0,0,0,4.267-9.516l.935,0a2.487,2.487,0,0,0,2.461-2.512l-.012-2.772a2.486,2.486,0,0,0-2.482-2.491Z" transform="translate(-96.349 -47.409)" fill="#ffddce"/>
                <path id="Trazado_1034017" data-name="Trazado 1034017" d="M198.7,72.665a2.486,2.486,0,0,0-2.482-2.491l-.931,0-.016-3.752A13.269,13.269,0,0,0,185.8,53.744a13.113,13.113,0,0,1,1.81,6.675l.044,17.533a12.928,12.928,0,0,1-4.267,9.516,14.612,14.612,0,0,1-5.555,3.1,13.724,13.724,0,0,0,13.22-3.1,12.928,12.928,0,0,0,4.267-9.516l.935,0a2.487,2.487,0,0,0,2.461-2.512Z" transform="translate(-162.468 -50.774)" fill="#ffcbbe"/>
                <g id="Grupo_1176726" data-name="Grupo 1176726" transform="translate(0 17.141)">
                  <g id="Grupo_1176724" data-name="Grupo 1176724" transform="translate(32.838)">
                    <path id="Trazado_1034018" data-name="Trazado 1034018" d="M282.575,138.669v10.317h2.74A2.782,2.782,0,0,0,288.1,146.2v-4.753a2.782,2.782,0,0,0-2.782-2.782Z" transform="translate(-282.575 -138.669)" fill="#9bc4f9"/>
                  </g>
                  <g id="Grupo_1176725" data-name="Grupo 1176725">
                    <path id="Trazado_1034019" data-name="Trazado 1034019" d="M91.3,138.669v10.317H88.56a2.782,2.782,0,0,1-2.782-2.782v-4.753a2.782,2.782,0,0,1,2.782-2.782Z" transform="translate(-85.778 -138.669)" fill="#9bc4f9"/>
                  </g>
                </g>
                <path id="Trazado_1034020" data-name="Trazado 1034020" d="M129.06,41.513h-.14a1.406,1.406,0,0,1-1.406-1.406,4.164,4.164,0,0,0-4.164-4.164H110.1a10.68,10.68,0,0,0-10.68,10.68v7.058a2.436,2.436,0,0,0,1.635,2.3l2.631.916a1.413,1.413,0,0,0,1.878-1.337l-.006-4.977a4.357,4.357,0,0,1,4.311-4.4h.052a6.916,6.916,0,0,1,2.147.333,12.2,12.2,0,0,0,3.781.627h.948a12.2,12.2,0,0,0,3.781-.627,6.921,6.921,0,0,1,2.147-.333h.052a4.357,4.357,0,0,1,4.311,4.4l0,4.977a1.413,1.413,0,0,0,1.878,1.337l2.63-.916a2.436,2.436,0,0,0,1.635-2.3v-8a4.164,4.164,0,0,0-4.164-4.164Z" transform="translate(-97.14 -35.943)" fill="#756e78"/>
                <path id="Trazado_1034021" data-name="Trazado 1034021" d="M222.169,41.513h-.14a1.406,1.406,0,0,1-1.406-1.406,4.164,4.164,0,0,0-4.164-4.164h-5.285a13.016,13.016,0,0,1,4.214,9.646V46.2c.147-.009.295-.014.443-.014h.052a4.357,4.357,0,0,1,4.311,4.4l0,4.977a1.413,1.413,0,0,0,1.878,1.337l2.63-.916a2.436,2.436,0,0,0,1.635-2.3v-8A4.164,4.164,0,0,0,222.169,41.513Z" transform="translate(-190.249 -35.943)" fill="#665e66"/>
                <path id="Trazado_1034022" data-name="Trazado 1034022" d="M230.808,224.409h-3.141a2.17,2.17,0,1,1,0-4.339h3.141a2.17,2.17,0,0,1,0,4.339Z" transform="translate(-202.184 -189.346)" fill="#db636e"/>
              </g>
            </g>
          </g>
        </g>
      </g>
    </g>
    <g id="Grupo_1176734" data-name="Grupo 1176734" transform="translate(0 0.313)">
      <g id="Grupo_1176733" data-name="Grupo 1176733">
        <path id="Trazado_1034023" data-name="Trazado 1034023" d="M410.149,37.252h-10.92a1.251,1.251,0,1,0,0,2.5h10.92a1.251,1.251,0,1,0,0-2.5Z" transform="translate(-331.571 -31.088)"/>
        <path id="Trazado_1034024" data-name="Trazado 1034024" d="M362.067,39.755H363.4a1.251,1.251,0,1,0,0-2.5h-1.331a1.251,1.251,0,0,0,0,2.5Z" transform="translate(-300.61 -31.088)"/>
        <path id="Trazado_1034025" data-name="Trazado 1034025" d="M362.067,74.987h17.121a1.251,1.251,0,1,0,0-2.5H362.067a1.251,1.251,0,0,0,0,2.5Z" transform="translate(-300.61 -60.441)"/>
        <path id="Trazado_1034026" data-name="Trazado 1034026" d="M65.984,97.8a22.857,22.857,0,0,0-4.709-13.866l.232-4.272a5.09,5.09,0,0,0-5.086-5.369h-13.7a2.387,2.387,0,0,1-1.013-1.95V68.847a14.179,14.179,0,0,0,4.711-4.8h2.422a5.087,5.087,0,0,0,5.081-5.081V49.615a4.031,4.031,0,0,0-2.276-3.629V39.427a5.422,5.422,0,0,0-5.415-5.416h-.14a.155.155,0,0,1-.155-.155,5.422,5.422,0,0,0-5.416-5.416H27.268A11.945,11.945,0,0,0,15.337,40.372v5.614a4.032,4.032,0,0,0-2.276,3.629v4.753A4.038,4.038,0,0,0,17.094,58.4H18.71a14.054,14.054,0,0,0,4.676,9.013,17.162,17.162,0,0,0,1.889,1.418v3.509a2.39,2.39,0,0,1-1.017,1.95H10.564A5.089,5.089,0,0,0,5.478,79.66l.232,4.272A22.857,22.857,0,0,0,1,97.8v4.714a3.94,3.94,0,0,0,2.941,6.564h59.1a3.94,3.94,0,0,0,2.941-6.564Zm-2.5,0v3.418a3.958,3.958,0,0,0-.438-.025h-2.7l.706-13.014A20.335,20.335,0,0,1,63.481,97.8ZM51.292,49a1.523,1.523,0,0,1,.129.611v4.753a1.532,1.532,0,0,1-1.53,1.53H48.4V51.181l.771-.269A3.687,3.687,0,0,0,51.292,49ZM42.937,63.5H39.8a.918.918,0,1,1,0-1.836h3.141a.918.918,0,1,1,0,1.836Zm5.906-1.964H47.578A14.73,14.73,0,0,0,48.3,58.4h1.589a4.011,4.011,0,0,0,1.53-.3v.862A2.581,2.581,0,0,1,48.843,61.54Zm-31-21.168a9.439,9.439,0,0,1,9.428-9.428H40.522a2.916,2.916,0,0,1,2.913,2.913,2.661,2.661,0,0,0,2.658,2.658h.14a2.916,2.916,0,0,1,2.913,2.913v8a1.186,1.186,0,0,1-.8,1.119l-2.63.916a.161.161,0,0,1-.215-.154l0-4.973c.015-3.629-3.383-6.795-8.145-5.265a13.3,13.3,0,0,1-7.745,0c-4.712-1.514-8.16,1.595-8.145,5.261l.006,4.977a.161.161,0,0,1-.215.153l-2.631-.916a1.186,1.186,0,0,1-.8-1.119V40.373Zm-2.276,14V49.615A1.523,1.523,0,0,1,15.693,49a3.687,3.687,0,0,0,2.119,1.909l.771.268V55.9H17.095a1.532,1.532,0,0,1-1.53-1.53Zm5.545,2.588c-.042-1.645-.016-3.392-.023-4.99.077.007.154.011.232.011a2.665,2.665,0,0,0,2.666-2.668l-.006-4.98c-.009-2.032,1.814-3.856,4.876-2.872a15.755,15.755,0,0,0,9.277,0c2.917-.937,4.885.713,4.876,2.876l0,4.977a2.664,2.664,0,0,0,2.9,2.657v5.092a12.344,12.344,0,0,1-.516,3.141,3.409,3.409,0,0,0-2.446-1.034H39.8a3.421,3.421,0,1,0,0,6.842h1.59A12.807,12.807,0,0,1,33.558,68.8c-6.318-.051-12.268-4.718-12.449-11.843Zm6.669,15.385v-2.19A15.254,15.254,0,0,0,33.555,71.3h.028a15.27,15.27,0,0,0,5.624-1.141v2.179a4.883,4.883,0,0,0,.406,1.95H27.37A4.871,4.871,0,0,0,27.778,72.341ZM5.941,88.178l.2,3.641a1.251,1.251,0,0,0,2.5-.135l-.66-12.159a2.588,2.588,0,0,1,2.586-2.73H56.422a2.588,2.588,0,0,1,2.586,2.73l-1.176,21.667H38.208a7.686,7.686,0,0,1,1.875-3.876l.036-.04a8.892,8.892,0,0,0-2.242-13.647,1.908,1.908,0,0,0-2.852,1.656v5.678a.472.472,0,0,1-.472.472H32.433a.473.473,0,0,1-.472-.472V85.285a1.908,1.908,0,0,0-2.852-1.656A8.891,8.891,0,0,0,26.871,97.28l.032.036a7.685,7.685,0,0,1,1.875,3.876H9.154l-.2-3.7a1.251,1.251,0,0,0-2.5.135l.193,3.564h-2.7a4,4,0,0,0-.438.025V97.8a20.338,20.338,0,0,1,2.436-9.621Zm25.366,13.014a10.175,10.175,0,0,0-2.543-5.55l-.03-.034a6.383,6.383,0,0,1,.725-9.194v4.55a2.978,2.978,0,0,0,2.975,2.975h2.118a2.978,2.978,0,0,0,2.975-2.975v-4.55a6.384,6.384,0,0,1,.722,9.2l-.027.03a10.175,10.175,0,0,0-2.543,5.55Zm31.737,5.382H3.942a1.439,1.439,0,1,1,0-2.879h59.1a1.439,1.439,0,1,1,0,2.879Z" transform="translate(0 -23.748)"/>
        <path id="Trazado_1034027" data-name="Trazado 1034027" d="M356.814,8.877a1.251,1.251,0,0,0,1.251-1.251V5.2A4.9,4.9,0,0,0,353.174.313H332.126A4.9,4.9,0,0,0,327.235,5.2V15.731a4.9,4.9,0,0,0,4.891,4.891A.875.875,0,0,1,333,21.5v6.51a2.066,2.066,0,0,0,3.838,1.063l4.811-8.022a.879.879,0,0,1,.75-.424h10.776a4.9,4.9,0,0,0,4.891-4.891V13.477a1.251,1.251,0,0,0-2.5,0v2.254a2.391,2.391,0,0,1-2.388,2.388H342.4a3.394,3.394,0,0,0-2.9,1.64l-4,6.669V21.5a3.381,3.381,0,0,0-3.377-3.377,2.391,2.391,0,0,1-2.388-2.388V5.2a2.391,2.391,0,0,1,2.388-2.388h21.048A2.391,2.391,0,0,1,355.562,5.2V7.626a1.251,1.251,0,0,0,1.251,1.251Z" transform="translate(-272.632 -0.313)"/>
      </g>
    </g>
  </g>
</svg>
