<svg xmlns="http://www.w3.org/2000/svg" xmlns:xlink="http://www.w3.org/1999/xlink" width="103" height="103" viewBox="0 0 103 103">
  <defs>
    <filter id="Trazado_874925" x="0" y="0" width="103" height="103" filterUnits="userSpaceOnUse">
      <feOffset dy="3" input="SourceAlpha"/>
      <feGaussianBlur stdDeviation="3" result="blur"/>
      <feFlood flood-opacity="0.161"/>
      <feComposite operator="in" in2="blur"/>
      <feComposite in="SourceGraphic"/>
    </filter>
  </defs>
  <g id="Grupo_1176820" data-name="Grupo 1176820" transform="translate(-799.5 -2511.157)">
    <g id="Grupo_1111316" data-name="Grupo 1111316" transform="translate(808.5 2517.157)">
      <g id="Grupo_1109835" data-name="Grupo 1109835" transform="translate(0 0)">
        <g id="Grupo_1107913" data-name="Grupo 1107913" transform="translate(0 0)">
          <g transform="matrix(1, 0, 0, 1, -9, -6)" filter="url(#Trazado_874925)">
            <g id="Trazado_874925-2" data-name="Trazado 874925" transform="translate(9 6)" fill="#cdb9f8" opacity="0.859">
              <path d="M 42.49984359741211 83.50018310546875 C 36.9642448425293 83.50018310546875 31.59502029418945 82.41635894775391 26.54131507873535 80.27883148193359 C 21.65926742553711 78.21389007568359 17.2744197845459 75.2574462890625 13.50857257843018 71.49160766601562 C 9.742737770080566 67.72576141357422 6.786290645599365 63.34091567993164 4.721349716186523 58.45886611938477 C 2.583820104598999 53.4051628112793 1.499996542930603 48.03593826293945 1.499996542930603 42.50033950805664 C 1.499996542930603 36.9642448425293 2.583820104598999 31.59502029418945 4.721349716186523 26.54131507873535 C 6.786290645599365 21.65926742553711 9.742737770080566 17.27442169189453 13.50857257843018 13.50857353210449 C 17.2744197845459 9.742738723754883 21.65926742553711 6.786291599273682 26.54131507873535 4.721350193023682 C 31.59502029418945 2.583821058273315 36.9642448425293 1.49999737739563 42.49984359741211 1.49999737739563 C 48.03545379638672 1.49999737739563 53.40467834472656 2.583821058273315 58.4583740234375 4.721350193023682 C 63.34043121337891 6.786291599273682 67.72528076171875 9.742738723754883 71.49111175537109 13.50857353210449 C 75.25695037841797 17.27442169189453 78.21339416503906 21.65926742553711 80.27833557128906 26.54131507873535 C 82.41587066650391 31.59502029418945 83.49968719482422 36.9642448425293 83.49968719482422 42.49984359741211 C 83.49968719482422 48.03593826293945 82.41587066650391 53.4051628112793 80.27833557128906 58.45886611938477 C 78.21339416503906 63.34091567993164 75.25695037841797 67.72576141357422 71.49111175537109 71.49160766601562 C 67.72528076171875 75.2574462890625 63.34043121337891 78.21389007568359 58.4583740234375 80.27883148193359 C 53.40467834472656 82.41635894775391 48.03545379638672 83.50018310546875 42.49984359741211 83.50018310546875 Z" stroke="none"/>
              <path d="M 42.49984359741211 3 C 37.16606903076172 3 31.99344253540039 4.043960571289062 27.12564468383789 6.102867126464844 C 22.42237854003906 8.092170715332031 18.19780731201172 10.94066619873047 14.56922912597656 14.56923675537109 C 10.940673828125 18.19779968261719 8.092178344726562 22.42238616943359 6.102859497070312 27.12563705444336 C 4.043952941894531 31.99343872070312 3 37.16606521606445 3 42.50033187866211 C 3 47.8341064453125 4.043952941894531 53.00672912597656 6.102859497070312 57.87453079223633 C 8.092178344726562 62.57778549194336 10.940673828125 66.8023681640625 14.56922912597656 70.43094635009766 C 18.19780731201172 74.05950164794922 22.42238998413086 76.90801239013672 27.12564468383789 78.89731597900391 C 31.99344253540039 80.95622253417969 37.16606903076172 82.00018310546875 42.49984359741211 82.00018310546875 C 47.83360290527344 82.00018310546875 53.00624084472656 80.95622253417969 57.87404632568359 78.89731597900391 C 62.57729721069336 76.90801239013672 66.8018798828125 74.05950164794922 70.43044281005859 70.43094635009766 C 74.05902099609375 66.8023681640625 76.90750885009766 62.57778549194336 78.89682006835938 57.87453079223633 C 80.95572662353516 53.00672912597656 81.99968719482422 47.83409118652344 81.99968719482422 42.49983978271484 C 81.99968719482422 37.16607666015625 80.95572662353516 31.99343872070312 78.89682006835938 27.12563705444336 C 76.90750885009766 22.42238616943359 74.05902099609375 18.19779968261719 70.43044281005859 14.56923675537109 C 66.8018798828125 10.94066619873047 62.57729721069336 8.092170715332031 57.87404632568359 6.102867126464844 C 53.00624084472656 4.043960571289062 47.83360290527344 3 42.49984359741211 3 M 42.49984359741211 0 C 65.97185516357422 0 84.99968719482422 19.02782440185547 84.99968719482422 42.49983978271484 L 84.99968719482422 42.50033187866211 C 84.99968719482422 65.97234344482422 65.97185516357422 85.00018310546875 42.49984359741211 85.00018310546875 C 19.02781677246094 85.00018310546875 0 65.97234344482422 0 42.50033187866211 L 0 42.49983978271484 C 0 19.02782440185547 19.02781677246094 0 42.49984359741211 0 Z" stroke="none" fill="#fff"/>
            </g>
          </g>
          <g id="Trazado_874923" data-name="Trazado 874923" transform="translate(0 0)" fill="none">
            <path d="M42.5,0A42.5,42.5,0,0,1,85,42.5h0a42.5,42.5,0,1,1-85,0H0A42.5,42.5,0,0,1,42.5,0Z" stroke="none"/>
            <path d="M 42.49984359741211 3 C 37.16606903076172 3 31.99344253540039 4.043960571289062 27.12564468383789 6.102867126464844 C 22.42237854003906 8.092170715332031 18.19780731201172 10.94066619873047 14.56922912597656 14.56923675537109 C 10.940673828125 18.19779968261719 8.092178344726562 22.42238616943359 6.102859497070312 27.12563705444336 C 4.043952941894531 31.99343872070312 3 37.16606521606445 3 42.50033187866211 C 3 47.8341064453125 4.043952941894531 53.00672912597656 6.102859497070312 57.87453079223633 C 8.092178344726562 62.57778549194336 10.940673828125 66.8023681640625 14.56922912597656 70.43094635009766 C 18.19780731201172 74.05950164794922 22.42238998413086 76.90801239013672 27.12564468383789 78.89731597900391 C 31.99344253540039 80.95622253417969 37.16606903076172 82.00018310546875 42.49984359741211 82.00018310546875 C 47.83360290527344 82.00018310546875 53.00624084472656 80.95622253417969 57.87404632568359 78.89731597900391 C 62.57729721069336 76.90801239013672 66.8018798828125 74.05950164794922 70.43044281005859 70.43094635009766 C 74.05902099609375 66.8023681640625 76.90750885009766 62.57778549194336 78.89682006835938 57.87453079223633 C 80.95572662353516 53.00672912597656 81.99968719482422 47.83409118652344 81.99968719482422 42.49983978271484 C 81.99968719482422 37.16607666015625 80.95572662353516 31.99343872070312 78.89682006835938 27.12563705444336 C 76.90750885009766 22.42238616943359 74.05902099609375 18.19779968261719 70.43044281005859 14.56923675537109 C 66.8018798828125 10.94066619873047 62.57729721069336 8.092170715332031 57.87404632568359 6.102867126464844 C 53.00624084472656 4.043960571289062 47.83360290527344 3 42.49984359741211 3 M 42.49984359741211 0 C 65.97185516357422 0 84.99968719482422 19.02782440185547 84.99968719482422 42.49983978271484 L 84.99968719482422 42.50033187866211 C 84.99968719482422 65.97234344482422 65.97185516357422 85.00018310546875 42.49984359741211 85.00018310546875 C 19.02781677246094 85.00018310546875 0 65.97234344482422 0 42.50033187866211 L 0 42.49983978271484 C 0 19.02782440185547 19.02781677246094 0 42.49984359741211 0 Z" stroke="none" fill="#fff"/>
          </g>
        </g>
      </g>
    </g>
    <g id="vestuario" transform="translate(820.146 2523.453)">
      <path id="Trazado_113433" data-name="Trazado 113433" d="M380.75,66.436l6.55,19.552-6.635,2.832-5.6-14.967-.062.009-.525-3.711a8.2,8.2,0,0,1-.029-2.068L376.68,48.52Z" transform="translate(-331.458 -33.494)" fill="#a66d58"/>
      <path id="Trazado_113434" data-name="Trazado 113434" d="M269.16,45.749l-.525-3.711a8.2,8.2,0,0,1-.029-2.068l2.227-19.563-8.453-3.2-5.86,27.134v15.2l4.149,5.561a2.13,2.13,0,0,0,2.248.787l8.768-2.3Z" transform="translate(-225.611 -5.381)" fill="#d9a171"/>
      <path id="Trazado_113435" data-name="Trazado 113435" d="M210.865,17.221l-.755,3.5-.083-.018a23.73,23.73,0,0,1-10.125,0l-.751-3.48a23.742,23.742,0,0,0,11.664-.013Z" transform="translate(-174.098 -5.38)" fill="#a66d58"/>
      <path id="Trazado_113436" data-name="Trazado 113436" d="M216.718,51.408l-5.1,23.626-5.108-23.64a23.73,23.73,0,0,0,10.125,0Z" transform="translate(-180.706 -36.071)" fill="#bac0d3"/>
      <path id="Trazado_113437" data-name="Trazado 113437" d="M116.333,17.293h-.012l-8.432,3.188,2.225,19.544a8.164,8.164,0,0,1-.034,2.1l-.555,3.8-2.6,17.74,8.878,2.3a2.129,2.129,0,0,0,2.243-.789l4.151-5.564v-15.2Z" transform="translate(-91.292 -5.452)" fill="#e2b085"/>
      <path id="Trazado_113438" data-name="Trazado 113438" d="M24.21,68.064a8.163,8.163,0,0,1-.034,2.105l-.555,3.795H23.6l-5.7,14.86L11.26,85.988l6.56-19.282L21.985,48.52Z" transform="translate(-5.389 -33.494)" fill="#a66d58"/>
      <path id="Trazado_113439" data-name="Trazado 113439" d="M262.38,17.21l3.249,4.47-2.344,2.527,2.238,2.717-9,17.42,5.1-23.626.755-3.5Z" transform="translate(-225.611 -5.38)" fill="#a66d58"/>
      <path id="Trazado_113440" data-name="Trazado 113440" d="M171.294,20.8,176.4,44.443l-9-17.42,2.238-2.717-2.344-2.527,3.241-4.459h.011Z" transform="translate(-145.49 -5.479)" fill="#a66d58"/>
      <path id="Trazado_113441" data-name="Trazado 113441" d="M23,57.453,21.985,48.52,17.82,66.706,11.26,85.988l2.69,1.148,6.933-20.431Z" transform="translate(-5.389 -33.494)" fill="#d9a171"/>
      <path id="Trazado_113442" data-name="Trazado 113442" d="M113.176,58.329l-2.36-20.65-2.927,1.107,2.225,19.544a8.163,8.163,0,0,1-.034,2.1l-.555,3.8-2.6,17.742,2.878.747,2.778-18.49.555-3.795a8.163,8.163,0,0,0,.034-2.1Z" transform="translate(-91.292 -23.76)" fill="#e9c4a4"/>
      <g id="Grupo_59797" data-name="Grupo 59797" transform="translate(5.258 11.218)">
        <path id="Trazado_113443" data-name="Trazado 113443" d="M150.348,322.331a.612.612,0,0,0,.442.745l3.729.953a.613.613,0,0,0,.3-1.187l-3.729-.953a.613.613,0,0,0-.742.442Z" transform="translate(-135.518 -290.156)"/>
        <path id="Trazado_113444" data-name="Trazado 113444" d="M318.369,321.888l-3.729.953a.613.613,0,1,0,.3,1.187l3.729-.952a.613.613,0,0,0-.3-1.187Z" transform="translate(-282.641 -290.155)"/>
        <path id="Trazado_113445" data-name="Trazado 113445" d="M49.883,32.777,45.819,14.892h0a.613.613,0,0,0-.381-.437l-8.453-3.2a.611.611,0,0,0-.417-.005v-.016A23.2,23.2,0,0,1,25.3,11.27a.613.613,0,0,0-.48-.011L16.38,14.453a.613.613,0,0,0-.38.436h0L11.841,33.044,5.291,52.3a.613.613,0,0,0,.339.761l6.636,2.832a.613.613,0,0,0,.812-.344l3.766-9.814L15.031,58.124a.613.613,0,0,0,.452.681l8.878,2.3a2.767,2.767,0,0,0,.7.089,2.729,2.729,0,0,0,2.193-1.1l3.66-4.906,3.658,4.9a2.731,2.731,0,0,0,2.192,1.1,2.765,2.765,0,0,0,.7-.091l8.768-2.3a.613.613,0,0,0,.451-.678L44.9,45.565l3.73,9.976a.613.613,0,0,0,.814.349l6.635-2.832a.613.613,0,0,0,.34-.758ZM37.079,13.3l2.148,2.955-2,2.157a.613.613,0,0,0-.024.806l1.981,2.4-6.7,12.968Zm-6.222-.124a24.427,24.427,0,0,0,5.114-.541l-.465,2.148a22.938,22.938,0,0,1-9.187.022l-.464-2.149a24.4,24.4,0,0,0,5,.52ZM29.338,34.589l-6.7-12.968,1.981-2.4a.613.613,0,0,0-.024-.806l-2-2.157L24.74,13.3ZM30.3,53.96l-4.03,5.4a1.511,1.511,0,0,1-1.6.561l-8.346-2.166,3.07-20.994A8.783,8.783,0,0,0,19.43,34.5l-.8-6.985a.613.613,0,0,0-1.217.139l.8,6.985a7.553,7.553,0,0,1-.031,1.947l-.535,3.664h-.009L12.161,54.513,6.634,52.154l6.377-18.745a.627.627,0,0,0,.017-.061l3.365-14.692.689,6.057a.613.613,0,0,0,1.217-.139l-1.04-9.144,6.089-2.3L21.3,15.94a.613.613,0,0,0,.046.777l1.98,2.134-1.9,2.3a.613.613,0,0,0-.071.671L30.3,39.112ZM26.6,16.1a24.222,24.222,0,0,0,4.259.381,24.21,24.21,0,0,0,4.366-.4L30.909,36.062ZM45.391,57.758,37.15,59.919a1.511,1.511,0,0,1-1.6-.561l-4.027-5.4V39.112l8.935-17.288a.613.613,0,0,0-.071-.671l-1.9-2.3,1.98-2.134a.613.613,0,0,0,.046-.777l-2.044-2.813,6.09,2.3-2.173,19.09a8.825,8.825,0,0,0,.031,2.223Zm4.164-3.247L44.184,40.145l-.046.017-.508-3.59a7.6,7.6,0,0,1-.026-1.913l1.819-15.983,3.272,14.4a.593.593,0,0,0,.017.059l6.369,19.016Z" transform="translate(-5.258 -11.218)"/>
        <path id="Trazado_113446" data-name="Trazado 113446" d="M73.842,222.014a.613.613,0,0,0-.734.461,17.408,17.408,0,0,1-.476,1.686l-1.6,4.763a.613.613,0,1,0,1.161.39l1.6-4.764c.2-.592.37-1.2.509-1.8a.613.613,0,0,0-.46-.736Z" transform="translate(-64.287 -200.48)"/>
        <path id="Trazado_113447" data-name="Trazado 113447" d="M96.548,196.374a.613.613,0,0,0-.734.46l-.18.783a.613.613,0,0,0,1.194.274l.18-.783a.613.613,0,0,0-.46-.734Z" transform="translate(-86.394 -177.458)"/>
      </g>
    </g>
  </g>
</svg>
