<svg xmlns="http://www.w3.org/2000/svg" width="81.256" height="85.113" viewBox="0 0 81.256 85.113">
  <g id="law_16848841" transform="translate(-33.278 -25.157)">
    <g id="Grupo_1176553" data-name="Grupo 1176553" transform="translate(35.069 26.438)">
      <path id="Trazado_1031212" data-name="Trazado 1031212" d="M44.147,237.436q2.87,1.8,5.74,3.614c1.3.822,3.183.119,4.166-1.565l23.962-40.857-7.758-4.889L43.758,233c-1.088,1.616-.915,3.614.389,4.436Z" transform="translate(-43.043 -164.095)" fill="#6c3329" fill-rule="evenodd"/>
      <path id="Trazado_1031213" data-name="Trazado 1031213" d="M63.752,249.75l.079.051.011.005.083.051.006.005.083.051.006.005.083.051.011.005.077.051H64.2l.083.051.005.005.083.051.006.005.083.051.005.006.083.051.011.005.083.051.005.005.083.051.005.006.083.051h.005l.083.051.011.005.083.051.006.006.083.051.006.005.083.051.006.006.083.051.011.006.083.051.006.005.083.051h.005l.083.051.006.006.083.051.011.005.083.051.005.005.083.051.006.005.083.051c1.3.822,3.183.119,4.166-1.565l23.962-40.857-4.166-2.621L63.362,245.314c-1.091,1.616-.915,3.614.391,4.436Z" transform="translate(-59.049 -174.147)" fill="#883f30" fill-rule="evenodd"/>
      <path id="Trazado_1031214" data-name="Trazado 1031214" d="M0,0H18.223V35.851H0Z" transform="translate(15.926 22.546) rotate(-57.788)" fill="#fcc16c" fill-rule="evenodd"/>
      <path id="Trazado_1031215" data-name="Trazado 1031215" d="M99.188,35.394l-4.68-2.948a2.026,2.026,0,0,0-2.783.635L80.654,50.657a2.027,2.027,0,0,0,.629,2.783l4.685,2.948a2.023,2.023,0,0,0,2.783-.635L99.817,38.177A2.021,2.021,0,0,0,99.188,35.394Z" transform="translate(-73.502 -32.14)" fill="#883f30" fill-rule="evenodd"/>
      <path id="Trazado_1031216" data-name="Trazado 1031216" d="M96.839,33.923,94.5,32.446a2.026,2.026,0,0,0-2.783.635L80.644,50.657a2.027,2.027,0,0,0,.629,2.783l2.344,1.471Z" transform="translate(-73.494 -32.14)" fill="#6c3329" fill-rule="evenodd"/>
      <path id="Trazado_1031217" data-name="Trazado 1031217" d="M0,0H9.114V35.851H0Z" transform="translate(15.925 22.546) rotate(-57.788)" fill="#faa630" fill-rule="evenodd"/>
      <path id="Trazado_1031218" data-name="Trazado 1031218" d="M139.563,70.94l5.241,3.3L135.1,89.661l-5.247-3.3Z" transform="translate(-113.926 -63.822)" fill="#a35042" fill-rule="evenodd"/>
      <path id="Trazado_1031219" data-name="Trazado 1031219" d="M276.358,157.09l5.246,3.3-9.713,15.419-5.241-3.3Z" transform="translate(-225.63 -134.169)" fill="#a35042" fill-rule="evenodd"/>
      <path id="Trazado_1031220" data-name="Trazado 1031220" d="M219.728,138.97a4.919,4.919,0,1,1-6.786,1.539A4.919,4.919,0,0,1,219.728,138.97Z" transform="translate(-181.157 -118.753)" fill="#a35042" fill-rule="evenodd"/>
      <path id="Trazado_1031221" data-name="Trazado 1031221" d="M308.679,167.343,304,164.4a2.023,2.023,0,0,0-2.783.635L290.146,182.6a2.026,2.026,0,0,0,.635,2.783l4.68,2.948a2.024,2.024,0,0,0,2.783-.629l11.071-17.576A2.019,2.019,0,0,0,308.679,167.343Z" transform="translate(-244.566 -139.881)" fill="#883f30" fill-rule="evenodd"/>
      <path id="Trazado_1031222" data-name="Trazado 1031222" d="M306.339,165.862,304,164.385a2.023,2.023,0,0,0-2.783.635l-11.069,17.57a2.026,2.026,0,0,0,.635,2.783l2.341,1.477Z" transform="translate(-244.566 -139.873)" fill="#6c3329" fill-rule="evenodd"/>
    </g>
    <path id="Trazado_1031223" data-name="Trazado 1031223" d="M208.068,331.7a2.532,2.532,0,0,1,0,5.063H168.2a16.328,16.328,0,0,1,0-32.657h39.868a2.532,2.532,0,0,1,0,5.063H168.2a11.263,11.263,0,0,0,0,22.527h39.87Z" transform="translate(-96.837 -227.781)" fill="#5277bb"/>
    <path id="Trazado_1031224" data-name="Trazado 1031224" d="M190.743,354.257h38.351c-2.922-5.059-2.922-17.468,0-22.527H190.743a11.264,11.264,0,0,0,0,22.527Z" transform="translate(-119.382 -250.334)" fill="#c7c5e3" fill-rule="evenodd"/>
    <path id="Trazado_1031225" data-name="Trazado 1031225" d="M252.606,347.6c-.712-5.612-.073-12.428,1.908-15.866H216.163a11.165,11.165,0,0,0-5.023,1.191A11.261,11.261,0,0,0,221.874,347.6Z" transform="translate(-144.802 -250.334)" fill="#dfdcee" fill-rule="evenodd"/>
    <path id="Trazado_1031226" data-name="Trazado 1031226" d="M102.073,95.145a1.284,1.284,0,0,1,0,2.568H85.954a1.284,1.284,0,1,1,0-2.568Zm-26.005,0a1.284,1.284,0,0,1,0,2.568H73.016a1.284,1.284,0,0,1,0-2.568ZM68.1,90.168a1.284,1.284,0,0,1,0-2.568H80.68a1.284,1.284,0,1,1,0,2.568Zm21.856,0a1.284,1.284,0,0,1,0-2.568h7.208a1.284,1.284,0,0,1,0,2.568Zm17.253,12.471c-1.987-5.428-1.987-14.523,0-19.957H70.848a9.979,9.979,0,0,0,0,19.959H107.21Zm2.757-19.959c-2.242,4.8-2.242,15.158,0,19.957h.748a3.817,3.817,0,1,1,0,7.633H70.848A17.652,17.652,0,0,1,53.3,91.17l-6.63,11.3c-1.222,2.095-3.806,3.319-5.949,2l-5.74-3.614c-2.023-1.264-2.148-4.056-.868-6.079l.1-.156L59.966,56.46l-9.084-5.72a3.3,3.3,0,0,1-4.544,1.024l-4.68-2.948a3.3,3.3,0,0,1-1.035-4.544L51.694,26.7a3.3,3.3,0,0,1,4.544-1.035l4.6,2.9a3.315,3.315,0,0,1,1.128,4.6L90.126,50.893a3.3,3.3,0,0,1,4.544-1.024l4.68,2.948a3.3,3.3,0,0,1,1.035,4.544L89.37,74.854l-.13.193h21.476a3.817,3.817,0,1,1,0,7.633ZM60.962,78.1a17.543,17.543,0,0,1,9.886-3.053H83.3l-3.219-2.023a3.306,3.306,0,0,1-1.035-4.544l-9.09-5.725Zm50.632,27.476a1.223,1.223,0,0,0-.879-.369H70.848a12.548,12.548,0,0,1,0-25.1h39.868a1.247,1.247,0,0,0,0-2.495H70.848a15.044,15.044,0,0,0,0,30.089h39.868A1.248,1.248,0,0,0,111.594,105.576ZM97.986,54.98l-4.68-2.948a.747.747,0,0,0-1.02.235L81.216,69.837a.746.746,0,0,0,.235,1.02L86.13,73.8a.747.747,0,0,0,1.02-.229L98.216,56A.747.747,0,0,0,97.986,54.98Zm-14.6,6.609,5.371-8.528-3.078-1.939L77.336,64.378l3.073,1.934ZM73.807,45.567a6.2,6.2,0,1,1-4.676-.8A6.2,6.2,0,0,1,73.807,45.567Zm.244,4.441a3.64,3.64,0,1,0-.468,2.744A3.636,3.636,0,0,0,74.05,50.009Zm1.117,13,8.347-13.25L65.834,38.62,57.487,51.874Zm-19.849-12.5,8.347-13.25-3.073-1.939L52.246,48.572ZM59.553,30.78l-4.68-2.948a.74.74,0,0,0-1.014.229L42.788,45.637a.74.74,0,0,0,.229,1.014L47.7,49.6a.74.74,0,0,0,1.014-.229L59.788,31.794a.741.741,0,0,0-.235-1.014ZM67.8,61.391l-5.657-3.562L36.334,96.06c-.582.864-.748,2.157.006,2.631l5.74,3.614c.765.484,1.851-.255,2.381-1.123Z" transform="translate(0 0)"/>
  </g>
</svg>
