<svg xmlns="http://www.w3.org/2000/svg" xmlns:xlink="http://www.w3.org/1999/xlink" width="103" height="103" viewBox="0 0 103 103">
  <defs>
    <filter id="Trazado_874925" x="0" y="0" width="103" height="103" filterUnits="userSpaceOnUse">
      <feOffset dy="3" input="SourceAlpha"/>
      <feGaussianBlur stdDeviation="3" result="blur"/>
      <feFlood flood-opacity="0.161"/>
      <feComposite operator="in" in2="blur"/>
      <feComposite in="SourceGraphic"/>
    </filter>
  </defs>
  <g id="Grupo_1176821" data-name="Grupo 1176821" transform="translate(-799.5 -2511.157)">
    <g id="Grupo_1111316" data-name="Grupo 1111316" transform="translate(808.5 2517.157)">
      <g id="Grupo_1109835" data-name="Grupo 1109835" transform="translate(0 0)">
        <g id="Grupo_1107913" data-name="Grupo 1107913" transform="translate(0 0)">
          <g transform="matrix(1, 0, 0, 1, -9, -6)" filter="url(#Trazado_874925)">
            <g id="Trazado_874925-2" data-name="Trazado 874925" transform="translate(9 6)" fill="#cdb9f8" opacity="0.859">
              <path d="M 42.49984359741211 83.50018310546875 C 36.9642448425293 83.50018310546875 31.59502029418945 82.41635894775391 26.54131507873535 80.27883148193359 C 21.65926742553711 78.21389007568359 17.2744197845459 75.2574462890625 13.50857257843018 71.49160766601562 C 9.742737770080566 67.72576141357422 6.786290645599365 63.34091567993164 4.721349716186523 58.45886611938477 C 2.583820104598999 53.4051628112793 1.499996542930603 48.03593826293945 1.499996542930603 42.50033950805664 C 1.499996542930603 36.9642448425293 2.583820104598999 31.59502029418945 4.721349716186523 26.54131507873535 C 6.786290645599365 21.65926742553711 9.742737770080566 17.27442169189453 13.50857257843018 13.50857353210449 C 17.2744197845459 9.742738723754883 21.65926742553711 6.786291599273682 26.54131507873535 4.721350193023682 C 31.59502029418945 2.583821058273315 36.9642448425293 1.49999737739563 42.49984359741211 1.49999737739563 C 48.03545379638672 1.49999737739563 53.40467834472656 2.583821058273315 58.4583740234375 4.721350193023682 C 63.34043121337891 6.786291599273682 67.72528076171875 9.742738723754883 71.49111175537109 13.50857353210449 C 75.25695037841797 17.27442169189453 78.21339416503906 21.65926742553711 80.27833557128906 26.54131507873535 C 82.41587066650391 31.59502029418945 83.49968719482422 36.9642448425293 83.49968719482422 42.49984359741211 C 83.49968719482422 48.03593826293945 82.41587066650391 53.4051628112793 80.27833557128906 58.45886611938477 C 78.21339416503906 63.34091567993164 75.25695037841797 67.72576141357422 71.49111175537109 71.49160766601562 C 67.72528076171875 75.2574462890625 63.34043121337891 78.21389007568359 58.4583740234375 80.27883148193359 C 53.40467834472656 82.41635894775391 48.03545379638672 83.50018310546875 42.49984359741211 83.50018310546875 Z" stroke="none"/>
              <path d="M 42.49984359741211 3 C 37.16606903076172 3 31.99344253540039 4.043960571289062 27.12564468383789 6.102867126464844 C 22.42237854003906 8.092170715332031 18.19780731201172 10.94066619873047 14.56922912597656 14.56923675537109 C 10.940673828125 18.19779968261719 8.092178344726562 22.42238616943359 6.102859497070312 27.12563705444336 C 4.043952941894531 31.99343872070312 3 37.16606521606445 3 42.50033187866211 C 3 47.8341064453125 4.043952941894531 53.00672912597656 6.102859497070312 57.87453079223633 C 8.092178344726562 62.57778549194336 10.940673828125 66.8023681640625 14.56922912597656 70.43094635009766 C 18.19780731201172 74.05950164794922 22.42238998413086 76.90801239013672 27.12564468383789 78.89731597900391 C 31.99344253540039 80.95622253417969 37.16606903076172 82.00018310546875 42.49984359741211 82.00018310546875 C 47.83360290527344 82.00018310546875 53.00624084472656 80.95622253417969 57.87404632568359 78.89731597900391 C 62.57729721069336 76.90801239013672 66.8018798828125 74.05950164794922 70.43044281005859 70.43094635009766 C 74.05902099609375 66.8023681640625 76.90750885009766 62.57778549194336 78.89682006835938 57.87453079223633 C 80.95572662353516 53.00672912597656 81.99968719482422 47.83409118652344 81.99968719482422 42.49983978271484 C 81.99968719482422 37.16607666015625 80.95572662353516 31.99343872070312 78.89682006835938 27.12563705444336 C 76.90750885009766 22.42238616943359 74.05902099609375 18.19779968261719 70.43044281005859 14.56923675537109 C 66.8018798828125 10.94066619873047 62.57729721069336 8.092170715332031 57.87404632568359 6.102867126464844 C 53.00624084472656 4.043960571289062 47.83360290527344 3 42.49984359741211 3 M 42.49984359741211 0 C 65.97185516357422 0 84.99968719482422 19.02782440185547 84.99968719482422 42.49983978271484 L 84.99968719482422 42.50033187866211 C 84.99968719482422 65.97234344482422 65.97185516357422 85.00018310546875 42.49984359741211 85.00018310546875 C 19.02781677246094 85.00018310546875 0 65.97234344482422 0 42.50033187866211 L 0 42.49983978271484 C 0 19.02782440185547 19.02781677246094 0 42.49984359741211 0 Z" stroke="none" fill="#fff"/>
            </g>
          </g>
          <g id="Trazado_874923" data-name="Trazado 874923" transform="translate(0 0)" fill="none">
            <path d="M42.5,0A42.5,42.5,0,0,1,85,42.5h0a42.5,42.5,0,1,1-85,0H0A42.5,42.5,0,0,1,42.5,0Z" stroke="none"/>
            <path d="M 42.49984359741211 3 C 37.16606903076172 3 31.99344253540039 4.043960571289062 27.12564468383789 6.102867126464844 C 22.42237854003906 8.092170715332031 18.19780731201172 10.94066619873047 14.56922912597656 14.56923675537109 C 10.940673828125 18.19779968261719 8.092178344726562 22.42238616943359 6.102859497070312 27.12563705444336 C 4.043952941894531 31.99343872070312 3 37.16606521606445 3 42.50033187866211 C 3 47.8341064453125 4.043952941894531 53.00672912597656 6.102859497070312 57.87453079223633 C 8.092178344726562 62.57778549194336 10.940673828125 66.8023681640625 14.56922912597656 70.43094635009766 C 18.19780731201172 74.05950164794922 22.42238998413086 76.90801239013672 27.12564468383789 78.89731597900391 C 31.99344253540039 80.95622253417969 37.16606903076172 82.00018310546875 42.49984359741211 82.00018310546875 C 47.83360290527344 82.00018310546875 53.00624084472656 80.95622253417969 57.87404632568359 78.89731597900391 C 62.57729721069336 76.90801239013672 66.8018798828125 74.05950164794922 70.43044281005859 70.43094635009766 C 74.05902099609375 66.8023681640625 76.90750885009766 62.57778549194336 78.89682006835938 57.87453079223633 C 80.95572662353516 53.00672912597656 81.99968719482422 47.83409118652344 81.99968719482422 42.49983978271484 C 81.99968719482422 37.16607666015625 80.95572662353516 31.99343872070312 78.89682006835938 27.12563705444336 C 76.90750885009766 22.42238616943359 74.05902099609375 18.19779968261719 70.43044281005859 14.56923675537109 C 66.8018798828125 10.94066619873047 62.57729721069336 8.092170715332031 57.87404632568359 6.102867126464844 C 53.00624084472656 4.043960571289062 47.83360290527344 3 42.49984359741211 3 M 42.49984359741211 0 C 65.97185516357422 0 84.99968719482422 19.02782440185547 84.99968719482422 42.49983978271484 L 84.99968719482422 42.50033187866211 C 84.99968719482422 65.97234344482422 65.97185516357422 85.00018310546875 42.49984359741211 85.00018310546875 C 19.02781677246094 85.00018310546875 0 65.97234344482422 0 42.50033187866211 L 0 42.49983978271484 C 0 19.02782440185547 19.02781677246094 0 42.49984359741211 0 Z" stroke="none" fill="#fff"/>
          </g>
        </g>
      </g>
    </g>
    <g id="pelo" transform="translate(799.817 2533.326)">
      <path id="Trazado_113448" data-name="Trazado 113448" d="M74.662,168.575l-12.357-3.593V152.326a10,10,0,0,0-9.824-8.122H50.092v10a7.959,7.959,0,0,0,3.717,6.738v4.04l-12.357,3.593a3.54,3.54,0,0,0-2.511,3.387,31.393,31.393,0,0,0-.649,4.545c.15.525,2.192,1.876,4.475,3.325a31.123,31.123,0,0,0,15.325,4.325c3.909,0,4,.23,9.644-1.462a26.478,26.478,0,0,0,9.438-5.2l.643-.544-.643-4.989a3.54,3.54,0,0,0-2.512-3.387Z" transform="translate(-6.873 -131.504)" fill="#ffdaaa"/>
      <path id="Trazado_113449" data-name="Trazado 113449" d="M216.26,338.311v-4.04a7.927,7.927,0,0,1-4.248,1.227h0a7.927,7.927,0,0,1-4.248-1.227v2.02a9.729,9.729,0,0,0,6.726.656v12.976h13.585v-8.178Z" transform="translate(-160.828 -304.832)" fill="#ffc477"/>
      <path id="Trazado_113450" data-name="Trazado 113450" d="M98.394,7.537h0A14.735,14.735,0,0,0,83.659,22.272V27.8a10.784,10.784,0,0,0,10.8,10.708h.133v-2.2a7.959,7.959,0,0,1-3.717-6.738v-10h2.389a10,10,0,0,1,9.824,8.124V51.962H113.13V22.272A14.735,14.735,0,0,0,98.394,7.537Z" transform="translate(-47.653 -6.873)" fill="#d9a171"/>
      <path id="Trazado_113451" data-name="Trazado 113451" d="M264.7,38.671a9.193,9.193,0,0,0-.52-1.209l1.178-.611a10.5,10.5,0,0,1,.6,1.384ZM263.536,36.4A9.225,9.225,0,0,0,256,32.479V31.152a10.554,10.554,0,0,1,8.622,4.49Z" transform="translate(-204.816 -28.408)" fill="#fff"/>
      <path id="Trazado_113452" data-name="Trazado 113452" d="M150.948,155.632v-2.02a7.959,7.959,0,0,1-3.717-6.738V136.165h-1.77v10.709A9.747,9.747,0,0,0,150.948,155.632Z" transform="translate(-104.012 -124.173)" fill="#dba34b"/>
      <path id="Trazado_113453" data-name="Trazado 113453" d="M167.948,144.2h-2.389v1.77h.619c4.881,0,9.824,3.452,9.824,8.122v7.68a7.941,7.941,0,0,0,1.77-.833v-8.616A10,10,0,0,0,167.948,144.2Z" transform="translate(-122.34 -131.504)" fill="#ffc477"/>
      <rect id="Rect치ngulo_8862" data-name="Rect치ngulo 8862" width="1.328" height="22.479" transform="translate(61.524 22.612)"/>
      <rect id="Rect치ngulo_8863" data-name="Rect치ngulo 8863" width="1.328" height="15.399" transform="translate(58.235 29.692)"/>
      <path id="Trazado_113454" data-name="Trazado 113454" d="M446.035,415.4l-.514,1.276a2.994,2.994,0,0,1,1.762,2.763v4.828h1.328v-4.828a4.377,4.377,0,0,0-2.576-4.039Z" transform="translate(-377.646 -378.815)"/>
      <path id="Trazado_113455" data-name="Trazado 113455" d="M50.741,0a15.417,15.417,0,0,0-15.4,15.4v5.532A11.426,11.426,0,0,0,46.272,32.29v.69L34.386,36.436A4.18,4.18,0,0,0,31.4,40.459v4.633h1.328V40.458a2.858,2.858,0,0,1,2.033-2.75L47.6,33.977V30.549a8.623,8.623,0,0,0,7.169,0V45.091H56.1V20.759l-.012-.061a10.669,10.669,0,0,0-10.476-8.662H42.555V22.7a8.625,8.625,0,0,0,3.717,7.09v1.171a10.1,10.1,0,0,1-9.6-10.031V15.4a14.072,14.072,0,1,1,28.144,0V43.764h-.044v1.327h1.372V15.4A15.417,15.417,0,0,0,50.741,0ZM43.883,22.7V13.364h1.726a9.34,9.34,0,0,1,9.16,7.521v8.177A7.3,7.3,0,0,1,43.883,22.7Z"/>
    </g>
  </g>
</svg>
