<svg xmlns="http://www.w3.org/2000/svg" xmlns:xlink="http://www.w3.org/1999/xlink" width="103" height="103" viewBox="0 0 103 103">
  <defs>
    <filter id="Trazado_874925" x="0" y="0" width="103" height="103" filterUnits="userSpaceOnUse">
      <feOffset dy="3" input="SourceAlpha"/>
      <feGaussianBlur stdDeviation="3" result="blur"/>
      <feFlood flood-opacity="0.161"/>
      <feComposite operator="in" in2="blur"/>
      <feComposite in="SourceGraphic"/>
    </filter>
  </defs>
  <g id="Grupo_1176826" data-name="Grupo 1176826" transform="translate(-799.5 -2511.157)">
    <g id="Grupo_1111316" data-name="Grupo 1111316" transform="translate(808.5 2517.157)">
      <g id="Grupo_1109835" data-name="Grupo 1109835" transform="translate(0 0)">
        <g id="Grupo_1107913" data-name="Grupo 1107913" transform="translate(0 0)">
          <g transform="matrix(1, 0, 0, 1, -9, -6)" filter="url(#Trazado_874925)">
            <g id="Trazado_874925-2" data-name="Trazado 874925" transform="translate(9 6)" fill="#cdb9f8" opacity="0.859">
              <path d="M 42.49984359741211 83.50018310546875 C 36.9642448425293 83.50018310546875 31.59502029418945 82.41635894775391 26.54131507873535 80.27883148193359 C 21.65926742553711 78.21389007568359 17.2744197845459 75.2574462890625 13.50857257843018 71.49160766601562 C 9.742737770080566 67.72576141357422 6.786290645599365 63.34091567993164 4.721349716186523 58.45886611938477 C 2.583820104598999 53.4051628112793 1.499996542930603 48.03593826293945 1.499996542930603 42.50033950805664 C 1.499996542930603 36.9642448425293 2.583820104598999 31.59502029418945 4.721349716186523 26.54131507873535 C 6.786290645599365 21.65926742553711 9.742737770080566 17.27442169189453 13.50857257843018 13.50857353210449 C 17.2744197845459 9.742738723754883 21.65926742553711 6.786291599273682 26.54131507873535 4.721350193023682 C 31.59502029418945 2.583821058273315 36.9642448425293 1.49999737739563 42.49984359741211 1.49999737739563 C 48.03545379638672 1.49999737739563 53.40467834472656 2.583821058273315 58.4583740234375 4.721350193023682 C 63.34043121337891 6.786291599273682 67.72528076171875 9.742738723754883 71.49111175537109 13.50857353210449 C 75.25695037841797 17.27442169189453 78.21339416503906 21.65926742553711 80.27833557128906 26.54131507873535 C 82.41587066650391 31.59502029418945 83.49968719482422 36.9642448425293 83.49968719482422 42.49984359741211 C 83.49968719482422 48.03593826293945 82.41587066650391 53.4051628112793 80.27833557128906 58.45886611938477 C 78.21339416503906 63.34091567993164 75.25695037841797 67.72576141357422 71.49111175537109 71.49160766601562 C 67.72528076171875 75.2574462890625 63.34043121337891 78.21389007568359 58.4583740234375 80.27883148193359 C 53.40467834472656 82.41635894775391 48.03545379638672 83.50018310546875 42.49984359741211 83.50018310546875 Z" stroke="none"/>
              <path d="M 42.49984359741211 3 C 37.16606903076172 3 31.99344253540039 4.043960571289062 27.12564468383789 6.102867126464844 C 22.42237854003906 8.092170715332031 18.19780731201172 10.94066619873047 14.56922912597656 14.56923675537109 C 10.940673828125 18.19779968261719 8.092178344726562 22.42238616943359 6.102859497070312 27.12563705444336 C 4.043952941894531 31.99343872070312 3 37.16606521606445 3 42.50033187866211 C 3 47.8341064453125 4.043952941894531 53.00672912597656 6.102859497070312 57.87453079223633 C 8.092178344726562 62.57778549194336 10.940673828125 66.8023681640625 14.56922912597656 70.43094635009766 C 18.19780731201172 74.05950164794922 22.42238998413086 76.90801239013672 27.12564468383789 78.89731597900391 C 31.99344253540039 80.95622253417969 37.16606903076172 82.00018310546875 42.49984359741211 82.00018310546875 C 47.83360290527344 82.00018310546875 53.00624084472656 80.95622253417969 57.87404632568359 78.89731597900391 C 62.57729721069336 76.90801239013672 66.8018798828125 74.05950164794922 70.43044281005859 70.43094635009766 C 74.05902099609375 66.8023681640625 76.90750885009766 62.57778549194336 78.89682006835938 57.87453079223633 C 80.95572662353516 53.00672912597656 81.99968719482422 47.83409118652344 81.99968719482422 42.49983978271484 C 81.99968719482422 37.16607666015625 80.95572662353516 31.99343872070312 78.89682006835938 27.12563705444336 C 76.90750885009766 22.42238616943359 74.05902099609375 18.19779968261719 70.43044281005859 14.56923675537109 C 66.8018798828125 10.94066619873047 62.57729721069336 8.092170715332031 57.87404632568359 6.102867126464844 C 53.00624084472656 4.043960571289062 47.83360290527344 3 42.49984359741211 3 M 42.49984359741211 0 C 65.97185516357422 0 84.99968719482422 19.02782440185547 84.99968719482422 42.49983978271484 L 84.99968719482422 42.50033187866211 C 84.99968719482422 65.97234344482422 65.97185516357422 85.00018310546875 42.49984359741211 85.00018310546875 C 19.02781677246094 85.00018310546875 0 65.97234344482422 0 42.50033187866211 L 0 42.49983978271484 C 0 19.02782440185547 19.02781677246094 0 42.49984359741211 0 Z" stroke="none" fill="#fff"/>
            </g>
          </g>
          <g id="Trazado_874923" data-name="Trazado 874923" transform="translate(0 0)" fill="none">
            <path d="M42.5,0A42.5,42.5,0,0,1,85,42.5h0a42.5,42.5,0,1,1-85,0H0A42.5,42.5,0,0,1,42.5,0Z" stroke="none"/>
            <path d="M 42.49984359741211 3 C 37.16606903076172 3 31.99344253540039 4.043960571289062 27.12564468383789 6.102867126464844 C 22.42237854003906 8.092170715332031 18.19780731201172 10.94066619873047 14.56922912597656 14.56923675537109 C 10.940673828125 18.19779968261719 8.092178344726562 22.42238616943359 6.102859497070312 27.12563705444336 C 4.043952941894531 31.99343872070312 3 37.16606521606445 3 42.50033187866211 C 3 47.8341064453125 4.043952941894531 53.00672912597656 6.102859497070312 57.87453079223633 C 8.092178344726562 62.57778549194336 10.940673828125 66.8023681640625 14.56922912597656 70.43094635009766 C 18.19780731201172 74.05950164794922 22.42238998413086 76.90801239013672 27.12564468383789 78.89731597900391 C 31.99344253540039 80.95622253417969 37.16606903076172 82.00018310546875 42.49984359741211 82.00018310546875 C 47.83360290527344 82.00018310546875 53.00624084472656 80.95622253417969 57.87404632568359 78.89731597900391 C 62.57729721069336 76.90801239013672 66.8018798828125 74.05950164794922 70.43044281005859 70.43094635009766 C 74.05902099609375 66.8023681640625 76.90750885009766 62.57778549194336 78.89682006835938 57.87453079223633 C 80.95572662353516 53.00672912597656 81.99968719482422 47.83409118652344 81.99968719482422 42.49983978271484 C 81.99968719482422 37.16607666015625 80.95572662353516 31.99343872070312 78.89682006835938 27.12563705444336 C 76.90750885009766 22.42238616943359 74.05902099609375 18.19779968261719 70.43044281005859 14.56923675537109 C 66.8018798828125 10.94066619873047 62.57729721069336 8.092170715332031 57.87404632568359 6.102867126464844 C 53.00624084472656 4.043960571289062 47.83360290527344 3 42.49984359741211 3 M 42.49984359741211 0 C 65.97185516357422 0 84.99968719482422 19.02782440185547 84.99968719482422 42.49983978271484 L 84.99968719482422 42.50033187866211 C 84.99968719482422 65.97234344482422 65.97185516357422 85.00018310546875 42.49984359741211 85.00018310546875 C 19.02781677246094 85.00018310546875 0 65.97234344482422 0 42.50033187866211 L 0 42.49983978271484 C 0 19.02782440185547 19.02781677246094 0 42.49984359741211 0 Z" stroke="none" fill="#fff"/>
          </g>
        </g>
      </g>
    </g>
    <g id="img-20.68d9377e" transform="translate(820.609 2530.76)">
      <g id="XMLID_1365_" transform="translate(-17.084 5.999)">
        <g id="XMLID_1282_" transform="translate(27.885 13.648)">
          <path id="XMLID_1152_" d="M50.914,283.418a8.148,8.148,0,0,1-12.139-10.832l6.377-8.02,6.377,8.02a8.148,8.148,0,0,1-.615,10.832Z" transform="translate(-37.005 -254.548)" fill="#e6d4f1"/>
          <circle id="XMLID_1075_" cx="2.147" cy="2.147" r="2.147" transform="translate(6.001 0)" fill="#a66d58"/>
          <circle id="XMLID_1031_" cx="2.862" cy="2.862" r="2.862" transform="translate(5.285 4.294)" fill="#a66d58"/>
          <g id="XMLID_1227_" transform="translate(3.935 16.342)">
            <path id="XMLID_1228_" d="M85.21,335.262l-3.3,4.146a4.212,4.212,0,1,0,6.593,0Z" transform="translate(-80.997 -335.262)" fill="#d9a171"/>
          </g>
        </g>
        <g id="XMLID_1284_" transform="translate(50.769 8.818)">
          <path id="XMLID_1298_" d="M306.741,229.418A8.148,8.148,0,0,1,294.6,218.586l6.377-8.02,6.377,8.02A8.148,8.148,0,0,1,306.741,229.418Z" transform="translate(-292.832 -200.548)" fill="#e6d4f1"/>
          <circle id="XMLID_1297_" cx="2.147" cy="2.147" r="2.147" transform="translate(6.001 0)" fill="#a66d58"/>
          <circle id="XMLID_1296_" cx="2.862" cy="2.862" r="2.862" transform="translate(5.285 4.294)" fill="#a66d58"/>
          <g id="XMLID_1289_" transform="translate(3.935 16.342)">
            <path id="XMLID_1290_" d="M341.037,281.262l-3.3,4.146a4.212,4.212,0,1,0,6.593,0Z" transform="translate(-336.824 -281.262)" fill="#d9a171"/>
          </g>
        </g>
        <g id="XMLID_76_" transform="translate(26.989 0.001)">
          <path id="XMLID_99_" d="M37.61,73.381a3.754,3.754,0,0,0,.694-6.4,3.039,3.039,0,0,0-1.377-4.926v-.6a.55.55,0,0,1,.368-.512,3.588,3.588,0,1,0-4.85-3.359.9.9,0,0,0,1.789,0,1.8,1.8,0,1,1,2.429,1.685,2.354,2.354,0,0,0-1.527,2.187v.6a3.039,3.039,0,0,0-1.377,4.926,3.754,3.754,0,0,0,.694,6.4l-5.5,6.917a9.044,9.044,0,0,0,9.63,14.3.894.894,0,0,0-.5-1.717,7.254,7.254,0,0,1-7.726-11.474l5.677-7.139,5.677,7.139a7.267,7.267,0,0,1,1.282,6.562.9.9,0,1,0,1.717.5,9.058,9.058,0,0,0-1.6-8.18Zm-2.83-8.417a1.252,1.252,0,1,1,1.252,1.252,1.252,1.252,0,0,1-1.252-1.252ZM36.033,68a1.968,1.968,0,1,1-1.968,1.968A1.968,1.968,0,0,1,36.033,68Z" transform="translate(-26.989 -49.17)"/>
          <path id="XMLID_1174_" d="M80.1,329.745,76.8,325.6a.9.9,0,0,0-1.4,0l-3.3,4.146a5.106,5.106,0,1,0,7.994,0Zm-1.651,5.524a3.317,3.317,0,0,1-4.942-4.41l2.6-3.265,2.6,3.265a3.316,3.316,0,0,1-.258,4.41Z" transform="translate(-67.06 -296.166)"/>
          <path id="XMLID_1675_" d="M298.936,26.3l-5.5-6.917a3.754,3.754,0,0,0,.694-6.4,3.039,3.039,0,0,0-1.377-4.926v-.6a.55.55,0,0,1,.368-.512,3.586,3.586,0,1,0-4.85-3.356.9.9,0,1,0,1.789,0,1.8,1.8,0,1,1,2.429,1.685,2.354,2.354,0,0,0-1.527,2.187v.6a3.039,3.039,0,0,0-1.377,4.926,3.754,3.754,0,0,0,.694,6.4l-5.5,6.917a9.042,9.042,0,1,0,14.155,0Zm-8.33-15.335a1.252,1.252,0,1,1,1.252,1.252,1.252,1.252,0,0,1-1.252-1.252Zm1.252,3.041a1.968,1.968,0,1,1-1.968,1.968,1.968,1.968,0,0,1,1.968-1.968Zm5.129,23.05a7.253,7.253,0,0,1-10.806-9.643l5.677-7.139,5.677,7.139a7.25,7.25,0,0,1-.547,9.643Z" transform="translate(-259.931 -0.001)"/>
          <path id="XMLID_1684_" d="M332.63,271.6a.9.9,0,0,0-1.4,0l-3.3,4.146a5.106,5.106,0,1,0,7.994,0Zm1.646,9.67a3.317,3.317,0,0,1-4.942-4.41l2.6-3.265,2.6,3.265a3.316,3.316,0,0,1-.259,4.409Z" transform="translate(-300.002 -246.997)"/>
          <path id="XMLID_1686_" d="M183.389,465.321a.893.893,0,1,0,.633.262.893.893,0,0,0-.633-.262Z" transform="translate(-168.584 -423.698)"/>
        </g>
      </g>
    </g>
  </g>
</svg>
