<svg xmlns="http://www.w3.org/2000/svg" xmlns:xlink="http://www.w3.org/1999/xlink" width="103" height="103" viewBox="0 0 103 103">
  <defs>
    <filter id="Trazado_874925" x="0" y="0" width="103" height="103" filterUnits="userSpaceOnUse">
      <feOffset dy="3" input="SourceAlpha"/>
      <feGaussianBlur stdDeviation="3" result="blur"/>
      <feFlood flood-opacity="0.161"/>
      <feComposite operator="in" in2="blur"/>
      <feComposite in="SourceGraphic"/>
    </filter>
  </defs>
  <g id="Grupo_1176828" data-name="Grupo 1176828" transform="translate(-799.5 -2511.157)">
    <g id="Grupo_1111316" data-name="Grupo 1111316" transform="translate(808.5 2517.157)">
      <g id="Grupo_1109835" data-name="Grupo 1109835" transform="translate(0 0)">
        <g id="Grupo_1107913" data-name="Grupo 1107913" transform="translate(0 0)">
          <g transform="matrix(1, 0, 0, 1, -9, -6)" filter="url(#Trazado_874925)">
            <g id="Trazado_874925-2" data-name="Trazado 874925" transform="translate(9 6)" fill="#cdb9f8" opacity="0.859">
              <path d="M 42.49984359741211 83.50018310546875 C 36.9642448425293 83.50018310546875 31.59502029418945 82.41635894775391 26.54131507873535 80.27883148193359 C 21.65926742553711 78.21389007568359 17.2744197845459 75.2574462890625 13.50857257843018 71.49160766601562 C 9.742737770080566 67.72576141357422 6.786290645599365 63.34091567993164 4.721349716186523 58.45886611938477 C 2.583820104598999 53.4051628112793 1.499996542930603 48.03593826293945 1.499996542930603 42.50033950805664 C 1.499996542930603 36.9642448425293 2.583820104598999 31.59502029418945 4.721349716186523 26.54131507873535 C 6.786290645599365 21.65926742553711 9.742737770080566 17.27442169189453 13.50857257843018 13.50857353210449 C 17.2744197845459 9.742738723754883 21.65926742553711 6.786291599273682 26.54131507873535 4.721350193023682 C 31.59502029418945 2.583821058273315 36.9642448425293 1.49999737739563 42.49984359741211 1.49999737739563 C 48.03545379638672 1.49999737739563 53.40467834472656 2.583821058273315 58.4583740234375 4.721350193023682 C 63.34043121337891 6.786291599273682 67.72528076171875 9.742738723754883 71.49111175537109 13.50857353210449 C 75.25695037841797 17.27442169189453 78.21339416503906 21.65926742553711 80.27833557128906 26.54131507873535 C 82.41587066650391 31.59502029418945 83.49968719482422 36.9642448425293 83.49968719482422 42.49984359741211 C 83.49968719482422 48.03593826293945 82.41587066650391 53.4051628112793 80.27833557128906 58.45886611938477 C 78.21339416503906 63.34091567993164 75.25695037841797 67.72576141357422 71.49111175537109 71.49160766601562 C 67.72528076171875 75.2574462890625 63.34043121337891 78.21389007568359 58.4583740234375 80.27883148193359 C 53.40467834472656 82.41635894775391 48.03545379638672 83.50018310546875 42.49984359741211 83.50018310546875 Z" stroke="none"/>
              <path d="M 42.49984359741211 3 C 37.16606903076172 3 31.99344253540039 4.043960571289062 27.12564468383789 6.102867126464844 C 22.42237854003906 8.092170715332031 18.19780731201172 10.94066619873047 14.56922912597656 14.56923675537109 C 10.940673828125 18.19779968261719 8.092178344726562 22.42238616943359 6.102859497070312 27.12563705444336 C 4.043952941894531 31.99343872070312 3 37.16606521606445 3 42.50033187866211 C 3 47.8341064453125 4.043952941894531 53.00672912597656 6.102859497070312 57.87453079223633 C 8.092178344726562 62.57778549194336 10.940673828125 66.8023681640625 14.56922912597656 70.43094635009766 C 18.19780731201172 74.05950164794922 22.42238998413086 76.90801239013672 27.12564468383789 78.89731597900391 C 31.99344253540039 80.95622253417969 37.16606903076172 82.00018310546875 42.49984359741211 82.00018310546875 C 47.83360290527344 82.00018310546875 53.00624084472656 80.95622253417969 57.87404632568359 78.89731597900391 C 62.57729721069336 76.90801239013672 66.8018798828125 74.05950164794922 70.43044281005859 70.43094635009766 C 74.05902099609375 66.8023681640625 76.90750885009766 62.57778549194336 78.89682006835938 57.87453079223633 C 80.95572662353516 53.00672912597656 81.99968719482422 47.83409118652344 81.99968719482422 42.49983978271484 C 81.99968719482422 37.16607666015625 80.95572662353516 31.99343872070312 78.89682006835938 27.12563705444336 C 76.90750885009766 22.42238616943359 74.05902099609375 18.19779968261719 70.43044281005859 14.56923675537109 C 66.8018798828125 10.94066619873047 62.57729721069336 8.092170715332031 57.87404632568359 6.102867126464844 C 53.00624084472656 4.043960571289062 47.83360290527344 3 42.49984359741211 3 M 42.49984359741211 0 C 65.97185516357422 0 84.99968719482422 19.02782440185547 84.99968719482422 42.49983978271484 L 84.99968719482422 42.50033187866211 C 84.99968719482422 65.97234344482422 65.97185516357422 85.00018310546875 42.49984359741211 85.00018310546875 C 19.02781677246094 85.00018310546875 0 65.97234344482422 0 42.50033187866211 L 0 42.49983978271484 C 0 19.02782440185547 19.02781677246094 0 42.49984359741211 0 Z" stroke="none" fill="#fff"/>
            </g>
          </g>
          <g id="Trazado_874923" data-name="Trazado 874923" transform="translate(0 0)" fill="none">
            <path d="M42.5,0A42.5,42.5,0,0,1,85,42.5h0a42.5,42.5,0,1,1-85,0H0A42.5,42.5,0,0,1,42.5,0Z" stroke="none"/>
            <path d="M 42.49984359741211 3 C 37.16606903076172 3 31.99344253540039 4.043960571289062 27.12564468383789 6.102867126464844 C 22.42237854003906 8.092170715332031 18.19780731201172 10.94066619873047 14.56922912597656 14.56923675537109 C 10.940673828125 18.19779968261719 8.092178344726562 22.42238616943359 6.102859497070312 27.12563705444336 C 4.043952941894531 31.99343872070312 3 37.16606521606445 3 42.50033187866211 C 3 47.8341064453125 4.043952941894531 53.00672912597656 6.102859497070312 57.87453079223633 C 8.092178344726562 62.57778549194336 10.940673828125 66.8023681640625 14.56922912597656 70.43094635009766 C 18.19780731201172 74.05950164794922 22.42238998413086 76.90801239013672 27.12564468383789 78.89731597900391 C 31.99344253540039 80.95622253417969 37.16606903076172 82.00018310546875 42.49984359741211 82.00018310546875 C 47.83360290527344 82.00018310546875 53.00624084472656 80.95622253417969 57.87404632568359 78.89731597900391 C 62.57729721069336 76.90801239013672 66.8018798828125 74.05950164794922 70.43044281005859 70.43094635009766 C 74.05902099609375 66.8023681640625 76.90750885009766 62.57778549194336 78.89682006835938 57.87453079223633 C 80.95572662353516 53.00672912597656 81.99968719482422 47.83409118652344 81.99968719482422 42.49983978271484 C 81.99968719482422 37.16607666015625 80.95572662353516 31.99343872070312 78.89682006835938 27.12563705444336 C 76.90750885009766 22.42238616943359 74.05902099609375 18.19779968261719 70.43044281005859 14.56923675537109 C 66.8018798828125 10.94066619873047 62.57729721069336 8.092170715332031 57.87404632568359 6.102867126464844 C 53.00624084472656 4.043960571289062 47.83360290527344 3 42.49984359741211 3 M 42.49984359741211 0 C 65.97185516357422 0 84.99968719482422 19.02782440185547 84.99968719482422 42.49983978271484 L 84.99968719482422 42.50033187866211 C 84.99968719482422 65.97234344482422 65.97185516357422 85.00018310546875 42.49984359741211 85.00018310546875 C 19.02781677246094 85.00018310546875 0 65.97234344482422 0 42.50033187866211 L 0 42.49983978271484 C 0 19.02782440185547 19.02781677246094 0 42.49984359741211 0 Z" stroke="none" fill="#fff"/>
          </g>
        </g>
      </g>
    </g>
    <g id="Grupo_59808" data-name="Grupo 59808" transform="translate(429.417 -4862.219)">
      <g id="handshake" transform="translate(396.999 7400.985)">
        <path id="Trazado_113531" data-name="Trazado 113531" d="M245.991,143.729l-7.02,5.716,10.824,14.96,14.511-10.3-9.39-12.763-4.867,3.725Z" transform="translate(-216.033 -131.451)" fill="#fef0bf"/>
        <path id="Trazado_113532" data-name="Trazado 113532" d="M367.374,71.384l1.991-1.579V45.955l-14.346,9.208Z" transform="translate(-320.941 -45.217)" fill="#d9a171"/>
        <path id="Trazado_113533" data-name="Trazado 113533" d="M455.635,244.9l2.7,3.541,1.991-1.579v-5.051Z" transform="translate(-411.9 -222.271)" fill="#a66d58"/>
        <path id="Trazado_113534" data-name="Trazado 113534" d="M271.724,233.316l-15.538-8.469,2.209-4.053,15.538,8.469a2.308,2.308,0,0,1,.922,3.131h0A2.308,2.308,0,0,1,271.724,233.316Z" transform="translate(-231.595 -203.275)" fill="#f2e9e4"/>
        <path id="Trazado_113535" data-name="Trazado 113535" d="M344.161,292.559l-8.467-4.615-1,1.715,8,4.361a2.306,2.306,0,0,0,3.295-1.3A2.3,2.3,0,0,1,344.161,292.559Z" transform="translate(-302.571 -263.98)" fill="#d0c1b9"/>
        <path id="Trazado_113536" data-name="Trazado 113536" d="M234.631,267.871,219.093,259.4l2.21-4.053,15.538,8.469a2.308,2.308,0,0,1,.922,3.131h0a2.308,2.308,0,0,1-3.131.922Z" transform="translate(-198.063 -234.512)" fill="#f2e9e4"/>
        <path id="Trazado_113537" data-name="Trazado 113537" d="M318.521,335.212l-7.1-3.87-.9,1.542,6.761,3.685a2.306,2.306,0,0,0,3.289-1.282,2.3,2.3,0,0,1-2.054-.076Z" transform="translate(-280.719 -303.212)" fill="#d0c1b9"/>
        <path id="Trazado_113538" data-name="Trazado 113538" d="M197.538,302.427,182,293.958l2.209-4.053,15.538,8.469a2.308,2.308,0,0,1,.922,3.131h0a2.308,2.308,0,0,1-3.13.922Z" transform="translate(-164.531 -265.752)" fill="#f2e9e4"/>
        <path id="Trazado_113539" data-name="Trazado 113539" d="M293.144,376.681l-5.926-3.23-.865,1.494,5.516,3.009a2.3,2.3,0,0,0,3.245-1.161,2.3,2.3,0,0,1-1.97-.113Z" transform="translate(-258.865 -341.279)" fill="#d0c1b9"/>
        <path id="Trazado_113540" data-name="Trazado 113540" d="M160.445,336.984l-15.538-8.469,2.21-4.053,15.538,8.468a2.308,2.308,0,0,1,.922,3.131h0a2.308,2.308,0,0,1-3.131.923Z" transform="translate(-130.997 -296.992)" fill="#f2e9e4"/>
        <path id="Trazado_113541" data-name="Trazado 113541" d="M267.848,416.178l-4.724-2.574-.949,1.632,4.281,2.333a2.308,2.308,0,0,0,3.131-.922h0a2.337,2.337,0,0,0,.146-.324,2.3,2.3,0,0,1-1.886-.145Z" transform="translate(-237.011 -377.578)" fill="#d0c1b9"/>
        <path id="Trazado_113542" data-name="Trazado 113542" d="M40.123,160.83l7.962,3.353L39.248,180.4l-15.7-8.375,7.694-13.845,5.3,3.077Z" transform="translate(-21.287 -146.664)" fill="#f2e9e4"/>
        <rect id="Rectángulo_8864" data-name="Rectángulo 8864" width="3.846" height="20.391" transform="matrix(-0.866, -0.5, 0.5, -0.866, 4.534, 28.609)" fill="#f4f6f7"/>
        <path id="Trazado_113543" data-name="Trazado 113543" d="M19.118,74.8l-11.6-6.7V91.642l1.406.812Z" transform="translate(-6.794 -65.234)" fill="#a66d58"/>
        <path id="Trazado_113544" data-name="Trazado 113544" d="M12.518,276.154l3.331,1.923,2.477-4.29-3.353-1.9Z" transform="translate(-11.316 -249.468)" fill="#eaecee"/>
        <path id="Trazado_113545" data-name="Trazado 113545" d="M7.516,260.2l1.406.812,2.465-4.269L7.516,254.55Z" transform="translate(-6.794 -233.79)" fill="#865a4a"/>
        <path id="Trazado_113546" data-name="Trazado 113546" d="M88.9,291.686a2.308,2.308,0,0,0-3.183-.464l-5.1,3.689a2.308,2.308,0,0,0-.517,3.223h0a2.308,2.308,0,0,0,3.223.517l5.1-3.692a2.308,2.308,0,0,0,.477-3.275Z" transform="translate(-72.011 -266.546)" fill="#fef0bf"/>
        <path id="Trazado_113547" data-name="Trazado 113547" d="M90.448,293.239h0a2.3,2.3,0,0,0-.973-.738,2.308,2.308,0,0,1-.79,2.728l-5.1,3.692a2.306,2.306,0,0,1-2.211.273,2.309,2.309,0,0,0,3.5,1.013l5.1-3.692a2.308,2.308,0,0,0,.477-3.276Z" transform="translate(-73.561 -268.098)" fill="#fde9a0"/>
        <path id="Trazado_113548" data-name="Trazado 113548" d="M125.885,329.38l-3.921,2.837a2.35,2.35,0,0,0-.532,3.289,2.308,2.308,0,0,0,3.2.481l3.962-2.867a2.308,2.308,0,0,0,.478-3.276h0a2.308,2.308,0,0,0-3.183-.464Z" transform="translate(-109.369 -301.042)" fill="#fef0bf"/>
        <path id="Trazado_113549" data-name="Trazado 113549" d="M130.555,331.421h0a2.3,2.3,0,0,0-.967-.734,2.308,2.308,0,0,1-.787,2.733l-3.962,2.867a2.306,2.306,0,0,1-2.213.273,2.225,2.225,0,0,0,.293.524,2.308,2.308,0,0,0,3.2.481l3.962-2.867a2.308,2.308,0,0,0,.478-3.276Z" transform="translate(-110.854 -302.62)" fill="#fde9a0"/>
        <path id="Trazado_113550" data-name="Trazado 113550" d="M162.972,369.581a2.308,2.308,0,0,0-.517,3.223h0a2.308,2.308,0,0,0,3.223.517l2.823-2.042A2.308,2.308,0,0,0,168.98,368h0a2.308,2.308,0,0,0-3.183-.464Z" transform="translate(-146.466 -335.538)" fill="#fef0bf"/>
        <path id="Trazado_113551" data-name="Trazado 113551" d="M170.216,369.243h0a2.3,2.3,0,0,0-1.063-.771,2.308,2.308,0,0,1-.824,2.637l-2.823,2.042a2.3,2.3,0,0,1-2.12.306,2.309,2.309,0,0,0,.307.586h0a2.308,2.308,0,0,0,3.223.517l2.823-2.042a2.308,2.308,0,0,0,.477-3.275Z" transform="translate(-147.702 -336.778)" fill="#fde9a0"/>
        <path id="Trazado_113552" data-name="Trazado 113552" d="M204.154,406.915a2.308,2.308,0,0,0-.517,3.223h0a2.308,2.308,0,0,0,3.223.517l1.683-1.218a2.308,2.308,0,0,0,.478-3.276h0a2.308,2.308,0,0,0-3.183-.464Z" transform="translate(-183.694 -370.034)" fill="#fef0bf"/>
        <path id="Trazado_113553" data-name="Trazado 113553" d="M210.485,407.634h0a2.3,2.3,0,0,0-1-.746,2.308,2.308,0,0,1-.8,2.7l-1.683,1.218a2.3,2.3,0,0,1-2.188.281,2.309,2.309,0,0,0,3.506,1.036l1.683-1.218a2.308,2.308,0,0,0,.478-3.275Z" transform="translate(-185.16 -371.507)" fill="#fde9a0"/>
        <path id="Trazado_113554" data-name="Trazado 113554" d="M217.908,166.189l-3.846,6.155V178.5a3.077,3.077,0,0,1-3.077,3.077h0a3.077,3.077,0,0,1-3.077-3.077v-6.155l1.539-6.155Z" transform="translate(-187.95 -153.91)" fill="#fef0bf"/>
        <path id="Trazado_113555" data-name="Trazado 113555" d="M210.214,178.5v-6.155l1.539-6.155h-2.308l-1.539,6.155V178.5a3.077,3.077,0,0,0,3.077,3.077h0a3.068,3.068,0,0,0,1.154-.225A3.077,3.077,0,0,1,210.214,178.5Z" transform="translate(-187.95 -153.91)" fill="#fde9a0"/>
        <path id="Trazado_113556" data-name="Trazado 113556" d="M47.974,82.462l-1.415,1.122L35.123,68.569l6.537-4.2a.721.721,0,0,0-.779-1.214l-7.2,4.619a.729.729,0,0,0-.184,1.044l1.31,1.72-.931.713-3.7-1.221A.735.735,0,0,0,29.958,70H21.494a.721.721,0,0,0-.7.546l-.476,1.9-1.2-.506a.722.722,0,0,0-.363-.052l-3.343.392-1.136-.66,1.082-1.871a.729.729,0,0,0-.264-.985L1.082,60.677A.721.721,0,1,0,.36,61.927l10.978,6.338L1.864,84.675l-.782-.452A.721.721,0,1,0,.36,85.472l3.812,2.2a.728.728,0,0,0,.985-.264l.552-.955,1.556.83a3.029,3.029,0,0,0,3.626,4.274,2.958,2.958,0,0,0,.6,1.78,3.052,3.052,0,0,0,3.346,1.06,3.029,3.029,0,0,0,2.547,2.946,3.063,3.063,0,0,0,.487.039,3,3,0,0,0,.917-.144,3.03,3.03,0,0,0,4.806,2.407l1.683-1.218a3.018,3.018,0,0,0,.865-.973L29.1,99.064a3.029,3.029,0,0,0,4.461-3,3.029,3.029,0,0,0,3.559-3.317,3.029,3.029,0,0,0,3.562-3.315,2.988,2.988,0,0,0,.541.051,3.024,3.024,0,0,0,2.7-4.421l1.266-.9.668.877a.729.729,0,0,0,1.022.128l1.991-1.579a.721.721,0,1,0-.9-1.13Zm-43.7,3.6L3.114,85.4l9.474-16.41,1.155.667Zm4.4,3.543a1.589,1.589,0,0,1,.356-2.216l5.1-3.692a1.587,1.587,0,0,1,1.86,2.571l-5.1,3.692a1.589,1.589,0,0,1-2.215-.354Zm3.971,2.863a1.641,1.641,0,0,1,.379-2.271l3.814-2.759a2.6,2.6,0,0,1,.423-.256,1.577,1.577,0,0,1,1.873.5,1.6,1.6,0,0,1-.324,2.252L14.84,92.8a1.594,1.594,0,0,1-2.2-.33Zm4.968,3.449a1.587,1.587,0,0,1-.68-2.851L19.646,91.1l.108-.077a1.579,1.579,0,0,1,2.189.319,1.6,1.6,0,0,1-.324,2.252L18.8,95.64a1.574,1.574,0,0,1-1.188.279Zm7.457.282a1.574,1.574,0,0,1-.64,1.057l-1.683,1.218A1.587,1.587,0,1,1,20.88,95.9l1.576-1.14.108-.078a1.6,1.6,0,0,1,2.188.319,1.574,1.574,0,0,1,.313,1.2ZM42.625,87.21a1.6,1.6,0,0,1-2.152.634L32.133,83.3a.721.721,0,0,0-.69,1.267l6.988,3.808a1.587,1.587,0,1,1-1.514,2.786L29.827,87.3a.721.721,0,0,0-.69,1.267l5.74,3.129a1.587,1.587,0,0,1-1.52,2.786L27.348,91.2a.721.721,0,0,0-.69,1.267l4.659,2.54A1.587,1.587,0,1,1,29.8,97.8l-3.268-1.781a3.038,3.038,0,0,0-2.89-3.072c.014-.064.026-.129.036-.194a3.038,3.038,0,0,0-2.848-3.469c.014-.064.026-.129.036-.194a3.038,3.038,0,0,0-2.848-3.469c.014-.064.026-.129.036-.194a3.006,3.006,0,0,0-.595-2.282h0a3.015,3.015,0,0,0-4.178-.609L8.246,86.172,6.43,85.2l7.12-12.331,1.341.779a.723.723,0,0,0,.446.093l3.393-.4,1.233.519L19.255,76.7a.726.726,0,0,0-.022.175v6.155a3.8,3.8,0,1,0,7.6,0V77.076l.131-.21,15.028,8.191A1.6,1.6,0,0,1,42.625,87.21Zm.344-3.245a3.09,3.09,0,0,0-.288-.178L27.729,75.644l.555-.888a.721.721,0,1,0-1.223-.765L25.5,76.49a.723.723,0,0,0-.108.382v6.155a2.356,2.356,0,0,1-4.713,0V76.961l1.38-5.523h7.788l3.949,1.3a.727.727,0,0,0,.665-.108l1.231-.942,8.624,11.325Z" transform="translate(0.001 -58.438)"/>
        <path id="Trazado_113557" data-name="Trazado 113557" d="M455.59,42.477a.718.718,0,0,0,.389-.115l4.041-2.6a.721.721,0,1,0-.779-1.214l-4.041,2.6a.721.721,0,0,0,.39,1.328Z" transform="translate(-411.208 -38.424)"/>
      </g>
    </g>
  </g>
</svg>
