<svg xmlns="http://www.w3.org/2000/svg" xmlns:xlink="http://www.w3.org/1999/xlink" width="103" height="103" viewBox="0 0 103 103">
  <defs>
    <filter id="Trazado_874925" x="0" y="0" width="103" height="103" filterUnits="userSpaceOnUse">
      <feOffset dy="3" input="SourceAlpha"/>
      <feGaussianBlur stdDeviation="3" result="blur"/>
      <feFlood flood-opacity="0.161"/>
      <feComposite operator="in" in2="blur"/>
      <feComposite in="SourceGraphic"/>
    </filter>
  </defs>
  <g id="Grupo_1176827" data-name="Grupo 1176827" transform="translate(-799.5 -2511.157)">
    <g id="Grupo_1111316" data-name="Grupo 1111316" transform="translate(808.5 2517.157)">
      <g id="Grupo_1109835" data-name="Grupo 1109835" transform="translate(0 0)">
        <g id="Grupo_1107913" data-name="Grupo 1107913" transform="translate(0 0)">
          <g transform="matrix(1, 0, 0, 1, -9, -6)" filter="url(#Trazado_874925)">
            <g id="Trazado_874925-2" data-name="Trazado 874925" transform="translate(9 6)" fill="#cdb9f8" opacity="0.859">
              <path d="M 42.49984359741211 83.50018310546875 C 36.9642448425293 83.50018310546875 31.59502029418945 82.41635894775391 26.54131507873535 80.27883148193359 C 21.65926742553711 78.21389007568359 17.2744197845459 75.2574462890625 13.50857257843018 71.49160766601562 C 9.742737770080566 67.72576141357422 6.786290645599365 63.34091567993164 4.721349716186523 58.45886611938477 C 2.583820104598999 53.4051628112793 1.499996542930603 48.03593826293945 1.499996542930603 42.50033950805664 C 1.499996542930603 36.9642448425293 2.583820104598999 31.59502029418945 4.721349716186523 26.54131507873535 C 6.786290645599365 21.65926742553711 9.742737770080566 17.27442169189453 13.50857257843018 13.50857353210449 C 17.2744197845459 9.742738723754883 21.65926742553711 6.786291599273682 26.54131507873535 4.721350193023682 C 31.59502029418945 2.583821058273315 36.9642448425293 1.49999737739563 42.49984359741211 1.49999737739563 C 48.03545379638672 1.49999737739563 53.40467834472656 2.583821058273315 58.4583740234375 4.721350193023682 C 63.34043121337891 6.786291599273682 67.72528076171875 9.742738723754883 71.49111175537109 13.50857353210449 C 75.25695037841797 17.27442169189453 78.21339416503906 21.65926742553711 80.27833557128906 26.54131507873535 C 82.41587066650391 31.59502029418945 83.49968719482422 36.9642448425293 83.49968719482422 42.49984359741211 C 83.49968719482422 48.03593826293945 82.41587066650391 53.4051628112793 80.27833557128906 58.45886611938477 C 78.21339416503906 63.34091567993164 75.25695037841797 67.72576141357422 71.49111175537109 71.49160766601562 C 67.72528076171875 75.2574462890625 63.34043121337891 78.21389007568359 58.4583740234375 80.27883148193359 C 53.40467834472656 82.41635894775391 48.03545379638672 83.50018310546875 42.49984359741211 83.50018310546875 Z" stroke="none"/>
              <path d="M 42.49984359741211 3 C 37.16606903076172 3 31.99344253540039 4.043960571289062 27.12564468383789 6.102867126464844 C 22.42237854003906 8.092170715332031 18.19780731201172 10.94066619873047 14.56922912597656 14.56923675537109 C 10.940673828125 18.19779968261719 8.092178344726562 22.42238616943359 6.102859497070312 27.12563705444336 C 4.043952941894531 31.99343872070312 3 37.16606521606445 3 42.50033187866211 C 3 47.8341064453125 4.043952941894531 53.00672912597656 6.102859497070312 57.87453079223633 C 8.092178344726562 62.57778549194336 10.940673828125 66.8023681640625 14.56922912597656 70.43094635009766 C 18.19780731201172 74.05950164794922 22.42238998413086 76.90801239013672 27.12564468383789 78.89731597900391 C 31.99344253540039 80.95622253417969 37.16606903076172 82.00018310546875 42.49984359741211 82.00018310546875 C 47.83360290527344 82.00018310546875 53.00624084472656 80.95622253417969 57.87404632568359 78.89731597900391 C 62.57729721069336 76.90801239013672 66.8018798828125 74.05950164794922 70.43044281005859 70.43094635009766 C 74.05902099609375 66.8023681640625 76.90750885009766 62.57778549194336 78.89682006835938 57.87453079223633 C 80.95572662353516 53.00672912597656 81.99968719482422 47.83409118652344 81.99968719482422 42.49983978271484 C 81.99968719482422 37.16607666015625 80.95572662353516 31.99343872070312 78.89682006835938 27.12563705444336 C 76.90750885009766 22.42238616943359 74.05902099609375 18.19779968261719 70.43044281005859 14.56923675537109 C 66.8018798828125 10.94066619873047 62.57729721069336 8.092170715332031 57.87404632568359 6.102867126464844 C 53.00624084472656 4.043960571289062 47.83360290527344 3 42.49984359741211 3 M 42.49984359741211 0 C 65.97185516357422 0 84.99968719482422 19.02782440185547 84.99968719482422 42.49983978271484 L 84.99968719482422 42.50033187866211 C 84.99968719482422 65.97234344482422 65.97185516357422 85.00018310546875 42.49984359741211 85.00018310546875 C 19.02781677246094 85.00018310546875 0 65.97234344482422 0 42.50033187866211 L 0 42.49983978271484 C 0 19.02782440185547 19.02781677246094 0 42.49984359741211 0 Z" stroke="none" fill="#fff"/>
            </g>
          </g>
          <g id="Trazado_874923" data-name="Trazado 874923" transform="translate(0 0)" fill="none">
            <path d="M42.5,0A42.5,42.5,0,0,1,85,42.5h0a42.5,42.5,0,1,1-85,0H0A42.5,42.5,0,0,1,42.5,0Z" stroke="none"/>
            <path d="M 42.49984359741211 3 C 37.16606903076172 3 31.99344253540039 4.043960571289062 27.12564468383789 6.102867126464844 C 22.42237854003906 8.092170715332031 18.19780731201172 10.94066619873047 14.56922912597656 14.56923675537109 C 10.940673828125 18.19779968261719 8.092178344726562 22.42238616943359 6.102859497070312 27.12563705444336 C 4.043952941894531 31.99343872070312 3 37.16606521606445 3 42.50033187866211 C 3 47.8341064453125 4.043952941894531 53.00672912597656 6.102859497070312 57.87453079223633 C 8.092178344726562 62.57778549194336 10.940673828125 66.8023681640625 14.56922912597656 70.43094635009766 C 18.19780731201172 74.05950164794922 22.42238998413086 76.90801239013672 27.12564468383789 78.89731597900391 C 31.99344253540039 80.95622253417969 37.16606903076172 82.00018310546875 42.49984359741211 82.00018310546875 C 47.83360290527344 82.00018310546875 53.00624084472656 80.95622253417969 57.87404632568359 78.89731597900391 C 62.57729721069336 76.90801239013672 66.8018798828125 74.05950164794922 70.43044281005859 70.43094635009766 C 74.05902099609375 66.8023681640625 76.90750885009766 62.57778549194336 78.89682006835938 57.87453079223633 C 80.95572662353516 53.00672912597656 81.99968719482422 47.83409118652344 81.99968719482422 42.49983978271484 C 81.99968719482422 37.16607666015625 80.95572662353516 31.99343872070312 78.89682006835938 27.12563705444336 C 76.90750885009766 22.42238616943359 74.05902099609375 18.19779968261719 70.43044281005859 14.56923675537109 C 66.8018798828125 10.94066619873047 62.57729721069336 8.092170715332031 57.87404632568359 6.102867126464844 C 53.00624084472656 4.043960571289062 47.83360290527344 3 42.49984359741211 3 M 42.49984359741211 0 C 65.97185516357422 0 84.99968719482422 19.02782440185547 84.99968719482422 42.49983978271484 L 84.99968719482422 42.50033187866211 C 84.99968719482422 65.97234344482422 65.97185516357422 85.00018310546875 42.49984359741211 85.00018310546875 C 19.02781677246094 85.00018310546875 0 65.97234344482422 0 42.50033187866211 L 0 42.49983978271484 C 0 19.02782440185547 19.02781677246094 0 42.49984359741211 0 Z" stroke="none" fill="#fff"/>
          </g>
        </g>
      </g>
    </g>
    <g id="Grupo_59806" data-name="Grupo 59806" transform="translate(430.898 -4704)">
      <g id="love" transform="translate(397 7242)">
        <g id="Grupo_59804" data-name="Grupo 59804" transform="translate(0.902 0.902)">
          <path id="Trazado_113513" data-name="Trazado 113513" d="M290.98,136.983v-8.276a2.707,2.707,0,1,1,5.414,0v12.258a10.83,10.83,0,0,1-5.986,9.686l-4.843,2.421v5.414H276v-11.78a4.457,4.457,0,0,1,4.012-4.435c.01,0,4.136-.634,6.125-2.622l2.027-2.026a2.706,2.706,0,0,1,2.816-.64Z" transform="translate(-251.996 -116.976)" fill="#fce8d0"/>
          <path id="Trazado_113514" data-name="Trazado 113514" d="M137.207,26c4.943,0,6.666,4.553,6.666,7.219,0,5.414-4.451,8.491-12.347,15.341-7.9-6.85-12.347-9.926-12.347-15.341,0-2.667,1.723-7.219,6.666-7.219,3.035,0,4.717,2.215,5.681,3.979C132.491,28.215,134.173,26,137.207,26Z" transform="translate(-109.327 -26)" fill="#d9a171"/>
          <path id="Trazado_113515" data-name="Trazado 113515" d="M15.414,136.983a2.706,2.706,0,0,1,2.816.639l2.027,2.026c1.948,1.948,6.115,2.62,6.125,2.622a4.457,4.457,0,0,1,4.012,4.435v11.781H20.829v-5.414l-4.843-2.421A10.83,10.83,0,0,1,10,140.966V128.707a2.707,2.707,0,1,1,5.414,0Z" transform="translate(-10 -116.976)" fill="#fce8d0"/>
        </g>
        <g id="Grupo_59805" data-name="Grupo 59805">
          <path id="Trazado_113516" data-name="Trazado 113516" d="M135.678,24.122c0-3.14-2.055-8.122-7.568-8.122a6.792,6.792,0,0,0-5.681,3.179A6.792,6.792,0,0,0,116.749,16c-5.514,0-7.569,4.982-7.569,8.122,0,5.414,4.225,8.8,10,13.736.848.725,1.725,1.475,2.66,2.286a.9.9,0,0,0,1.183,0c.935-.811,1.812-1.561,2.66-2.286,6.043-5.167,10-8.437,10-13.736ZM122.429,38.269c-.721-.622-1.409-1.21-2.079-1.783-6.039-5.164-9.366-8.008-9.366-12.364,0-2.955,1.933-6.317,5.764-6.317,2,0,3.6,1.148,4.889,3.509a.9.9,0,0,0,1.584,0c1.291-2.361,2.89-3.509,4.889-3.509,3.777,0,5.764,3.312,5.764,6.317,0,4.356-3.327,7.2-9.366,12.364C123.838,37.059,123.15,37.647,122.429,38.269Z" transform="translate(-99.327 -16)"/>
          <path id="Trazado_113517" data-name="Trazado 113517" d="M6.485,142.361l4.344,2.172v4.857a.9.9,0,0,0,.9.9H21.3a.9.9,0,0,0,.9-.9V137.608a5.341,5.341,0,0,0-4.818-5.333l-.074-.008a11.467,11.467,0,0,1-5.51-2.355l-2.027-2.026a3.586,3.586,0,0,0-2.552-1.057V119.61a3.61,3.61,0,1,0-7.219,0v12.258a11.732,11.732,0,0,0,6.485,10.493ZM1.8,119.61a1.8,1.8,0,1,1,3.61,0v7.7a3.609,3.609,0,0,0-.747,5.678l4.621,4.622a.9.9,0,0,0,1.276-1.276l-4.621-4.622a1.8,1.8,0,0,1,.674-2.978h0a1.8,1.8,0,0,1,1.877.427l2.027,2.026c2.092,2.092,6.664,2.88,6.673,2.882a3.544,3.544,0,0,1,3.2,3.537v10.879H12.634v-4.512a.9.9,0,0,0-.5-.807l-4.843-2.421A9.873,9.873,0,0,1,1.8,131.868Z" transform="translate(0 -106.976)"/>
          <circle id="Elipse_4279" data-name="Elipse 4279" cx="0.9" cy="0.9" r="0.9" transform="translate(40.504 32.252)"/>
          <path id="Trazado_113518" data-name="Trazado 113518" d="M284.59,116a3.614,3.614,0,0,0-3.61,3.61v7.219a3.585,3.585,0,0,0-2.552,1.057l-2.027,2.026a11.469,11.469,0,0,1-5.517,2.356l-.06.007A5.343,5.343,0,0,0,266,137.608v11.781a.9.9,0,0,0,.9.9h9.566a.9.9,0,0,0,.9-.9v-4.857l2.954-1.477a.9.9,0,0,0-.807-1.614l-3.453,1.726a.9.9,0,0,0-.5.807v4.512H267.8V137.608a3.546,3.546,0,0,1,3.207-3.538l.06-.007a13.257,13.257,0,0,0,6.606-2.875l2.027-2.026a1.8,1.8,0,0,1,1.877-.427h0a1.8,1.8,0,0,1,.674,2.978l-4.621,4.622a.9.9,0,0,0,1.276,1.276l4.621-4.622a3.609,3.609,0,0,0-.747-5.678v-7.7a1.8,1.8,0,1,1,3.61,0v12.258a9.956,9.956,0,0,1-1.2,4.742.9.9,0,0,0,1.587.86,11.763,11.763,0,0,0,1.424-5.6V119.61a3.614,3.614,0,0,0-3.61-3.61Z" transform="translate(-241.996 -106.976)"/>
        </g>
      </g>
    </g>
  </g>
</svg>
