<svg xmlns="http://www.w3.org/2000/svg" xmlns:xlink="http://www.w3.org/1999/xlink" width="103" height="103" viewBox="0 0 103 103">
  <defs>
    <filter id="Trazado_900409" x="0" y="0" width="103" height="103" filterUnits="userSpaceOnUse">
      <feOffset dy="3" input="SourceAlpha"/>
      <feGaussianBlur stdDeviation="3" result="blur"/>
      <feFlood flood-opacity="0.161"/>
      <feComposite operator="in" in2="blur"/>
      <feComposite in="SourceGraphic"/>
    </filter>
  </defs>
  <g id="Grupo_1111362" data-name="Grupo 1111362" transform="translate(-1011.967 -3087)">
    <g transform="matrix(1, 0, 0, 1, 1011.97, 3087)" filter="url(#Trazado_900409)">
      <path id="Trazado_900409-2" data-name="Trazado 900409" d="M42.5,0A42.5,42.5,0,1,1,0,42.5,42.5,42.5,0,0,1,42.5,0Z" transform="translate(9 6)" fill="#fd9826" opacity="0.859"/>
    </g>
    <g id="real-estate_6077884" transform="translate(1035.978 3108.002)">
      <circle id="Elipse_12985" data-name="Elipse 12985" cx="15.075" cy="15.075" r="15.075" transform="translate(12.414 0.904)" fill="#e2e7f6"/>
      <path id="Trazado_1031502" data-name="Trazado 1031502" d="M42.488,16.189A15.069,15.069,0,0,0,33.513,2.41a15.064,15.064,0,0,0-9.538,28.443A15.028,15.028,0,0,0,42.488,16.189Z" transform="translate(-2.585 -1.097)" fill="#f2f2f2"/>
      <path id="Trazado_1031503" data-name="Trazado 1031503" d="M22.969,28.188V20.53L30.95,14l7.981,6.53v7.658Z" transform="translate(-3.488 -2.455)" fill="#c8cded"/>
      <path id="Trazado_1031504" data-name="Trazado 1031504" d="M30.95,14l-7.981,6.53v5.884H35.383a.887.887,0,0,0,.887-.887V18.353Z" transform="translate(-3.488 -2.455)" fill="#e2e7f6"/>
      <path id="Trazado_1031505" data-name="Trazado 1031505" d="M19.051,30a15.051,15.051,0,0,0,22.967,0Z" transform="translate(-3.045 -4.267)" fill="#686868"/>
      <path id="Trazado_1031506" data-name="Trazado 1031506" d="M42.8,18.641,30.383,8,17.969,18.641l2.66,2.66,9.754-7.981L40.137,21.3Z" transform="translate(-2.922 -1.775)" fill="#3b5892"/>
      <path id="Trazado_1031507" data-name="Trazado 1031507" d="M27.969,29.094V25.547a3.547,3.547,0,0,1,7.094,0v3.547" transform="translate(-4.055 -3.361)" fill="#5e87ca"/>
      <path id="Trazado_1031508" data-name="Trazado 1031508" d="M40.516,14.954V9H36.969v2.914" transform="translate(-5.074 -1.889)" fill="#5e87ca"/>
      <path id="Trazado_1031509" data-name="Trazado 1031509" d="M31.516,25.547V22a3.547,3.547,0,0,0-3.547,3.547V27.32h1.773A1.773,1.773,0,0,0,31.516,25.547Z" transform="translate(-4.055 -3.361)" fill="#78a0d4"/>
      <path id="Trazado_1031510" data-name="Trazado 1031510" d="M2,34H9.094V52.621H2Z" transform="translate(-1.113 -4.72)" fill="#5e87ca"/>
      <path id="Trazado_1031511" data-name="Trazado 1031511" d="M2,34V49.075h.887a2.66,2.66,0,0,0,2.66-2.66V34Z" transform="translate(-1.113 -4.72)" fill="#78a0d4"/>
      <path id="Trazado_1031512" data-name="Trazado 1031512" d="M50.376,36H28.207l-5.473,5.473a2.508,2.508,0,0,0,3.547,3.547l4.586-4.586h3.547l9.02,9.02a2.511,2.511,0,0,1,.734,1.621h6.207Z" transform="translate(-3.379 -4.947)" fill="#ffcea9"/>
      <path id="Trazado_1031513" data-name="Trazado 1031513" d="M10,51.075h5.32l7.246,7.246a2.508,2.508,0,0,0,3.547-3.547l1.774,1.774A2.508,2.508,0,0,0,31.434,53l1.774,1.774a2.508,2.508,0,0,0,3.547-3.547L38.528,53a2.508,2.508,0,0,0,3.547-3.547l-9.02-9.02H29.508L24.922,45.02a2.508,2.508,0,0,1-3.547-3.547L26.848,36H10Z" transform="translate(-2.019 -4.947)" fill="#fbe1ca"/>
      <g id="Grupo_1176586" data-name="Grupo 1176586" transform="translate(19.761 40.18)">
        <path id="Trazado_1031514" data-name="Trazado 1031514" d="M0,0H1.773V7.739H0Z" transform="translate(8.867 1.254) rotate(-45)" fill="#ffcea9"/>
        <path id="Trazado_1031515" data-name="Trazado 1031515" d="M0,0H1.773V5.232H0Z" transform="translate(0 6.572) rotate(-45)" fill="#ffcea9"/>
        <path id="Trazado_1031516" data-name="Trazado 1031516" d="M0,0H1.773V6.486H0Z" transform="translate(4.433 3.913) rotate(-45)" fill="#ffcea9"/>
      </g>
      <path id="Trazado_1031517" data-name="Trazado 1031517" d="M54,34h7.094V52.621H54Z" transform="translate(-7.003 -4.72)" fill="#5e87ca"/>
      <path id="Trazado_1031518" data-name="Trazado 1031518" d="M54,34V49.075h.887a2.66,2.66,0,0,0,2.66-2.66V34Z" transform="translate(-7.003 -4.72)" fill="#78a0d4"/>
      <path id="Trazado_1031519" data-name="Trazado 1031519" d="M55.091,29.373H48a.887.887,0,0,0-.887.887v.887H35.767a15.961,15.961,0,1,0-14.557,0H9.867V30.26a.887.887,0,0,0-.887-.887H1.887A.887.887,0,0,0,1,30.26V48.882a.887.887,0,0,0,.887.887H8.981a.887.887,0,0,0,.887-.887v-.887h4.067l6.987,6.987a3.382,3.382,0,0,0,5.657-1.5,3.36,3.36,0,0,0,5.32-1.773,3.36,3.36,0,0,0,5.32-1.773,3.36,3.36,0,0,0,2.063.717,3.4,3.4,0,0,0,3.306-2.66H47.11v.887a.887.887,0,0,0,.887.887h7.094a.887.887,0,0,0,.887-.887V30.26A.887.887,0,0,0,55.091,29.373Zm-47,18.621H2.773V31.147h5.32ZM28.489,2.771A14.172,14.172,0,0,1,39.546,25.826h-2.19v-4.9l.325.266a.887.887,0,0,0,1.188-.059l2.66-2.66a.887.887,0,0,0-.051-1.3l-4.123-3.535V8.092a.887.887,0,0,0-.887-.887H32.923a.887.887,0,0,0-.887.887v.986L29.065,6.532a.887.887,0,0,0-1.153,0L15.5,17.173a.887.887,0,0,0-.051,1.3l2.66,2.66a.887.887,0,0,0,1.188.059l.325-.266v4.9h-2.19A14.172,14.172,0,0,1,28.489,2.771Zm2.66,23.055h-5.32v-2.66a2.66,2.66,0,0,1,5.32,0Zm-2.66-7.094a4.439,4.439,0,0,0-4.434,4.434v2.66h-2.66V19.476l7.094-5.8,7.094,5.8v6.351h-2.66v-2.66a4.439,4.439,0,0,0-4.434-4.434Zm7.094-6.614L33.809,10.6V8.978h1.773ZM39.6,17.9,38.18,19.315l-9.133-7.473a.887.887,0,0,0-1.123,0l-9.133,7.473L17.372,17.9,28.489,8.373ZM19.136,27.6h18.7a14.1,14.1,0,0,1-18.7,0ZM39.282,48.882a1.632,1.632,0,0,1-1.147-.474l-7.246-7.246-1.254,1.254,5.473,5.473a1.622,1.622,0,1,1-2.293,2.293l-6.359-6.36L25.2,45.075l4.586,4.586a1.622,1.622,0,1,1-2.293,2.293l-5.473-5.473-1.254,1.254,3.7,3.7a1.622,1.622,0,1,1-2.293,2.293l-7.246-7.247a.887.887,0,0,0-.627-.26H9.867V32.92H23.688L19.729,36.88a3.395,3.395,0,1,0,4.8,4.8l4.326-4.326h2.813l8.76,8.76a1.622,1.622,0,0,1-1.147,2.768Zm3.217-2.66a3.353,3.353,0,0,0-.816-1.361l-9.021-9.02a.887.887,0,0,0-.627-.26H28.489a.887.887,0,0,0-.627.26l-4.586,4.586a1.622,1.622,0,1,1-2.293-2.293L26.2,32.92H47.11v13.3Zm11.7,1.773h-5.32V31.147H54.2Z" transform="translate(-1 -0.98)"/>
    </g>
  </g>
</svg>
